spectral-xlight-italic.ufo
<glyph name="exclam" format="1">
  <advance width="214"/>
  <unicode hex="0021"/>
  <outline>
    <contour>
      <point x="80" y="200" type="line"/>
      <point x="94" y="200" type="line"/>
      <point x="199" y="660" type="line"/>
      <point x="143" y="660" type="line"/>
    </contour>
    <contour>
      <point x="54" y="-5" type="curve" smooth="yes"/>
      <point x="84" y="-5"/>
      <point x="104" y="24"/>
      <point x="104" y="48" type="curve" smooth="yes"/>
      <point x="104" y="71"/>
      <point x="91" y="88"/>
      <point x="65" y="88" type="curve" smooth="yes"/>
      <point x="35" y="88"/>
      <point x="15" y="59"/>
      <point x="15" y="36" type="curve" smooth="yes"/>
      <point x="15" y="12"/>
      <point x="27" y="-5"/>
    </contour>
  </outline>
</glyph>
<glyph name="numbersign" format="1">
  <advance width="500"/>
  <unicode hex="0023"/>
  <outline>
    <contour>
      <point x="17" y="0" type="line"/>
      <point x="53" y="0" type="line"/>
      <point x="321" y="660" type="line"/>
      <point x="285" y="660" type="line"/>
    </contour>
    <contour>
      <point x="216" y="0" type="line"/>
      <point x="484" y="660" type="line"/>
      <point x="448" y="660" type="line"/>
      <point x="180" y="0" type="line"/>
    </contour>
    <contour>
      <point x="98" y="417" type="line"/>
      <point x="481" y="417" type="line"/>
      <point x="487" y="450" type="line"/>
      <point x="104" y="450" type="line"/>
    </contour>
    <contour>
      <point x="397" y="207" type="line"/>
      <point x="403" y="240" type="line"/>
      <point x="19" y="240" type="line"/>
      <point x="13" y="207" type="line"/>
    </contour>
  </outline>
</glyph>
<glyph name="dollar" format="2">
  <advance width="500"/>
  <unicode hex="0024"/>
  <outline>
    <contour>
      <point x="130" y="-80" type="line"/>
      <point x="159" y="-80" type="line"/>
      <point x="303" y="740" type="line"/>
      <point x="274" y="740" type="line"/>
    </contour>
    <contour>
      <point x="223" y="-80" type="line"/>
      <point x="252" y="-80" type="line"/>
      <point x="396" y="740" type="line"/>
      <point x="367" y="740" type="line"/>
    </contour>
    <contour>
      <point x="435" y="588" type="curve"/>
      <point x="426" y="616" type="line"/>
      <point x="405" y="517" type="line"/>
      <point x="431" y="517" type="line" smooth="yes"/>
      <point x="455" y="517"/>
      <point x="469" y="527"/>
      <point x="469" y="557" type="curve" smooth="yes"/>
      <point x="469" y="619"/>
      <point x="418" y="670"/>
      <point x="323" y="670" type="curve" smooth="yes"/>
      <point x="212" y="670"/>
      <point x="121" y="595"/>
      <point x="121" y="488" type="curve" smooth="yes"/>
      <point x="121" y="423"/>
      <point x="151" y="385"/>
      <point x="231" y="333" type="curve" smooth="yes"/>
      <point x="313" y="279"/>
      <point x="367" y="248"/>
      <point x="367" y="170" type="curve" smooth="yes"/>
      <point x="367" y="79"/>
      <point x="310" y="16"/>
      <point x="216" y="16" type="curve" smooth="yes"/>
      <point x="130" y="16"/>
      <point x="86" y="41"/>
      <point x="63" y="113" type="curve"/>
      <point x="79" y="50" type="line"/>
      <point x="104" y="157" type="line"/>
      <point x="74" y="157" type="line" smooth="yes"/>
      <point x="51" y="157"/>
      <point x="37" y="149"/>
      <point x="37" y="116" type="curve" smooth="yes"/>
      <point x="37" y="55"/>
      <point x="95" y="-10"/>
      <point x="207" y="-10" type="curve" smooth="yes"/>
      <point x="336" y="-10"/>
      <point x="414" y="81"/>
      <point x="414" y="179" type="curve" smooth="yes"/>
      <point x="414" y="266"/>
      <point x="369" y="307"/>
      <point x="283" y="360" type="curve" smooth="yes"/>
      <point x="189" y="418"/>
      <point x="165" y="455"/>
      <point x="165" y="510" type="curve" smooth="yes"/>
      <point x="165" y="594"/>
      <point x="226" y="645"/>
      <point x="316" y="645" type="curve" smooth="yes"/>
      <point x="384" y="645"/>
      <point x="419" y="624"/>
    </contour>
  </outline>
</glyph>
<glyph name="ampersand" format="1">
  <advance width="721.0"/>
  <unicode hex="0026"/>
  <outline>
    <contour>
      <point x="573" y="-10" type="curve" smooth="yes"/>
      <point x="607" y="-10"/>
      <point x="640" y="4"/>
      <point x="662" y="34" type="curve"/>
      <point x="655" y="43" type="line"/>
      <point x="653" y="43" type="line"/>
      <point x="635" y="27"/>
      <point x="617" y="20"/>
      <point x="594" y="20" type="curve" smooth="yes"/>
      <point x="542" y="20"/>
      <point x="507" y="55"/>
      <point x="462" y="115" type="curve"/>
      <point x="284" y="346" type="line" smooth="yes"/>
      <point x="231" y="415"/>
      <point x="207" y="456"/>
      <point x="207" y="517" type="curve" smooth="yes"/>
      <point x="207" y="597"/>
      <point x="255" y="646"/>
      <point x="323" y="646" type="curve" smooth="yes"/>
      <point x="385" y="646"/>
      <point x="411" y="607"/>
      <point x="411" y="560" type="curve" smooth="yes"/>
      <point x="411" y="488"/>
      <point x="360" y="435"/>
      <point x="258" y="372" type="curve"/>
      <point x="260" y="357" type="line"/>
      <point x="387" y="424"/>
      <point x="462" y="481"/>
      <point x="462" y="566" type="curve" smooth="yes"/>
      <point x="462" y="623"/>
      <point x="417" y="670"/>
      <point x="331" y="670" type="curve" smooth="yes"/>
      <point x="232" y="670"/>
      <point x="161" y="595"/>
      <point x="161" y="498" type="curve" smooth="yes"/>
      <point x="161" y="403"/>
      <point x="226" y="342"/>
      <point x="287" y="262" type="curve" smooth="yes"/>
      <point x="421" y="86" type="line"/>
      <point x="467" y="25"/>
      <point x="498" y="-10"/>
    </contour>
    <contour>
      <point x="191" y="-10" type="curve" smooth="yes"/>
      <point x="354" y="-10"/>
      <point x="473" y="142"/>
      <point x="597" y="365" type="curve"/>
      <point x="565" y="349" type="line"/>
      <point x="669" y="375" type="line"/>
      <point x="671" y="390" type="line"/>
      <point x="467" y="390" type="line"/>
      <point x="465" y="375" type="line"/>
      <point x="551" y="357" type="line"/>
      <point x="460" y="158"/>
      <point x="336" y="22"/>
      <point x="213" y="22" type="curve" smooth="yes"/>
      <point x="132" y="22"/>
      <point x="94" y="75"/>
      <point x="94" y="143" type="curve" smooth="yes"/>
      <point x="94" y="225"/>
      <point x="135" y="285"/>
      <point x="232" y="346" type="curve"/>
      <point x="221" y="357" type="line"/>
      <point x="100" y="286"/>
      <point x="45" y="220"/>
      <point x="45" y="125" type="curve" smooth="yes"/>
      <point x="45" y="46"/>
      <point x="100" y="-10"/>
    </contour>
  </outline>
</glyph>
<glyph name="quotesingle" format="2">
  <advance width="219"/>
  <unicode hex="0027"/>
  <outline>
    <contour>
      <point x="132" y="490" type="line"/>
      <point x="152" y="490" type="line"/>
      <point x="218" y="740" type="line"/>
      <point x="154" y="740" type="line"/>
    </contour>
  </outline>
</glyph>
<glyph name="parenleft" format="1">
  <advance width="250"/>
  <unicode hex="0028"/>
  <outline>
    <contour>
      <point x="154" y="-150" type="curve"/>
      <point x="168" y="-150" type="line"/>
      <point x="168" y="-147" type="line"/>
      <point x="127" y="-48"/>
      <point x="100" y="47"/>
      <point x="100" y="179" type="curve" smooth="yes"/>
      <point x="100" y="397"/>
      <point x="178" y="570"/>
      <point x="322" y="737" type="curve"/>
      <point x="322" y="740" type="line"/>
      <point x="308" y="740" type="line"/>
      <point x="161" y="593"/>
      <point x="65" y="401"/>
      <point x="65" y="191" type="curve" smooth="yes"/>
      <point x="65" y="63"/>
      <point x="100" y="-53"/>
    </contour>
  </outline>
</glyph>
<glyph name="parenright" format="1">
  <advance width="250"/>
  <unicode hex="0029"/>
  <outline>
    <contour>
      <point x="-69" y="-149" type="line"/>
      <point x="-55" y="-149" type="line"/>
      <point x="92" y="-2"/>
      <point x="188" y="190"/>
      <point x="188" y="400" type="curve" smooth="yes"/>
      <point x="188" y="528"/>
      <point x="153" y="644"/>
      <point x="99" y="741" type="curve"/>
      <point x="85" y="741" type="line"/>
      <point x="85" y="738" type="line"/>
      <point x="126" y="639"/>
      <point x="153" y="544"/>
      <point x="153" y="412" type="curve" smooth="yes"/>
      <point x="153" y="194"/>
      <point x="75" y="21"/>
      <point x="-69" y="-146" type="curve"/>
    </contour>
  </outline>
</glyph>
<glyph name="asterisk" format="2">
  <advance width="350"/>
  <unicode hex="002A"/>
  <outline>
    <contour>
      <point x="87" y="462" type="line"/>
      <point x="91" y="454"/>
      <point x="100" y="446"/>
      <point x="112" y="440" type="curve"/>
      <point x="215" y="565" type="line"/>
      <point x="274" y="441" type="line"/>
      <point x="286" y="445"/>
      <point x="297" y="452"/>
      <point x="305" y="460" type="curve"/>
      <point x="230" y="576" type="line"/>
      <point x="381" y="613" type="line"/>
      <point x="381" y="625"/>
      <point x="379" y="636"/>
      <point x="373" y="646" type="curve"/>
      <point x="227" y="591" type="line"/>
      <point x="264" y="740" type="line"/>
      <point x="252" y="744"/>
      <point x="240" y="744"/>
      <point x="226" y="740" type="curve"/>
      <point x="211" y="591" type="line"/>
      <point x="82" y="646" type="line"/>
      <point x="74" y="638"/>
      <point x="69" y="627"/>
      <point x="67" y="613" type="curve"/>
      <point x="204" y="576" type="line"/>
    </contour>
  </outline>
</glyph>
<glyph name="plus" format="1">
  <advance width="500.0"/>
  <unicode hex="002B"/>
  <outline>
    <contour>
      <point x="443" y="258" type="line"/>
      <point x="448" y="286" type="line"/>
      <point x="47" y="286" type="line"/>
      <point x="42" y="258" type="line"/>
    </contour>
    <contour>
      <point x="266" y="482" type="line"/>
      <point x="192" y="62" type="line"/>
      <point x="223" y="62" type="line"/>
      <point x="297" y="482" type="line"/>
    </contour>
  </outline>
</glyph>
<glyph name="comma" format="2">
  <advance width="243"/>
  <unicode hex="002C"/>
  <outline>
    <contour>
      <point x="-40" y="-176" type="line"/>
      <point x="-30" y="-176" type="line"/>
      <point x="129" y="52" type="line"/>
      <point x="129" y="64" type="line"/>
      <point x="63" y="64" type="line"/>
    </contour>
  </outline>
</glyph>
<glyph name="hyphen" format="1">
  <advance width="350"/>
  <unicode hex="002D"/>
  <outline>
    <contour>
      <point x="40" y="237" type="line"/>
      <point x="303" y="237" type="line"/>
      <point x="310" y="277" type="line"/>
      <point x="47" y="277" type="line"/>
    </contour>
  </outline>
</glyph>
<glyph name="period" format="1">
  <advance width="243.0"/>
  <unicode hex="002E"/>
  <outline>
    <contour>
      <point x="74" y="-5" type="curve" smooth="yes"/>
      <point x="104" y="-5"/>
      <point x="124" y="20"/>
      <point x="124" y="48" type="curve" smooth="yes"/>
      <point x="124" y="71"/>
      <point x="111" y="88"/>
      <point x="85" y="88" type="curve" smooth="yes"/>
      <point x="55" y="88"/>
      <point x="35" y="63"/>
      <point x="35" y="36" type="curve" smooth="yes"/>
      <point x="35" y="12"/>
      <point x="47" y="-5"/>
    </contour>
  </outline>
</glyph>
<glyph name="slash" format="1">
  <advance width="266"/>
  <unicode hex="002F"/>
  <outline>
    <contour>
      <point x="-60" y="-120" type="line"/>
      <point x="-27" y="-120" type="line"/>
      <point x="326" y="750" type="line"/>
      <point x="293" y="750" type="line"/>
    </contour>
  </outline>
</glyph>
<glyph name="one" format="1">
  <advance width="500"/>
  <unicode hex="0031"/>
  <outline>
    <contour>
      <point x="97" y="0" type="line"/>
      <point x="309" y="0" type="line"/>
      <point x="312" y="15" type="line"/>
      <point x="238" y="33" type="line"/>
      <point x="350" y="660" type="line"/>
      <point x="342" y="660" type="line"/>
      <point x="102" y="520" type="line"/>
      <point x="99" y="495" type="line"/>
      <point x="289" y="602" type="line"/>
      <point x="188" y="33" type="line"/>
      <point x="100" y="15" type="line"/>
    </contour>
  </outline>
</glyph>
<glyph name="two" format="2">
  <advance width="500"/>
  <unicode hex="0032"/>
  <outline>
    <contour>
      <point x="7" y="0" type="line"/>
      <point x="382" y="0" type="line"/>
      <point x="412" y="137" type="line"/>
      <point x="395" y="137" type="line"/>
      <point x="347" y="43" type="line"/>
      <point x="51" y="43" type="line"/>
      <point x="52" y="30" type="line"/>
      <point x="453" y="399"/>
      <point x="457" y="430"/>
      <point x="457" y="525" type="curve" smooth="yes"/>
      <point x="457" y="604"/>
      <point x="395" y="670"/>
      <point x="307" y="670" type="curve" smooth="yes"/>
      <point x="214" y="670"/>
      <point x="106" y="593"/>
      <point x="106" y="513" type="curve" smooth="yes"/>
      <point x="106" y="500"/>
      <point x="111" y="496"/>
      <point x="126" y="496" type="curve" smooth="yes"/>
      <point x="157" y="496" type="line"/>
      <point x="175" y="610" type="line"/>
      <point x="131" y="562" type="line"/>
      <point x="182" y="613"/>
      <point x="231" y="639"/>
      <point x="285" y="639" type="curve" smooth="yes"/>
      <point x="366" y="639"/>
      <point x="404" y="585"/>
      <point x="404" y="508" type="curve" smooth="yes"/>
      <point x="404" y="427"/>
      <point x="364" y="363"/>
      <point x="11" y="19" type="curve"/>
    </contour>
  </outline>
</glyph>
<glyph name="three" format="2">
  <advance width="500"/>
  <unicode hex="0033"/>
  <outline>
    <contour>
      <point x="135" y="576" type="line"/>
      <point x="174" y="619"/>
      <point x="219" y="641"/>
      <point x="270" y="641" type="curve" smooth="yes"/>
      <point x="347" y="641"/>
      <point x="386" y="595"/>
      <point x="386" y="528" type="curve" smooth="yes"/>
      <point x="386" y="437"/>
      <point x="308" y="354"/>
      <point x="183" y="354" type="curve" smooth="yes"/>
      <point x="155" y="354" type="line"/>
      <point x="149" y="328" type="line"/>
      <point x="205" y="328" type="line" smooth="yes"/>
      <point x="298" y="328"/>
      <point x="360" y="274"/>
      <point x="360" y="189" type="curve" smooth="yes"/>
      <point x="360" y="83"/>
      <point x="287" y="16"/>
      <point x="183" y="16" type="curve" smooth="yes"/>
      <point x="118" y="16"/>
      <point x="62" y="45"/>
      <point x="32" y="85" type="curve"/>
      <point x="64" y="41" type="line"/>
      <point x="74" y="132" type="line"/>
      <point x="45" y="132" type="line" smooth="yes"/>
      <point x="26" y="132"/>
      <point x="16" y="121"/>
      <point x="16" y="95" type="curve" smooth="yes"/>
      <point x="16" y="50"/>
      <point x="83" y="-10"/>
      <point x="181" y="-10" type="curve" smooth="yes"/>
      <point x="311" y="-10"/>
      <point x="414" y="77"/>
      <point x="414" y="187" type="curve" smooth="yes"/>
      <point x="414" y="288"/>
      <point x="333" y="355"/>
      <point x="212" y="344" type="curve"/>
      <point x="197" y="339" type="line"/>
      <point x="199" y="339"/>
      <point x="201" y="339"/>
      <point x="203" y="339" type="curve" smooth="yes"/>
      <point x="337" y="339"/>
      <point x="440" y="431"/>
      <point x="440" y="527" type="curve" smooth="yes"/>
      <point x="440" y="600"/>
      <point x="382" y="670"/>
      <point x="293" y="670" type="curve" smooth="yes"/>
      <point x="200" y="670"/>
      <point x="97" y="594"/>
      <point x="97" y="526" type="curve" smooth="yes"/>
      <point x="97" y="515"/>
      <point x="100" y="510"/>
      <point x="113" y="510" type="curve" smooth="yes"/>
      <point x="148" y="510" type="line"/>
      <point x="157" y="606" type="line"/>
    </contour>
  </outline>
</glyph>
<glyph name="four" format="1">
  <advance width="500"/>
  <unicode hex="0034"/>
  <outline>
    <contour>
      <point x="239" y="0" type="line"/>
      <point x="289" y="0" type="line"/>
      <point x="406" y="660" type="line"/>
      <point x="392" y="660" type="line"/>
      <point x="-3" y="216" type="line"/>
      <point x="-6" y="198" type="line"/>
      <point x="449" y="198" type="line"/>
      <point x="455" y="230" type="line"/>
      <point x="37" y="230" type="line"/>
      <point x="33" y="217" type="line"/>
      <point x="349" y="576" type="line"/>
      <point x="342" y="583" type="line"/>
    </contour>
  </outline>
</glyph>
<glyph name="five" format="2">
  <advance width="500"/>
  <unicode hex="0035"/>
  <outline>
    <contour>
      <point x="150" y="-10" type="curve" smooth="yes"/>
      <point x="313" y="-10"/>
      <point x="412" y="104"/>
      <point x="412" y="235" type="curve" smooth="yes"/>
      <point x="412" y="327"/>
      <point x="346.0516439719104" y="399.0"/>
      <point x="246" y="399" type="curve" smooth="yes"/>
      <point x="205" y="399"/>
      <point x="159" y="387"/>
      <point x="109" y="363" type="curve"/>
      <point x="121" y="357" type="line"/>
      <point x="183" y="626" type="line"/>
      <point x="162" y="620" type="line"/>
      <point x="443" y="620" type="line"/>
      <point x="450" y="660" type="line"/>
      <point x="164" y="660" type="line"/>
      <point x="93" y="340" type="line"/>
      <point x="131" y="352"/>
      <point x="161" y="358"/>
      <point x="202" y="358" type="curve" smooth="yes"/>
      <point x="320" y="358"/>
      <point x="369" y="303"/>
      <point x="369" y="212" type="curve" smooth="yes"/>
      <point x="369" y="95"/>
      <point x="269" y="9"/>
      <point x="148" y="9" type="curve" smooth="yes"/>
      <point x="124" y="9"/>
      <point x="100" y="12"/>
      <point x="75" y="20" type="curve"/>
      <point x="116" y="0" type="line"/>
      <point x="76" y="80" type="line"/>
      <point x="54" y="69" type="line" smooth="yes"/>
      <point x="36" y="60"/>
      <point x="34" y="55"/>
      <point x="34" y="46" type="curve" smooth="yes"/>
      <point x="34" y="19"/>
      <point x="74" y="-10"/>
    </contour>
  </outline>
</glyph>
<glyph name="six" format="1">
  <advance width="500"/>
  <unicode hex="0036"/>
  <outline>
    <contour>
      <point x="213" y="-10" type="curve" smooth="yes"/>
      <point x="329" y="-10"/>
      <point x="433" y="85"/>
      <point x="433" y="231" type="curve" smooth="yes"/>
      <point x="433" y="315"/>
      <point x="378" y="388"/>
      <point x="280" y="388" type="curve" smooth="yes"/>
      <point x="181" y="388"/>
      <point x="117" y="321"/>
      <point x="78" y="231" type="curve"/>
      <point x="88" y="211" type="line"/>
      <point x="116" y="295"/>
      <point x="193" y="353"/>
      <point x="266" y="353" type="curve" smooth="yes"/>
      <point x="342" y="353"/>
      <point x="381" y="299"/>
      <point x="381" y="217" type="curve" smooth="yes"/>
      <point x="381" y="94"/>
      <point x="313" y="12"/>
      <point x="212" y="12" type="curve" smooth="yes"/>
      <point x="150" y="12"/>
      <point x="90" y="63"/>
      <point x="90" y="181" type="curve" smooth="yes"/>
      <point x="90" y="365"/>
      <point x="199" y="560"/>
      <point x="464" y="647" type="curve"/>
      <point x="470" y="670" type="line"/>
      <point x="180" y="589"/>
      <point x="36" y="392"/>
      <point x="36" y="187" type="curve" smooth="yes"/>
      <point x="36" y="74"/>
      <point x="98" y="-10"/>
    </contour>
  </outline>
</glyph>
<glyph name="seven" format="1">
  <advance width="500"/>
  <unicode hex="0037"/>
  <outline>
    <contour>
      <point x="62" y="0" type="curve"/>
      <point x="133" y="0" type="line"/>
      <point x="249" y="319"/>
      <point x="371" y="469"/>
      <point x="499" y="644" type="curve"/>
      <point x="502" y="660" type="line"/>
      <point x="106" y="660" type="line"/>
      <point x="99" y="620" type="line"/>
      <point x="454" y="620" type="line"/>
      <point x="456" y="626" type="line"/>
      <point x="186" y="252"/>
      <point x="151" y="170"/>
    </contour>
  </outline>
</glyph>
<glyph name="eight" format="1">
  <advance width="500"/>
  <unicode hex="0038"/>
  <outline>
    <contour>
      <point x="202" y="-10" type="curve" smooth="yes"/>
      <point x="322" y="-10"/>
      <point x="416" y="78"/>
      <point x="416" y="171" type="curve" smooth="yes"/>
      <point x="416" y="239"/>
      <point x="388" y="289"/>
      <point x="269" y="366" type="curve" smooth="yes"/>
      <point x="181" y="423"/>
      <point x="162" y="467"/>
      <point x="162" y="518" type="curve" smooth="yes"/>
      <point x="162" y="588"/>
      <point x="204" y="642"/>
      <point x="296" y="642" type="curve" smooth="yes"/>
      <point x="369" y="642"/>
      <point x="409" y="599"/>
      <point x="409" y="530" type="curve" smooth="yes"/>
      <point x="409" y="441"/>
      <point x="356" y="408"/>
      <point x="262" y="358" type="curve"/>
      <point x="274" y="341" type="line"/>
      <point x="410" y="407"/>
      <point x="457" y="468"/>
      <point x="457" y="535" type="curve" smooth="yes"/>
      <point x="457" y="609"/>
      <point x="400" y="670"/>
      <point x="306" y="670" type="curve" smooth="yes"/>
      <point x="203" y="670"/>
      <point x="113" y="581"/>
      <point x="113" y="497" type="curve" smooth="yes"/>
      <point x="113" y="445"/>
      <point x="144" y="393"/>
      <point x="230" y="335" type="curve" smooth="yes"/>
      <point x="320" y="274"/>
      <point x="367" y="235"/>
      <point x="367" y="157" type="curve" smooth="yes"/>
      <point x="367" y="74"/>
      <point x="312" y="18"/>
      <point x="217" y="18" type="curve" smooth="yes"/>
      <point x="130" y="18"/>
      <point x="81" y="64"/>
      <point x="81" y="149" type="curve" smooth="yes"/>
      <point x="81" y="225"/>
      <point x="122" y="268"/>
      <point x="240" y="340" type="curve"/>
      <point x="223" y="353" type="line"/>
      <point x="96" y="288"/>
      <point x="28" y="221"/>
      <point x="28" y="134" type="curve" smooth="yes"/>
      <point x="28" y="46"/>
      <point x="107" y="-10"/>
    </contour>
  </outline>
</glyph>
<glyph name="nine" format="1">
  <advance width="500"/>
  <unicode hex="0039"/>
  <outline>
    <contour>
      <point x="36" y="-10" type="line"/>
      <point x="326" y="71"/>
      <point x="470" y="268"/>
      <point x="470" y="473" type="curve" smooth="yes"/>
      <point x="470" y="586"/>
      <point x="408" y="670"/>
      <point x="293" y="670" type="curve" smooth="yes"/>
      <point x="177" y="670"/>
      <point x="73" y="575"/>
      <point x="73" y="429" type="curve" smooth="yes"/>
      <point x="73" y="345"/>
      <point x="128" y="272"/>
      <point x="226" y="272" type="curve" smooth="yes"/>
      <point x="325" y="272"/>
      <point x="389" y="339"/>
      <point x="428" y="429" type="curve"/>
      <point x="418" y="449" type="line"/>
      <point x="390" y="365"/>
      <point x="313" y="307"/>
      <point x="240" y="307" type="curve" smooth="yes"/>
      <point x="164" y="307"/>
      <point x="125" y="361"/>
      <point x="125" y="443" type="curve" smooth="yes"/>
      <point x="125" y="566"/>
      <point x="193" y="648"/>
      <point x="294" y="648" type="curve" smooth="yes"/>
      <point x="356" y="648"/>
      <point x="416" y="597"/>
      <point x="416" y="479" type="curve" smooth="yes"/>
      <point x="416" y="295"/>
      <point x="307" y="100"/>
      <point x="42" y="13" type="curve"/>
    </contour>
  </outline>
</glyph>
<glyph name="less" format="1">
  <advance width="500"/>
  <unicode hex="003C"/>
  <outline>
    <contour>
      <point x="406" y="62" type="line"/>
      <point x="411" y="92" type="line"/>
      <point x="53" y="274" type="line"/>
      <point x="50" y="265" type="line"/>
      <point x="474" y="447" type="line"/>
      <point x="480" y="482" type="line"/>
      <point x="24" y="285" type="line"/>
      <point x="20" y="259" type="line"/>
    </contour>
  </outline>
</glyph>
<glyph name="equal" format="1">
  <advance width="500"/>
  <unicode hex="003D"/>
  <outline>
    <contour>
      <point x="423" y="156" type="line"/>
      <point x="428" y="184" type="line"/>
      <point x="27" y="184" type="line"/>
      <point x="22" y="156" type="line"/>
    </contour>
    <contour>
      <point x="459" y="360" type="line"/>
      <point x="464" y="388" type="line"/>
      <point x="63" y="388" type="line"/>
      <point x="58" y="360" type="line"/>
    </contour>
  </outline>
</glyph>
<glyph name="greater" format="1">
  <advance width="500"/>
  <unicode hex="003E"/>
  <outline>
    <contour>
      <point x="80" y="482" type="line"/>
      <point x="75" y="452" type="line"/>
      <point x="433" y="270" type="line"/>
      <point x="436" y="279" type="line"/>
      <point x="12" y="97" type="line"/>
      <point x="6" y="62" type="line"/>
      <point x="462" y="259" type="line"/>
      <point x="466" y="285" type="line"/>
    </contour>
  </outline>
</glyph>
<glyph name="question" format="2">
  <advance width="392"/>
  <unicode hex="003F"/>
  <outline>
    <contour>
      <point x="171" y="195" type="curve"/>
      <point x="182" y="205" type="line"/>
      <point x="156" y="234"/>
      <point x="142" y="256"/>
      <point x="142" y="290" type="curve" smooth="yes"/>
      <point x="142" y="334"/>
      <point x="164" y="359"/>
      <point x="252" y="390" type="curve" smooth="yes"/>
      <point x="340" y="421"/>
      <point x="362" y="456"/>
      <point x="362" y="504" type="curve" smooth="yes"/>
      <point x="362" y="586"/>
      <point x="254" y="670"/>
      <point x="151" y="670" type="curve" smooth="yes"/>
      <point x="112" y="670"/>
      <point x="95" y="660"/>
      <point x="95" y="638" type="curve" smooth="yes"/>
      <point x="95" y="634"/>
      <point x="96" y="628"/>
      <point x="98" y="620" type="curve" smooth="yes"/>
      <point x="102" y="604" type="line"/>
      <point x="252" y="635" type="line"/>
      <point x="197" y="642" type="line"/>
      <point x="288" y="617"/>
      <point x="324" y="573"/>
      <point x="324" y="520" type="curve" smooth="yes"/>
      <point x="324" y="477"/>
      <point x="302" y="448"/>
      <point x="213" y="419" type="curve" smooth="yes"/>
      <point x="124" y="390"/>
      <point x="102" y="356"/>
      <point x="102" y="306" type="curve" smooth="yes"/>
      <point x="102" y="275"/>
      <point x="118" y="243"/>
    </contour>
    <contour>
      <point x="119" y="-5" type="curve" smooth="yes"/>
      <point x="149" y="-5"/>
      <point x="169" y="24"/>
      <point x="169" y="48" type="curve" smooth="yes"/>
      <point x="169" y="71"/>
      <point x="156" y="88"/>
      <point x="130" y="88" type="curve" smooth="yes"/>
      <point x="100" y="88"/>
      <point x="80" y="59"/>
      <point x="80" y="36" type="curve" smooth="yes"/>
      <point x="80" y="12"/>
      <point x="92" y="-5"/>
    </contour>
  </outline>
</glyph>
<glyph name="at" format="2">
  <advance width="793"/>
  <unicode hex="0040"/>
  <outline>
    <contour>
      <point x="369" y="-118" type="curve" smooth="yes"/>
      <point x="466" y="-118"/>
      <point x="542" y="-94"/>
      <point x="609" y="-48" type="curve"/>
      <point x="602" y="-35" type="line"/>
      <point x="540" y="-76"/>
      <point x="476" y="-97"/>
      <point x="385" y="-97" type="curve" smooth="yes"/>
      <point x="212" y="-97"/>
      <point x="103" y="18"/>
      <point x="103" y="200" type="curve" smooth="yes"/>
      <point x="103" y="383"/>
      <point x="232" y="542"/>
      <point x="443" y="542" type="curve" smooth="yes"/>
      <point x="608" y="542"/>
      <point x="714" y="428"/>
      <point x="714" y="275" type="curve" smooth="yes"/>
      <point x="714" y="124"/>
      <point x="640" y="42"/>
      <point x="558" y="42" type="curve" smooth="yes"/>
      <point x="504" y="42"/>
      <point x="484" y="74"/>
      <point x="498" y="151" type="curve" smooth="yes"/>
      <point x="547" y="420" type="line"/>
      <point x="537" y="420" type="line"/>
      <point x="518" y="399" type="line"/>
      <point x="528" y="395" type="line"/>
      <point x="508" y="413"/>
      <point x="474" y="429"/>
      <point x="445" y="429" type="curve" smooth="yes"/>
      <point x="330" y="429"/>
      <point x="221" y="264"/>
      <point x="221" y="132" type="curve" smooth="yes"/>
      <point x="221" y="60"/>
      <point x="255" y="21"/>
      <point x="300" y="21" type="curve" smooth="yes"/>
      <point x="351" y="21"/>
      <point x="391" y="55"/>
      <point x="456" y="130" type="curve"/>
      <point x="460" y="150" type="line"/>
      <point x="415" y="99"/>
      <point x="367" y="53"/>
      <point x="318" y="53" type="curve" smooth="yes"/>
      <point x="284" y="53"/>
      <point x="263" y="82"/>
      <point x="263" y="139" type="curve" smooth="yes"/>
      <point x="263" y="269"/>
      <point x="329" y="406"/>
      <point x="426" y="406" type="curve" smooth="yes"/>
      <point x="463" y="406"/>
      <point x="482" y="393"/>
      <point x="500" y="377" type="curve"/>
      <point x="498" y="381" type="line"/>
      <point x="454" y="130" type="line" smooth="yes"/>
      <point x="442" y="62"/>
      <point x="484" y="21"/>
      <point x="551" y="21" type="curve" smooth="yes"/>
      <point x="652" y="21"/>
      <point x="733" y="119"/>
      <point x="733" y="276" type="curve" smooth="yes"/>
      <point x="733" y="437"/>
      <point x="616" y="562"/>
      <point x="443" y="562" type="curve" smooth="yes"/>
      <point x="226" y="562"/>
      <point x="60" y="391"/>
      <point x="60" y="177" type="curve" smooth="yes"/>
      <point x="60" y="5"/>
      <point x="186" y="-118"/>
    </contour>
  </outline>
</glyph>
<glyph name="A" format="2">
  <advance width="646"/>
  <unicode hex="0041"/>
  <anchor x="389.0" y="710.0" name="top"/>
  <anchor x="495.0" y="0.0" name="right"/>
  <anchor x="263.0" y="0.0" name="bottom"/>
  <outline>
    <contour>
      <point x="-15" y="0" type="line"/>
      <point x="152" y="0" type="line"/>
      <point x="155" y="15" type="line"/>
      <point x="64" y="30" type="line"/>
      <point x="68" y="20" type="line"/>
      <point x="366" y="588" type="line"/>
      <point x="360" y="588" type="line"/>
      <point x="463" y="20" type="line"/>
      <point x="470" y="32" type="line"/>
      <point x="379" y="15" type="line"/>
      <point x="375" y="0" type="line"/>
      <point x="563" y="0" type="line"/>
      <point x="566" y="15" type="line"/>
      <point x="509" y="33" type="line"/>
      <point x="520" y="18" type="line"/>
      <point x="398" y="665" type="line"/>
      <point x="379" y="665" type="line"/>
      <point x="27" y="19" type="line"/>
      <point x="43" y="32" type="line"/>
      <point x="-11" y="15" type="line"/>
    </contour>
    <contour>
      <point x="175" y="255" type="line"/>
      <point x="434" y="255" type="line"/>
      <point x="440" y="285" type="line"/>
      <point x="181" y="285" type="line"/>
    </contour>
  </outline>
</glyph>
<glyph name="B" format="1">
  <advance width="536"/>
  <unicode hex="0042"/>
  <outline>
    <contour>
      <point x="10" y="0" type="line"/>
      <point x="135" y="0" type="line"/>
      <point x="251" y="660" type="line"/>
      <point x="126" y="660" type="line"/>
      <point x="123" y="646" type="line"/>
      <point x="192" y="629" type="line"/>
      <point x="86" y="32" type="line"/>
      <point x="13" y="15" type="line"/>
    </contour>
    <contour>
      <point x="225" y="0" type="line" smooth="yes"/>
      <point x="360" y="0"/>
      <point x="472" y="81"/>
      <point x="472" y="192" type="curve" smooth="yes"/>
      <point x="472" y="293"/>
      <point x="398" y="354"/>
      <point x="249" y="354" type="curve"/>
      <point x="252" y="336" type="line"/>
      <point x="390" y="336"/>
      <point x="476" y="429"/>
      <point x="476" y="518" type="curve" smooth="yes"/>
      <point x="476" y="614"/>
      <point x="404" y="660"/>
      <point x="289" y="660" type="curve" smooth="yes"/>
      <point x="203" y="660" type="line"/>
      <point x="197" y="629" type="line"/>
      <point x="290" y="629" type="line" smooth="yes"/>
      <point x="377" y="629"/>
      <point x="422" y="590"/>
      <point x="422" y="512" type="curve" smooth="yes"/>
      <point x="422" y="428"/>
      <point x="359" y="356"/>
      <point x="249" y="356" type="curve" smooth="yes"/>
      <point x="158" y="356" type="line"/>
      <point x="152" y="326" type="line"/>
      <point x="259" y="326" type="line" smooth="yes"/>
      <point x="357" y="326"/>
      <point x="418" y="286"/>
      <point x="418" y="191" type="curve" smooth="yes"/>
      <point x="418" y="100"/>
      <point x="355" y="29"/>
      <point x="229" y="29" type="curve" smooth="yes"/>
      <point x="119" y="29" type="line"/>
      <point x="113" y="0" type="line"/>
    </contour>
  </outline>
</glyph>
<glyph name="C" format="1">
  <advance width="663"/>
  <unicode hex="0043"/>
  <outline>
    <contour>
      <point x="324" y="-10" type="curve" smooth="yes"/>
      <point x="415" y="-10"/>
      <point x="465" y="9"/>
      <point x="517" y="39" type="curve"/>
      <point x="548" y="182" type="line"/>
      <point x="533" y="182" type="line"/>
      <point x="464" y="44" type="line"/>
      <point x="429" y="24"/>
      <point x="391" y="14"/>
      <point x="341" y="14" type="curve" smooth="yes"/>
      <point x="220" y="14"/>
      <point x="116" y="124"/>
      <point x="116" y="269" type="curve" smooth="yes"/>
      <point x="116" y="470"/>
      <point x="219" y="639"/>
      <point x="409" y="639" type="curve" smooth="yes"/>
      <point x="466" y="639"/>
      <point x="510" y="626"/>
      <point x="549" y="595" type="curve"/>
      <point x="567" y="475" type="line"/>
      <point x="582" y="475" type="line"/>
      <point x="603" y="621" type="line"/>
      <point x="559" y="648"/>
      <point x="518" y="670"/>
      <point x="430" y="670" type="curve" smooth="yes"/>
      <point x="214" y="670"/>
      <point x="60" y="469"/>
      <point x="60" y="260" type="curve" smooth="yes"/>
      <point x="60" y="95"/>
      <point x="171" y="-10"/>
    </contour>
    <contour>
      <point x="427" y="710" type="move" name="top"/>
    </contour>
    <contour>
      <point x="331" y="0" type="move" name="bottom"/>
    </contour>
  </outline>
</glyph>
<glyph name="D" format="1">
  <advance width="679"/>
  <unicode hex="0044"/>
  <outline>
    <contour>
      <point x="10" y="0" type="line"/>
      <point x="135" y="0" type="line"/>
      <point x="251" y="660" type="line"/>
      <point x="126" y="660" type="line"/>
      <point x="122" y="645" type="line"/>
      <point x="191" y="628" type="line"/>
      <point x="85" y="32" type="line"/>
      <point x="14" y="15" type="line"/>
    </contour>
    <contour>
      <point x="241" y="0" type="line" smooth="yes"/>
      <point x="511" y="0"/>
      <point x="624" y="230"/>
      <point x="624" y="392" type="curve" smooth="yes"/>
      <point x="624" y="538"/>
      <point x="532" y="660"/>
      <point x="306" y="660" type="curve" smooth="yes"/>
      <point x="230" y="660" type="line"/>
      <point x="224" y="630" type="line"/>
      <point x="295" y="630" type="line" smooth="yes"/>
      <point x="476" y="630"/>
      <point x="569" y="537"/>
      <point x="569" y="390" type="curve" smooth="yes"/>
      <point x="569" y="173"/>
      <point x="459" y="30"/>
      <point x="253" y="30" type="curve" smooth="yes"/>
      <point x="118" y="30" type="line"/>
      <point x="112" y="0" type="line"/>
    </contour>
    <contour>
      <point x="383" y="710" type="move" name="top"/>
    </contour>
    <contour>
      <point x="293" y="0" type="move" name="bottom"/>
    </contour>
  </outline>
</glyph>
<glyph name="F" format="1">
  <advance width="551"/>
  <unicode hex="0046"/>
  <outline>
    <contour>
      <point x="10" y="0" type="line"/>
      <point x="217" y="0" type="line"/>
      <point x="221" y="15" type="line"/>
      <point x="141" y="32" type="line"/>
      <point x="251" y="660" type="line"/>
      <point x="126" y="660" type="line"/>
      <point x="122" y="645" type="line"/>
      <point x="191" y="628" type="line"/>
      <point x="85" y="32" type="line"/>
      <point x="14" y="15" type="line"/>
    </contour>
    <contour>
      <point x="486" y="498" type="line"/>
      <point x="501" y="498" type="line"/>
      <point x="529" y="660" type="line"/>
      <point x="222" y="660" type="line"/>
      <point x="216" y="630" type="line"/>
      <point x="473" y="630" type="line"/>
    </contour>
    <contour>
      <point x="364" y="245" type="line"/>
      <point x="382" y="245" type="line"/>
      <point x="416" y="439" type="line"/>
      <point x="398" y="439" type="line"/>
      <point x="361" y="356" type="line"/>
      <point x="169" y="356" type="line"/>
      <point x="164" y="326" type="line"/>
      <point x="356" y="326" type="line"/>
    </contour>
  </outline>
</glyph>
<glyph name="G" format="1">
  <advance width="692"/>
  <unicode hex="0047"/>
  <outline>
    <contour>
      <point x="308" y="-10" type="curve" smooth="yes"/>
      <point x="376" y="-10"/>
      <point x="459" y="19"/>
      <point x="515" y="64" type="curve"/>
      <point x="550" y="258" type="line"/>
      <point x="623" y="275" type="line"/>
      <point x="626" y="290" type="line"/>
      <point x="424" y="290" type="line"/>
      <point x="421" y="275" type="line"/>
      <point x="504" y="255" type="line"/>
      <point x="466" y="41" type="line"/>
      <point x="488" y="64" type="line"/>
      <point x="433" y="35"/>
      <point x="386" y="23"/>
      <point x="340" y="23" type="curve" smooth="yes"/>
      <point x="196" y="23"/>
      <point x="114" y="125"/>
      <point x="114" y="288" type="curve" smooth="yes"/>
      <point x="114" y="478"/>
      <point x="219" y="639"/>
      <point x="410" y="639" type="curve" smooth="yes"/>
      <point x="473" y="639"/>
      <point x="516" y="626"/>
      <point x="553" y="593" type="curve"/>
      <point x="573" y="475" type="line"/>
      <point x="588" y="475" type="line"/>
      <point x="610" y="621" type="line"/>
      <point x="564" y="649"/>
      <point x="515" y="670"/>
      <point x="421" y="670" type="curve" smooth="yes"/>
      <point x="201" y="670"/>
      <point x="60" y="450"/>
      <point x="60" y="260" type="curve" smooth="yes"/>
      <point x="60" y="106"/>
      <point x="157" y="-10"/>
    </contour>
    <contour>
      <point x="425.0" y="710.0" type="move" name="top"/>
    </contour>
    <contour>
      <point x="313" y="0" type="move" name="bottom"/>
    </contour>
  </outline>
</glyph>
<glyph name="H" format="1">
  <advance width="726.0"/>
  <unicode hex="0048"/>
  <outline>
    <contour>
      <point x="10" y="0" type="line"/>
      <point x="216" y="0" type="line"/>
      <point x="218" y="15" type="line"/>
      <point x="139" y="31" type="line"/>
      <point x="245" y="627" type="line"/>
      <point x="320" y="645" type="line"/>
      <point x="324" y="660" type="line"/>
      <point x="118" y="660" type="line"/>
      <point x="114" y="645" type="line"/>
      <point x="191" y="629" type="line"/>
      <point x="85" y="33" type="line"/>
      <point x="12" y="15" type="line"/>
    </contour>
    <contour>
      <point x="170" y="328" type="line"/>
      <point x="557" y="328" type="line"/>
      <point x="563" y="358" type="line"/>
      <point x="176" y="358" type="line"/>
    </contour>
    <contour>
      <point x="402" y="0" type="line"/>
      <point x="608" y="0" type="line"/>
      <point x="610" y="15" type="line"/>
      <point x="533" y="31" type="line"/>
      <point x="639" y="627" type="line"/>
      <point x="712" y="645" type="line"/>
      <point x="716" y="660" type="line"/>
      <point x="510" y="660" type="line"/>
      <point x="506" y="645" type="line"/>
      <point x="585" y="629" type="line"/>
      <point x="479" y="33" type="line"/>
      <point x="404" y="15" type="line"/>
    </contour>
    <contour>
      <point x="425" y="710" type="move" name="top"/>
    </contour>
    <contour>
      <point x="309" y="0" type="move" name="bottom"/>
    </contour>
  </outline>
</glyph>
<glyph name="I" format="1">
  <advance width="331"/>
  <unicode hex="0049"/>
  <outline>
    <contour>
      <point x="9" y="0" type="line"/>
      <point x="204" y="0" type="line"/>
      <point x="207" y="15" type="line"/>
      <point x="140" y="33" type="line"/>
      <point x="246" y="629" type="line"/>
      <point x="318" y="646" type="line"/>
      <point x="321" y="660" type="line"/>
      <point x="126" y="660" type="line"/>
      <point x="123" y="646" type="line"/>
      <point x="191" y="629" type="line"/>
      <point x="85" y="33" type="line"/>
      <point x="12" y="15" type="line"/>
    </contour>
    <contour>
      <point x="233" y="710" type="move" name="top"/>
    </contour>
    <contour>
      <point x="127" y="0" type="move" name="right"/>
    </contour>
    <contour>
      <point x="107" y="0" type="move" name="bottom"/>
    </contour>
  </outline>
</glyph>
<glyph name="J" format="2">
  <advance width="335"/>
  <unicode hex="004A"/>
  <anchor x="243" y="710" name="top"/>
  <outline>
    <contour>
      <point x="-22" y="-173" type="curve" smooth="yes"/>
      <point x="0" y="-173"/>
      <point x="11" y="-164"/>
      <point x="63" y="-112" type="curve" smooth="yes"/>
      <point x="115" y="-60"/>
      <point x="146" y="20"/>
      <point x="180" y="210" type="curve" smooth="yes"/>
      <point x="255" y="629" type="line"/>
      <point x="327" y="646" type="line"/>
      <point x="330" y="660" type="line"/>
      <point x="135" y="660" type="line"/>
      <point x="132" y="646" type="line"/>
      <point x="200" y="629" type="line"/>
      <point x="98" y="51" type="line" smooth="yes"/>
      <point x="78" y="-64"/>
      <point x="49" y="-114"/>
      <point x="-5" y="-141" type="curve"/>
      <point x="43" y="-125" type="line"/>
      <point x="-40" y="-104" type="line"/>
      <point x="-51" y="-141" type="line" smooth="yes"/>
      <point x="-52" y="-143"/>
      <point x="-53" y="-147"/>
      <point x="-53" y="-150" type="curve" smooth="yes"/>
      <point x="-53" y="-164"/>
      <point x="-40" y="-173"/>
    </contour>
  </outline>
</glyph>
<glyph name="K" format="1">
  <advance width="637"/>
  <unicode hex="004B"/>
  <outline>
    <contour>
      <point x="9" y="0" type="line"/>
      <point x="214" y="0" type="line"/>
      <point x="217" y="15" type="line"/>
      <point x="140" y="33" type="line"/>
      <point x="246" y="629" type="line"/>
      <point x="318" y="646" type="line"/>
      <point x="321" y="660" type="line"/>
      <point x="126" y="660" type="line"/>
      <point x="123" y="646" type="line"/>
      <point x="191" y="629" type="line"/>
      <point x="85" y="33" type="line"/>
      <point x="12" y="15" type="line"/>
    </contour>
    <contour>
      <point x="467" y="0" type="line"/>
      <point x="570" y="0" type="line"/>
      <point x="573" y="15" type="line"/>
      <point x="520" y="26" type="line"/>
      <point x="231" y="368" type="line"/>
      <point x="225" y="337" type="line"/>
      <point x="575" y="644" type="line"/>
      <point x="508" y="621" type="line"/>
      <point x="618" y="646" type="line"/>
      <point x="621" y="660" type="line"/>
      <point x="430" y="660" type="line"/>
      <point x="427" y="646" type="line"/>
      <point x="514" y="621" type="line"/>
      <point x="510" y="632" type="line"/>
      <point x="189" y="338" type="line"/>
    </contour>
    <contour>
      <point x="385.0" y="710.0" type="move" name="top"/>
    </contour>
    <contour>
      <point x="293" y="0" type="move" name="bottom"/>
    </contour>
  </outline>
</glyph>
<glyph name="M" format="1">
  <advance width="867"/>
  <unicode hex="004D"/>
  <outline>
    <contour>
      <point x="10" y="0" type="line"/>
      <point x="194" y="0" type="line"/>
      <point x="197" y="15" type="line"/>
      <point x="127" y="31" type="line"/>
      <point x="244" y="638" type="line"/>
      <point x="214" y="642" type="line"/>
      <point x="87" y="32" type="line"/>
      <point x="14" y="15" type="line"/>
    </contour>
    <contour>
      <point x="366" y="-5" type="line"/>
      <point x="385" y="-5" type="line"/>
      <point x="736" y="622" type="line"/>
      <point x="760" y="622" type="line"/>
      <point x="854" y="646" type="line"/>
      <point x="857" y="660" type="line"/>
      <point x="720" y="660" type="line"/>
      <point x="387" y="61" type="line"/>
      <point x="409" y="71" type="line"/>
      <point x="278" y="660" type="line"/>
      <point x="139" y="660" type="line"/>
      <point x="136" y="647" type="line"/>
      <point x="222" y="623" type="line"/>
      <point x="229" y="632" type="line"/>
    </contour>
    <contour>
      <point x="571" y="0" type="line"/>
      <point x="757" y="0" type="line"/>
      <point x="760" y="15" type="line"/>
      <point x="700" y="32" type="line"/>
      <point x="777" y="643" type="line"/>
      <point x="727" y="643" type="line"/>
      <point x="644" y="31" type="line"/>
      <point x="575" y="15" type="line"/>
    </contour>
    <contour>
      <point x="377" y="0" type="move" name="bottom"/>
    </contour>
  </outline>
</glyph>
<glyph name="N" format="1">
  <advance width="718"/>
  <unicode hex="004E"/>
  <outline>
    <contour>
      <point x="9" y="0" type="line"/>
      <point x="197" y="0" type="line"/>
      <point x="200" y="15" type="line"/>
      <point x="122" y="35" type="line"/>
      <point x="222" y="601" type="line"/>
      <point x="209" y="601" type="line"/>
      <point x="507" y="-5" type="line"/>
      <point x="527" y="-5" type="line"/>
      <point x="639" y="628" type="line"/>
      <point x="705" y="646" type="line"/>
      <point x="708" y="660" type="line"/>
      <point x="522" y="660" type="line"/>
      <point x="519" y="646" type="line"/>
      <point x="605" y="628" type="line"/>
      <point x="504" y="55" type="line"/>
      <point x="535" y="61" type="line"/>
      <point x="243" y="660" type="line"/>
      <point x="114" y="660" type="line"/>
      <point x="111" y="646" type="line"/>
      <point x="191" y="629" type="line"/>
      <point x="85" y="32" type="line"/>
      <point x="12" y="15" type="line"/>
    </contour>
    <contour>
      <point x="434" y="710" type="move" name="top"/>
    </contour>
    <contour>
      <point x="321" y="0" type="move" name="bottom"/>
    </contour>
  </outline>
</glyph>
<glyph name="O" format="1">
  <advance width="698.0"/>
  <unicode hex="004F"/>
  <outline>
    <contour>
      <point x="289" y="-10" type="curve" smooth="yes"/>
      <point x="496" y="-10"/>
      <point x="638" y="194"/>
      <point x="638" y="409" type="curve" smooth="yes"/>
      <point x="638" y="564"/>
      <point x="549" y="670"/>
      <point x="409" y="670" type="curve" smooth="yes"/>
      <point x="216" y="670"/>
      <point x="60" y="482"/>
      <point x="60" y="251" type="curve" smooth="yes"/>
      <point x="60" y="97"/>
      <point x="150" y="-10"/>
    </contour>
    <contour>
      <point x="312" y="12" type="curve" smooth="yes"/>
      <point x="197" y="12"/>
      <point x="115" y="116"/>
      <point x="115" y="269" type="curve" smooth="yes"/>
      <point x="115" y="483"/>
      <point x="232" y="648"/>
      <point x="387" y="648" type="curve" smooth="yes"/>
      <point x="500" y="648"/>
      <point x="583" y="546"/>
      <point x="583" y="393" type="curve" smooth="yes"/>
      <point x="583" y="172"/>
      <point x="459" y="12"/>
    </contour>
    <contour>
      <point x="408" y="710" type="move" name="top"/>
    </contour>
    <contour>
      <point x="306" y="0" type="move" name="right"/>
    </contour>
    <contour>
      <point x="291" y="0" type="move" name="bottom"/>
    </contour>
  </outline>
</glyph>
<glyph name="P" format="1">
  <advance width="539"/>
  <unicode hex="0050"/>
  <outline>
    <contour>
      <point x="9" y="0" type="line"/>
      <point x="225" y="0" type="line"/>
      <point x="228" y="15" type="line"/>
      <point x="140" y="32" type="line"/>
      <point x="246" y="631" type="line"/>
      <point x="296" y="631" type="line" smooth="yes"/>
      <point x="388" y="631"/>
      <point x="454" y="585"/>
      <point x="454" y="498" type="curve" smooth="yes"/>
      <point x="454" y="394"/>
      <point x="392" y="323"/>
      <point x="261" y="323" type="curve" smooth="yes"/>
      <point x="169" y="323" type="line"/>
      <point x="163" y="294" type="line"/>
      <point x="270" y="294" type="line" smooth="yes"/>
      <point x="416" y="294"/>
      <point x="509" y="389"/>
      <point x="509" y="502" type="curve" smooth="yes"/>
      <point x="509" y="608"/>
      <point x="425" y="660"/>
      <point x="294" y="660" type="curve" smooth="yes"/>
      <point x="126" y="660" type="line"/>
      <point x="123" y="646" type="line"/>
      <point x="191" y="629" type="line"/>
      <point x="85" y="32" type="line"/>
      <point x="12" y="15" type="line"/>
    </contour>
  </outline>
</glyph>
<glyph name="Q" format="1">
  <advance width="714"/>
  <unicode hex="0051"/>
  <outline>
    <contour>
      <point x="289" y="-10" type="curve" smooth="yes"/>
      <point x="496" y="-10"/>
      <point x="638" y="194"/>
      <point x="638" y="409" type="curve" smooth="yes"/>
      <point x="638" y="564"/>
      <point x="549" y="670"/>
      <point x="409" y="670" type="curve" smooth="yes"/>
      <point x="216" y="670"/>
      <point x="60" y="482"/>
      <point x="60" y="251" type="curve" smooth="yes"/>
      <point x="60" y="97"/>
      <point x="150" y="-10"/>
    </contour>
    <contour>
      <point x="312" y="12" type="curve" smooth="yes"/>
      <point x="197" y="12"/>
      <point x="115" y="116"/>
      <point x="115" y="269" type="curve" smooth="yes"/>
      <point x="115" y="483"/>
      <point x="232" y="648"/>
      <point x="387" y="648" type="curve" smooth="yes"/>
      <point x="500" y="648"/>
      <point x="583" y="546"/>
      <point x="583" y="393" type="curve" smooth="yes"/>
      <point x="583" y="172"/>
      <point x="459" y="12"/>
    </contour>
    <contour>
      <point x="561" y="-147" type="curve" smooth="yes"/>
      <point x="611" y="-147"/>
      <point x="659" y="-137"/>
      <point x="690" y="-122" type="curve"/>
      <point x="694" y="-101" type="line"/>
      <point x="675" y="-108"/>
      <point x="642" y="-115"/>
      <point x="606" y="-115" type="curve" smooth="yes"/>
      <point x="546" y="-115"/>
      <point x="455" y="-99"/>
      <point x="321" y="11" type="curve"/>
      <point x="259" y="6" type="line"/>
      <point x="387" y="-124"/>
      <point x="495" y="-147"/>
    </contour>
  </outline>
</glyph>
<glyph name="R" format="1">
  <advance width="559"/>
  <unicode hex="0052"/>
  <outline>
    <contour>
      <point x="9" y="0" type="line"/>
      <point x="203" y="0" type="line"/>
      <point x="206" y="15" type="line"/>
      <point x="140" y="32" type="line"/>
      <point x="251" y="660" type="line"/>
      <point x="125" y="660" type="line"/>
      <point x="122" y="646" type="line"/>
      <point x="191" y="629" type="line"/>
      <point x="85" y="32" type="line"/>
      <point x="12" y="15" type="line"/>
    </contour>
    <contour>
      <point x="476.0" y="521.0" type="curve" smooth="yes"/>
      <point x="476.0" y="608.0"/>
      <point x="411.0" y="660.0"/>
      <point x="295.0" y="660.0" type="curve" smooth="yes"/>
      <point x="230.0" y="660.0" type="line"/>
      <point x="224.0" y="630.0" type="line"/>
      <point x="296.0" y="630.0" type="line" smooth="yes"/>
      <point x="382.0" y="630.0"/>
      <point x="420.0" y="583.0"/>
      <point x="420.0" y="509.0" type="curve" smooth="yes"/>
      <point x="420.0" y="431.0"/>
      <point x="367.0" y="348.0"/>
      <point x="258.0" y="348.0" type="curve"/>
      <point x="180.0" y="348.0" type="line"/>
      <point x="175.0" y="318.0" type="line"/>
      <point x="281.0" y="318.0" type="line"/>
      <point x="281" y="321" type="line"/>
      <point x="423" y="342"/>
      <point x="476.0" y="428.0"/>
    </contour>
    <contour>
      <point x="418" y="0" type="line"/>
      <point x="516" y="0" type="line"/>
      <point x="519" y="15" type="line"/>
      <point x="467" y="28" type="line"/>
      <point x="318" y="341" type="line"/>
      <point x="261" y="341" type="line"/>
    </contour>
    <contour>
      <point x="317.0" y="710.0" type="move" name="top"/>
    </contour>
    <contour>
      <point x="256.0" y="0.0" type="move" name="bottom"/>
    </contour>
  </outline>
</glyph>
<glyph name="S" format="1">
  <advance width="496.0"/>
  <unicode hex="0053"/>
  <outline>
    <contour>
      <point x="192" y="-10" type="curve" smooth="yes"/>
      <point x="322" y="-10"/>
      <point x="408" y="93"/>
      <point x="408" y="182" type="curve" smooth="yes"/>
      <point x="408" y="268"/>
      <point x="362" y="307"/>
      <point x="276" y="360" type="curve" smooth="yes"/>
      <point x="181" y="419"/>
      <point x="158" y="458"/>
      <point x="158" y="515" type="curve" smooth="yes"/>
      <point x="158" y="594"/>
      <point x="213" y="641"/>
      <point x="297" y="641" type="curve" smooth="yes"/>
      <point x="343" y="641"/>
      <point x="379" y="620"/>
      <point x="396" y="598" type="curve"/>
      <point x="412" y="488" type="line"/>
      <point x="428" y="488" type="line"/>
      <point x="446" y="628" type="line"/>
      <point x="404" y="654"/>
      <point x="356" y="670"/>
      <point x="303" y="670" type="curve" smooth="yes"/>
      <point x="198" y="670"/>
      <point x="112" y="576"/>
      <point x="112" y="486" type="curve" smooth="yes"/>
      <point x="112" y="421"/>
      <point x="143" y="383"/>
      <point x="224" y="330" type="curve" smooth="yes"/>
      <point x="306" y="276"/>
      <point x="360" y="247"/>
      <point x="360" y="170" type="curve" smooth="yes"/>
      <point x="360" y="81"/>
      <point x="303" y="19"/>
      <point x="209" y="19" type="curve" smooth="yes"/>
      <point x="162" y="19"/>
      <point x="110" y="35"/>
      <point x="86" y="61" type="curve"/>
      <point x="65" y="180" type="line"/>
      <point x="49" y="180" type="line"/>
      <point x="30" y="36" type="line"/>
      <point x="78" y="6"/>
      <point x="121" y="-10"/>
    </contour>
    <contour>
      <point x="332" y="707" type="move" name="top"/>
    </contour>
    <contour>
      <point x="209" y="0" type="move" name="bottom"/>
    </contour>
  </outline>
</glyph>
<glyph name="T" format="1">
  <advance width="641"/>
  <unicode hex="0054"/>
  <outline>
    <contour>
      <point x="141" y="0" type="line"/>
      <point x="394" y="0" type="line"/>
      <point x="397" y="15" type="line"/>
      <point x="300" y="35" type="line"/>
      <point x="406" y="630" type="line"/>
      <point x="605" y="630" type="line"/>
      <point x="615" y="483" type="line"/>
      <point x="630" y="483" type="line"/>
      <point x="661" y="660" type="line"/>
      <point x="106" y="660" type="line"/>
      <point x="75" y="483" type="line"/>
      <point x="90" y="483" type="line"/>
      <point x="154" y="630" type="line"/>
      <point x="352" y="630" type="line"/>
      <point x="246" y="35" type="line"/>
      <point x="144" y="15" type="line"/>
    </contour>
    <contour>
      <point x="393" y="710" type="move" name="top"/>
    </contour>
    <contour>
      <point x="268" y="0" type="move" name="bottom"/>
    </contour>
  </outline>
</glyph>
<glyph name="U" format="1">
  <advance width="731"/>
  <unicode hex="0055"/>
  <outline>
    <contour>
      <point x="327" y="-10" type="curve" smooth="yes"/>
      <point x="455" y="-10"/>
      <point x="558" y="61"/>
      <point x="593" y="256" type="curve" smooth="yes"/>
      <point x="659" y="628" type="line"/>
      <point x="732" y="646" type="line"/>
      <point x="735" y="660" type="line"/>
      <point x="543" y="660" type="line"/>
      <point x="540" y="646" type="line"/>
      <point x="625" y="628" type="line"/>
      <point x="556" y="236" type="line" smooth="yes"/>
      <point x="529" y="86"/>
      <point x="430" y="27"/>
      <point x="352" y="27" type="curve" smooth="yes"/>
      <point x="254" y="27"/>
      <point x="183" y="71"/>
      <point x="183" y="195" type="curve" smooth="yes"/>
      <point x="183" y="218"/>
      <point x="185" y="243"/>
      <point x="190" y="271" type="curve" smooth="yes"/>
      <point x="253" y="630" type="line"/>
      <point x="332" y="646" type="line"/>
      <point x="336" y="660" type="line"/>
      <point x="128" y="660" type="line"/>
      <point x="125" y="646" type="line"/>
      <point x="197" y="630" type="line"/>
      <point x="132" y="256" type="line" smooth="yes"/>
      <point x="128" y="230"/>
      <point x="125" y="207"/>
      <point x="125" y="185" type="curve" smooth="yes"/>
      <point x="125" y="49"/>
      <point x="208" y="-10"/>
    </contour>
    <contour>
      <point x="450" y="710" type="move" name="top"/>
    </contour>
    <contour>
      <point x="350" y="0" type="move" name="right"/>
    </contour>
    <contour>
      <point x="330" y="0" type="move" name="bottom"/>
    </contour>
  </outline>
</glyph>
<glyph name="V" format="1">
  <advance width="641"/>
  <unicode hex="0056"/>
  <outline>
    <contour>
      <point x="258" y="-5" type="line"/>
      <point x="277" y="-5" type="line"/>
      <point x="609" y="641" type="line"/>
      <point x="590" y="628" type="line"/>
      <point x="658" y="646" type="line"/>
      <point x="661" y="660" type="line"/>
      <point x="495" y="660" type="line"/>
      <point x="492" y="646" type="line"/>
      <point x="581" y="628" type="line"/>
      <point x="571" y="647" type="line"/>
      <point x="290" y="72" type="line"/>
      <point x="312" y="89" type="line"/>
      <point x="278" y="89" type="line"/>
      <point x="296" y="72" type="line"/>
      <point x="204" y="637" type="line"/>
      <point x="197" y="630" type="line"/>
      <point x="278" y="646" type="line"/>
      <point x="281" y="660" type="line"/>
      <point x="93" y="660" type="line"/>
      <point x="90" y="646" type="line"/>
      <point x="179" y="622" type="line"/>
      <point x="147" y="638" type="line"/>
    </contour>
  </outline>
</glyph>
<glyph name="W" format="1">
  <advance width="944"/>
  <unicode hex="0057"/>
  <outline>
    <contour>
      <point x="220" y="-5" type="line"/>
      <point x="239" y="-5" type="line"/>
      <point x="530" y="590" type="line"/>
      <point x="501" y="552" type="line"/>
      <point x="526" y="552" type="line"/>
      <point x="510" y="590" type="line"/>
      <point x="599" y="-5" type="line"/>
      <point x="618" y="-5" type="line"/>
      <point x="912" y="641" type="line"/>
      <point x="893" y="628" type="line"/>
      <point x="961" y="646" type="line"/>
      <point x="964" y="660" type="line"/>
      <point x="798" y="660" type="line"/>
      <point x="795" y="646" type="line"/>
      <point x="884" y="629" type="line"/>
      <point x="874" y="647" type="line"/>
      <point x="626" y="60" type="line"/>
      <point x="645" y="90" type="line"/>
      <point x="628" y="90" type="line"/>
      <point x="639" y="60" type="line"/>
      <point x="551" y="665" type="line"/>
      <point x="530" y="665" type="line"/>
      <point x="244" y="55" type="line"/>
      <point x="269" y="90" type="line"/>
      <point x="248" y="90" type="line"/>
      <point x="260" y="55" type="line"/>
      <point x="204" y="637" type="line"/>
      <point x="197" y="629" type="line"/>
      <point x="278" y="646" type="line"/>
      <point x="281" y="660" type="line"/>
      <point x="93" y="660" type="line"/>
      <point x="90" y="646" type="line"/>
      <point x="179" y="623" type="line"/>
      <point x="147" y="638" type="line"/>
    </contour>
    <contour>
      <point x="548.0" y="710.0" type="move" name="top"/>
    </contour>
  </outline>
</glyph>
<glyph name="Z" format="1">
  <advance width="614"/>
  <unicode hex="005A"/>
  <outline>
    <contour>
      <point x="35" y="0" type="line"/>
      <point x="477" y="0" type="line"/>
      <point x="509" y="178" type="line"/>
      <point x="494" y="178" type="line"/>
      <point x="433" y="35" type="line"/>
      <point x="92" y="35" type="line"/>
      <point x="92" y="8" type="line"/>
      <point x="576" y="640" type="line"/>
      <point x="579" y="660" type="line"/>
      <point x="162" y="660" type="line"/>
      <point x="133" y="493" type="line"/>
      <point x="148" y="493" type="line"/>
      <point x="210" y="630" type="line"/>
      <point x="524" y="630" type="line"/>
      <point x="524" y="652" type="line"/>
      <point x="38" y="20" type="line"/>
    </contour>
    <contour>
      <point x="377.0" y="710.0" type="move" name="top"/>
    </contour>
    <contour>
      <point x="262.0" y="0.0" type="move" name="bottom"/>
    </contour>
  </outline>
</glyph>
<glyph name="bracketleft" format="1">
  <advance width="250"/>
  <unicode hex="005B"/>
  <outline>
    <contour>
      <point x="19" y="-150" type="line"/>
      <point x="52" y="-150" type="line"/>
      <point x="200" y="740" type="line"/>
      <point x="168" y="740" type="line"/>
    </contour>
    <contour>
      <point x="169" y="740" type="line"/>
      <point x="166" y="727" type="line"/>
      <point x="308" y="727" type="line"/>
      <point x="311" y="740" type="line"/>
    </contour>
    <contour>
      <point x="20" y="-150" type="line"/>
      <point x="162" y="-150" type="line"/>
      <point x="165" y="-137" type="line"/>
      <point x="23" y="-137" type="line"/>
    </contour>
  </outline>
</glyph>
<glyph name="backslash" format="1">
  <advance width="312"/>
  <unicode hex="005C"/>
  <outline>
    <contour>
      <point x="220" y="-120" type="line"/>
      <point x="252" y="-120" type="line"/>
      <point x="92" y="750" type="line"/>
      <point x="60" y="750" type="line"/>
    </contour>
  </outline>
</glyph>
<glyph name="bracketright" format="1">
  <advance width="250"/>
  <unicode hex="005D"/>
  <outline>
    <contour>
      <point x="46" y="-150" type="line"/>
      <point x="78" y="-150" type="line"/>
      <point x="227" y="740" type="line"/>
      <point x="194" y="740" type="line"/>
    </contour>
    <contour>
      <point x="-65" y="-150" type="line"/>
      <point x="77" y="-150" type="line"/>
      <point x="80" y="-137" type="line"/>
      <point x="-62" y="-137" type="line"/>
    </contour>
    <contour>
      <point x="81" y="727" type="line"/>
      <point x="223" y="727" type="line"/>
      <point x="226" y="740" type="line"/>
      <point x="84" y="740" type="line"/>
    </contour>
  </outline>
</glyph>
<glyph name="asciicircum" format="1">
  <advance width="500"/>
  <unicode hex="005E"/>
  <outline>
    <contour>
      <point x="32" y="250" type="line"/>
      <point x="66" y="250" type="line"/>
      <point x="310" y="640" type="line"/>
      <point x="299" y="640" type="line"/>
      <point x="421" y="250" type="line"/>
      <point x="452" y="250" type="line"/>
      <point x="321" y="670" type="line"/>
      <point x="295" y="670" type="line"/>
    </contour>
  </outline>
</glyph>
<glyph name="underscore" format="1">
  <advance width="500"/>
  <unicode hex="005F"/>
  <outline>
    <contour>
      <point x="25" y="-127" type="line"/>
      <point x="463" y="-127" type="line"/>
      <point x="468" y="-103" type="line"/>
      <point x="30" y="-103" type="line"/>
    </contour>
  </outline>
</glyph>
<glyph name="a" format="1">
  <advance width="496"/>
  <unicode hex="0061"/>
  <outline>
    <contour>
      <point x="136" y="-10" type="curve" smooth="yes"/>
      <point x="195" y="-10"/>
      <point x="241" y="28"/>
      <point x="315" y="111" type="curve"/>
      <point x="324" y="111" type="line"/>
      <point x="324" y="139" type="line"/>
      <point x="271" y="79"/>
      <point x="214" y="26"/>
      <point x="156" y="26" type="curve" smooth="yes"/>
      <point x="114" y="26"/>
      <point x="86" y="61"/>
      <point x="86" y="126" type="curve" smooth="yes"/>
      <point x="86" y="276"/>
      <point x="163" y="434"/>
      <point x="281" y="434" type="curve" smooth="yes"/>
      <point x="324" y="434"/>
      <point x="348" y="418"/>
      <point x="370" y="400" type="curve"/>
      <point x="367" y="405" type="line"/>
      <point x="314" y="95" type="line" smooth="yes"/>
      <point x="300" y="14"/>
      <point x="318" y="-10"/>
      <point x="350" y="-10" type="curve" smooth="yes"/>
      <point x="391" y="-10"/>
      <point x="432" y="26"/>
      <point x="467" y="113" type="curve"/>
      <point x="453" y="118" type="line"/>
      <point x="430" y="65"/>
      <point x="402" y="36"/>
      <point x="376" y="36" type="curve" smooth="yes"/>
      <point x="355" y="36"/>
      <point x="351" y="55"/>
      <point x="362" y="119" type="curve" smooth="yes"/>
      <point x="420" y="450" type="line"/>
      <point x="413" y="450" type="line"/>
      <point x="390" y="426" type="line"/>
      <point x="402" y="421" type="line"/>
      <point x="378" y="441"/>
      <point x="337" y="460"/>
      <point x="303" y="460" type="curve" smooth="yes"/>
      <point x="166" y="460"/>
      <point x="40" y="270"/>
      <point x="40" y="118" type="curve" smooth="yes"/>
      <point x="40" y="35"/>
      <point x="82" y="-10"/>
    </contour>
    <contour>
      <point x="309" y="510" type="move" name="top"/>
    </contour>
    <contour>
      <point x="389" y="0" type="move" name="right"/>
    </contour>
    <contour>
      <point x="231" y="0" type="move" name="bottom"/>
    </contour>
  </outline>
</glyph>
<glyph name="b" format="1">
  <advance width="483"/>
  <unicode hex="0062"/>
  <outline>
    <contour>
      <point x="201" y="-10" type="curve" smooth="yes"/>
      <point x="322" y="-10"/>
      <point x="443" y="147"/>
      <point x="443" y="315" type="curve" smooth="yes"/>
      <point x="443" y="409"/>
      <point x="405" y="460"/>
      <point x="348" y="460" type="curve" smooth="yes"/>
      <point x="290" y="460"/>
      <point x="244" y="423"/>
      <point x="173" y="343" type="curve"/>
      <point x="160" y="343" type="line"/>
      <point x="160" y="311" type="line"/>
      <point x="213" y="371"/>
      <point x="270" y="424"/>
      <point x="328" y="424" type="curve" smooth="yes"/>
      <point x="373" y="424"/>
      <point x="398" y="384"/>
      <point x="398" y="311" type="curve" smooth="yes"/>
      <point x="398" y="121"/>
      <point x="318" y="17"/>
      <point x="223" y="16" type="curve" smooth="yes"/>
      <point x="189" y="16"/>
      <point x="152" y="23"/>
      <point x="116" y="60" type="curve"/>
      <point x="119" y="55" type="line"/>
      <point x="241" y="750" type="line"/>
      <point x="233" y="750" type="line"/>
      <point x="126" y="726" type="line"/>
      <point x="126" y="716" type="line"/>
      <point x="189" y="707" type="line"/>
      <point x="64" y="0" type="line"/>
      <point x="71" y="0" type="line"/>
      <point x="101" y="33" type="line"/>
      <point x="84" y="39" type="line"/>
      <point x="112" y="11"/>
      <point x="161" y="-10"/>
    </contour>
  </outline>
</glyph>
<glyph name="c" format="2">
  <advance width="417"/>
  <unicode hex="0063"/>
  <anchor x="279" y="510" name="top"/>
  <anchor x="188" y="0" name="bottom"/>
  <outline>
    <contour>
      <point x="352" y="429" type="curve"/>
      <point x="303" y="456" type="line"/>
      <point x="369" y="361" type="line"/>
      <point x="395" y="378" type="line" smooth="yes"/>
      <point x="401" y="382"/>
      <point x="403" y="387"/>
      <point x="403" y="393" type="curve" smooth="yes"/>
      <point x="403" y="419"/>
      <point x="358" y="460"/>
      <point x="294" y="460" type="curve" smooth="yes"/>
      <point x="161" y="460"/>
      <point x="40" y="319"/>
      <point x="40" y="160" type="curve" smooth="yes"/>
      <point x="40" y="62"/>
      <point x="86" y="-10"/>
      <point x="184" y="-10" type="curve" smooth="yes"/>
      <point x="271" y="-10"/>
      <point x="335" y="64"/>
      <point x="361" y="134" type="curve"/>
      <point x="355" y="139" type="line"/>
      <point x="353" y="139" type="line"/>
      <point x="317" y="70"/>
      <point x="268" y="22"/>
      <point x="205" y="22" type="curve" smooth="yes"/>
      <point x="132" y="22"/>
      <point x="82" y="75"/>
      <point x="82" y="173" type="curve" smooth="yes"/>
      <point x="82" y="326"/>
      <point x="179" y="443"/>
      <point x="290" y="443" type="curve" smooth="yes"/>
      <point x="313" y="443"/>
      <point x="334" y="437"/>
    </contour>
  </outline>
</glyph>
<glyph name="e" format="1">
  <advance width="415.0"/>
  <unicode hex="0065"/>
  <outline>
    <contour>
      <point x="184" y="-10" type="curve" smooth="yes"/>
      <point x="271" y="-10"/>
      <point x="335" y="54"/>
      <point x="361" y="124" type="curve"/>
      <point x="355" y="129" type="line"/>
      <point x="353" y="129" type="line"/>
      <point x="317" y="60"/>
      <point x="268" y="22"/>
      <point x="205" y="22" type="curve" smooth="yes"/>
      <point x="132" y="22"/>
      <point x="82" y="75"/>
      <point x="82" y="173" type="curve" smooth="yes"/>
      <point x="82" y="328"/>
      <point x="167" y="438"/>
      <point x="266" y="438" type="curve" smooth="yes"/>
      <point x="315" y="438"/>
      <point x="338" y="412"/>
      <point x="338" y="378" type="curve" smooth="yes"/>
      <point x="338" y="314"/>
      <point x="259" y="283"/>
      <point x="86" y="260" type="curve"/>
      <point x="86" y="245" type="line"/>
      <point x="298" y="272"/>
      <point x="384" y="322"/>
      <point x="384" y="382" type="curve" smooth="yes"/>
      <point x="384" y="420"/>
      <point x="352" y="460"/>
      <point x="281" y="460" type="curve" smooth="yes"/>
      <point x="165" y="460"/>
      <point x="40" y="316"/>
      <point x="40" y="160" type="curve" smooth="yes"/>
      <point x="40" y="62"/>
      <point x="86" y="-10"/>
    </contour>
    <contour>
      <point x="260" y="0" type="move" name="right"/>
    </contour>
    <contour>
      <point x="193" y="0" type="move" name="bottom"/>
    </contour>
    <contour>
      <point x="281" y="510" type="move" name="top"/>
    </contour>
  </outline>
</glyph>
<glyph name="f" format="2">
  <advance width="297"/>
  <unicode hex="0066"/>
  <outline>
    <contour>
      <point x="53" y="421" type="line"/>
      <point x="296" y="421" type="line"/>
      <point x="296" y="450" type="line"/>
      <point x="53" y="450" type="line"/>
    </contour>
    <contour>
      <point x="356" y="728" type="curve"/>
      <point x="304" y="726" type="line"/>
      <point x="404" y="690" type="line"/>
      <point x="413" y="714" type="line" smooth="yes"/>
      <point x="416" y="721"/>
      <point x="417" y="726"/>
      <point x="417" y="728" type="curve" smooth="yes"/>
      <point x="417" y="739"/>
      <point x="405" y="750"/>
      <point x="380" y="750" type="curve" smooth="yes"/>
      <point x="255" y="750"/>
      <point x="163" y="596"/>
      <point x="147" y="490" type="curve" smooth="yes"/>
      <point x="77" y="32" type="line" smooth="yes"/>
      <point x="49" y="-149"/>
      <point x="10" y="-201"/>
      <point x="-63" y="-226" type="curve"/>
      <point x="-22" y="-216" type="line"/>
      <point x="-101" y="-179" type="line"/>
      <point x="-110" y="-197" type="line" smooth="yes"/>
      <point x="-113" y="-203"/>
      <point x="-115" y="-209"/>
      <point x="-115" y="-214" type="curve" smooth="yes"/>
      <point x="-115" y="-228"/>
      <point x="-103" y="-240"/>
      <point x="-74" y="-240" type="curve" smooth="yes"/>
      <point x="8" y="-240"/>
      <point x="101" y="-107"/>
      <point x="122" y="32" type="curve" smooth="yes"/>
      <point x="192" y="485" type="line" smooth="yes"/>
      <point x="217" y="647"/>
      <point x="268" y="717"/>
    </contour>
  </outline>
</glyph>
<glyph name="g" format="1">
  <advance width="445.0"/>
  <unicode hex="0067"/>
  <outline>
    <contour>
      <point x="198" y="153" type="curve" smooth="yes"/>
      <point x="299" y="153"/>
      <point x="372" y="248"/>
      <point x="372" y="340" type="curve" smooth="yes"/>
      <point x="372" y="376"/>
      <point x="362" y="406"/>
      <point x="342" y="428" type="curve"/>
      <point x="326" y="441" type="line"/>
      <point x="308" y="453"/>
      <point x="285" y="460"/>
      <point x="258" y="460" type="curve" smooth="yes"/>
      <point x="163" y="460"/>
      <point x="84" y="377"/>
      <point x="84" y="272" type="curve" smooth="yes"/>
      <point x="84" y="210"/>
      <point x="117" y="153"/>
    </contour>
    <contour>
      <point x="212" y="171" type="curve" smooth="yes"/>
      <point x="146" y="171"/>
      <point x="130" y="225"/>
      <point x="130" y="281" type="curve" smooth="yes"/>
      <point x="130" y="370"/>
      <point x="173" y="443"/>
      <point x="245" y="443" type="curve" smooth="yes"/>
      <point x="300" y="443"/>
      <point x="324" y="405"/>
      <point x="324" y="333" type="curve" smooth="yes"/>
      <point x="324" y="240"/>
      <point x="279" y="171"/>
    </contour>
    <contour>
      <point x="449" y="423" type="line"/>
      <point x="449" y="450" type="line"/>
      <point x="297" y="450" type="line"/>
      <point x="313" y="407" type="line"/>
      <point x="337" y="407" type="line"/>
      <point x="355" y="423" type="line"/>
    </contour>
    <contour>
      <point x="154" y="-240" type="curve" smooth="yes"/>
      <point x="278" y="-240"/>
      <point x="362" y="-181"/>
      <point x="362" y="-94" type="curve" smooth="yes"/>
      <point x="362" y="51"/>
      <point x="79" y="-27"/>
      <point x="79" y="87" type="curve" smooth="yes"/>
      <point x="79" y="125"/>
      <point x="108" y="144"/>
      <point x="161" y="166" type="curve"/>
      <point x="161" y="183" type="line"/>
      <point x="132" y="183" type="line"/>
      <point x="132" y="166" type="line"/>
      <point x="70" y="132" type="line"/>
      <point x="53" y="117"/>
      <point x="38" y="98"/>
      <point x="38" y="75" type="curve" smooth="yes"/>
      <point x="38" y="-77"/>
      <point x="324" y="14"/>
      <point x="324" y="-114" type="curve" smooth="yes"/>
      <point x="324" y="-170"/>
      <point x="259" y="-227"/>
      <point x="160" y="-227" type="curve" smooth="yes"/>
      <point x="87.4285714286" y="-227.0"/>
      <point x="33" y="-195"/>
      <point x="33" y="-127" type="curve" smooth="yes"/>
      <point x="33" y="-76"/>
      <point x="60" y="-27"/>
      <point x="118" y="0" type="curve"/>
      <point x="118" y="9" type="line"/>
      <point x="83" y="9" type="line"/>
      <point x="83" y="-6" type="line"/>
      <point x="18" y="-57" type="line"/>
      <point x="2" y="-81"/>
      <point x="-8" y="-113"/>
      <point x="-8" y="-145" type="curve" smooth="yes"/>
      <point x="-8" y="-208"/>
      <point x="62" y="-240"/>
    </contour>
    <contour>
      <point x="265" y="510" type="move" name="top"/>
    </contour>
  </outline>
</glyph>
<glyph name="h" format="1">
  <advance width="524"/>
  <unicode hex="0068"/>
  <outline>
    <contour>
      <point x="109" y="0" type="line"/>
      <point x="241" y="750" type="line"/>
      <point x="233" y="750" type="line"/>
      <point x="126" y="726" type="line"/>
      <point x="126" y="716" type="line"/>
      <point x="189" y="707" type="line"/>
      <point x="64" y="0" type="line"/>
    </contour>
    <contour>
      <point x="378" y="-10" type="curve" smooth="yes"/>
      <point x="419" y="-10"/>
      <point x="460" y="26"/>
      <point x="495" y="113" type="curve"/>
      <point x="481" y="118" type="line"/>
      <point x="458" y="65"/>
      <point x="430" y="36"/>
      <point x="404" y="36" type="curve" smooth="yes"/>
      <point x="383" y="36"/>
      <point x="378" y="55"/>
      <point x="390" y="119" type="curve" smooth="yes"/>
      <point x="425" y="312" type="line" smooth="yes"/>
      <point x="443" y="412"/>
      <point x="410" y="460"/>
      <point x="343" y="460" type="curve" smooth="yes"/>
      <point x="288" y="460"/>
      <point x="244" y="428"/>
      <point x="173" y="349" type="curve"/>
      <point x="155" y="349" type="line"/>
      <point x="155" y="311" type="line"/>
      <point x="208" y="371"/>
      <point x="265" y="424"/>
      <point x="323" y="424" type="curve" smooth="yes"/>
      <point x="378" y="424"/>
      <point x="391" y="381"/>
      <point x="381" y="321" type="curve" smooth="yes"/>
      <point x="342" y="95" type="line" smooth="yes"/>
      <point x="328" y="14"/>
      <point x="346" y="-10"/>
    </contour>
    <contour>
      <point x="351" y="765" type="move" name="top"/>
    </contour>
    <contour>
      <point x="236" y="0" type="move" name="bottom"/>
    </contour>
  </outline>
</glyph>
<glyph name="i" format="1">
  <advance width="235.0"/>
  <unicode hex="0069"/>
  <outline>
    <contour>
      <point x="88" y="-10" type="curve" smooth="yes"/>
      <point x="129" y="-10"/>
      <point x="170" y="26"/>
      <point x="205" y="113" type="curve"/>
      <point x="191" y="118" type="line"/>
      <point x="168" y="65"/>
      <point x="140" y="36"/>
      <point x="114" y="36" type="curve" smooth="yes"/>
      <point x="93" y="36"/>
      <point x="89" y="55"/>
      <point x="100" y="119" type="curve" smooth="yes"/>
      <point x="161" y="460" type="line"/>
      <point x="148" y="460" type="line"/>
      <point x="46" y="436" type="line"/>
      <point x="46" y="426" type="line"/>
      <point x="109" y="417" type="line"/>
      <point x="52" y="95" type="line" smooth="yes"/>
      <point x="38" y="14"/>
      <point x="56" y="-10"/>
    </contour>
    <contour>
      <point x="167" y="622" type="curve" smooth="yes"/>
      <point x="186" y="622"/>
      <point x="201" y="637"/>
      <point x="201" y="656" type="curve" smooth="yes"/>
      <point x="201" y="675"/>
      <point x="186" y="690"/>
      <point x="167" y="690" type="curve" smooth="yes"/>
      <point x="148" y="690"/>
      <point x="133" y="675"/>
      <point x="133" y="656" type="curve" smooth="yes"/>
      <point x="133" y="637"/>
      <point x="148" y="622"/>
    </contour>
    <contour>
      <point x="148" y="510" type="move" name="top"/>
    </contour>
    <contour>
      <point x="112" y="0" type="move" name="right"/>
    </contour>
    <contour>
      <point x="87" y="0" type="move" name="bottom"/>
    </contour>
  </outline>
</glyph>
<glyph name="j" format="1">
  <advance width="288.0"/>
  <unicode hex="006A"/>
  <outline>
    <contour>
      <point x="-60" y="-220" type="line"/>
      <point x="38" y="-171"/>
      <point x="99" y="-94"/>
      <point x="116" y="0" type="curve" smooth="yes"/>
      <point x="198" y="460" type="line"/>
      <point x="185" y="460" type="line"/>
      <point x="83" y="436" type="line"/>
      <point x="83" y="426" type="line"/>
      <point x="146" y="417" type="line"/>
      <point x="72" y="0" type="line" smooth="yes"/>
      <point x="52" y="-110"/>
      <point x="9" y="-158"/>
      <point x="-60" y="-203" type="curve"/>
    </contour>
    <contour>
      <point x="204" y="626" type="curve" smooth="yes"/>
      <point x="223" y="626"/>
      <point x="238" y="641"/>
      <point x="238" y="660" type="curve" smooth="yes"/>
      <point x="238" y="679"/>
      <point x="223" y="694"/>
      <point x="204" y="694" type="curve" smooth="yes"/>
      <point x="185" y="694"/>
      <point x="170" y="679"/>
      <point x="170" y="660" type="curve" smooth="yes"/>
      <point x="170" y="641"/>
      <point x="185" y="626"/>
    </contour>
    <contour>
      <point x="185" y="510" type="move" name="top"/>
    </contour>
  </outline>
</glyph>
<glyph name="k" format="2">
  <advance width="477"/>
  <unicode hex="006B"/>
  <anchor x="191" y="0" name="bottom"/>
  <outline>
    <contour>
      <point x="64" y="0" type="line"/>
      <point x="107" y="0" type="line"/>
      <point x="240" y="750" type="line"/>
      <point x="232" y="750" type="line"/>
      <point x="125" y="726" type="line"/>
      <point x="125" y="716" type="line"/>
      <point x="188" y="707" type="line"/>
    </contour>
    <contour>
      <point x="332" y="-10" type="curve" smooth="yes"/>
      <point x="370" y="-10"/>
      <point x="407" y="38"/>
      <point x="437" y="113" type="curve"/>
      <point x="423" y="118" type="line"/>
      <point x="399" y="61"/>
      <point x="369" y="36"/>
      <point x="350" y="36" type="curve" smooth="yes"/>
      <point x="330" y="36"/>
      <point x="321" y="50"/>
      <point x="288" y="109" type="curve" smooth="yes"/>
      <point x="194" y="274" type="line"/>
      <point x="184" y="259" type="line"/>
      <point x="286" y="362" type="line" smooth="yes"/>
      <point x="332" y="408"/>
      <point x="373" y="426"/>
      <point x="402" y="427" type="curve"/>
      <point x="350" y="433" type="line"/>
      <point x="418" y="400" type="line"/>
      <point x="431" y="426" type="line" smooth="yes"/>
      <point x="432" y="428"/>
      <point x="433" y="431"/>
      <point x="433" y="433" type="curve" smooth="yes"/>
      <point x="433" y="446"/>
      <point x="419" y="459"/>
      <point x="394" y="459" type="curve" smooth="yes"/>
      <point x="355" y="459"/>
      <point x="332" y="439"/>
      <point x="157" y="257" type="curve"/>
      <point x="157" y="252" type="line"/>
      <point x="252" y="79" type="line" smooth="yes"/>
      <point x="293" y="4"/>
      <point x="307" y="-10"/>
    </contour>
  </outline>
</glyph>
<glyph name="l" format="1">
  <advance width="254.0"/>
  <unicode hex="006C"/>
  <outline>
    <contour>
      <point x="105" y="-10" type="curve" smooth="yes"/>
      <point x="146" y="-10"/>
      <point x="187" y="26"/>
      <point x="222" y="113" type="curve"/>
      <point x="208" y="118" type="line"/>
      <point x="185" y="65"/>
      <point x="157" y="36"/>
      <point x="131" y="36" type="curve" smooth="yes"/>
      <point x="110" y="36"/>
      <point x="106" y="55"/>
      <point x="117" y="119" type="curve" smooth="yes"/>
      <point x="230" y="750" type="line"/>
      <point x="217" y="750" type="line"/>
      <point x="115" y="726" type="line"/>
      <point x="115" y="716" type="line"/>
      <point x="178" y="707" type="line"/>
      <point x="69" y="95" type="line" smooth="yes"/>
      <point x="55" y="14"/>
      <point x="73" y="-10"/>
    </contour>
    <contour>
      <point x="226" y="765" type="move" name="top"/>
    </contour>
    <contour>
      <point x="326" y="740" type="move" name="right"/>
    </contour>
    <contour>
      <point x="254" y="300" type="move" name="mid"/>
    </contour>
    <contour>
      <point x="107" y="0" type="move" name="bottom"/>
    </contour>
  </outline>
</glyph>
<glyph name="m" format="1">
  <advance width="747"/>
  <unicode hex="006D"/>
  <outline>
    <contour>
      <point x="46" y="0" type="line"/>
      <point x="91" y="0" type="line"/>
      <point x="151" y="340" type="line"/>
      <point x="167" y="460" type="line"/>
      <point x="159" y="460" type="line"/>
      <point x="57" y="436" type="line"/>
      <point x="57" y="426" type="line"/>
      <point x="120" y="417" type="line"/>
    </contour>
    <contour>
      <point x="298" y="0" type="line"/>
      <point x="341" y="0" type="line"/>
      <point x="397" y="312" type="line" smooth="yes"/>
      <point x="415" y="412"/>
      <point x="387" y="460"/>
      <point x="320" y="460" type="curve" smooth="yes"/>
      <point x="265" y="460"/>
      <point x="225" y="428"/>
      <point x="155" y="349" type="curve"/>
      <point x="137" y="349" type="line"/>
      <point x="137" y="311" type="line"/>
      <point x="190" y="371"/>
      <point x="242" y="424"/>
      <point x="300" y="424" type="curve" smooth="yes"/>
      <point x="355" y="424"/>
      <point x="363" y="381"/>
      <point x="353" y="321" type="curve" smooth="yes"/>
    </contour>
    <contour>
      <point x="601" y="-10" type="curve" smooth="yes"/>
      <point x="642" y="-10"/>
      <point x="683" y="26"/>
      <point x="718" y="113" type="curve"/>
      <point x="704" y="118" type="line"/>
      <point x="681" y="65"/>
      <point x="653" y="36"/>
      <point x="627" y="36" type="curve" smooth="yes"/>
      <point x="606" y="36"/>
      <point x="601" y="55"/>
      <point x="613" y="119" type="curve" smooth="yes"/>
      <point x="648" y="312" type="line" smooth="yes"/>
      <point x="666" y="412"/>
      <point x="638" y="460"/>
      <point x="571" y="460" type="curve" smooth="yes"/>
      <point x="516" y="460"/>
      <point x="476" y="427"/>
      <point x="405" y="348" type="curve"/>
      <point x="388" y="348" type="line"/>
      <point x="388" y="311" type="line"/>
      <point x="441" y="371"/>
      <point x="493" y="424"/>
      <point x="551" y="424" type="curve" smooth="yes"/>
      <point x="606" y="424"/>
      <point x="614" y="381"/>
      <point x="604" y="321" type="curve" smooth="yes"/>
      <point x="565" y="95" type="line" smooth="yes"/>
      <point x="551" y="14"/>
      <point x="569" y="-10"/>
    </contour>
    <contour>
      <point x="321" y="0" type="move" name="bottom"/>
    </contour>
  </outline>
</glyph>
<glyph name="n" format="1">
  <advance width="506"/>
  <unicode hex="006E"/>
  <outline>
    <contour>
      <point x="46" y="0" type="line"/>
      <point x="91" y="0" type="line"/>
      <point x="151" y="340" type="line"/>
      <point x="167" y="460" type="line"/>
      <point x="159" y="460" type="line"/>
      <point x="57" y="436" type="line"/>
      <point x="57" y="426" type="line"/>
      <point x="120" y="417" type="line"/>
    </contour>
    <contour>
      <point x="360" y="-10" type="curve" smooth="yes"/>
      <point x="401" y="-10"/>
      <point x="442" y="26"/>
      <point x="477" y="113" type="curve"/>
      <point x="463" y="118" type="line"/>
      <point x="440" y="65"/>
      <point x="412" y="36"/>
      <point x="386" y="36" type="curve" smooth="yes"/>
      <point x="365" y="36"/>
      <point x="360" y="55"/>
      <point x="372" y="119" type="curve" smooth="yes"/>
      <point x="407" y="312" type="line" smooth="yes"/>
      <point x="425" y="412"/>
      <point x="392" y="460"/>
      <point x="325" y="460" type="curve" smooth="yes"/>
      <point x="270" y="460"/>
      <point x="226" y="428"/>
      <point x="155" y="349" type="curve"/>
      <point x="137" y="349" type="line"/>
      <point x="137" y="311" type="line"/>
      <point x="190" y="371"/>
      <point x="247" y="424"/>
      <point x="305" y="424" type="curve" smooth="yes"/>
      <point x="360" y="424"/>
      <point x="373" y="381"/>
      <point x="363" y="321" type="curve" smooth="yes"/>
      <point x="324" y="95" type="line" smooth="yes"/>
      <point x="310" y="14"/>
      <point x="328" y="-10"/>
    </contour>
    <contour>
      <point x="292" y="510" type="move" name="top"/>
    </contour>
    <contour>
      <point x="218" y="0" type="move" name="bottom"/>
    </contour>
  </outline>
</glyph>
<glyph name="o" format="1">
  <advance width="459.0"/>
  <unicode hex="006F"/>
  <outline>
    <contour>
      <point x="188" y="-10" type="curve" smooth="yes"/>
      <point x="323" y="-10"/>
      <point x="419" y="141"/>
      <point x="419" y="282" type="curve" smooth="yes"/>
      <point x="419" y="387"/>
      <point x="364" y="460"/>
      <point x="271" y="460" type="curve" smooth="yes"/>
      <point x="147" y="460"/>
      <point x="40" y="330"/>
      <point x="40" y="166" type="curve" smooth="yes"/>
      <point x="40" y="63"/>
      <point x="95" y="-10"/>
    </contour>
    <contour>
      <point x="204" y="13" type="curve" smooth="yes"/>
      <point x="127.0" y="13.0"/>
      <point x="87.0" y="80.9289940828"/>
      <point x="87" y="177" type="curve" smooth="yes"/>
      <point x="87.0" y="320.255639098"/>
      <point x="159.0" y="438.0"/>
      <point x="256" y="438" type="curve" smooth="yes"/>
      <point x="334.0" y="438.0"/>
      <point x="372.0" y="371.090909091"/>
      <point x="372" y="278" type="curve" smooth="yes"/>
      <point x="372.0" y="129.796296296"/>
      <point x="298.0" y="13.0"/>
    </contour>
    <contour>
      <point x="279" y="510" type="move" name="top"/>
    </contour>
    <contour>
      <point x="210" y="0" type="move" name="right"/>
    </contour>
    <contour>
      <point x="190" y="0" type="move" name="bottom"/>
    </contour>
  </outline>
</glyph>
<glyph name="p" format="1">
  <advance width="483"/>
  <unicode hex="0070"/>
  <outline>
    <contour>
      <point x="-24" y="-230" type="line"/>
      <point x="147" y="-230" type="line"/>
      <point x="147" y="-220" type="line"/>
      <point x="74" y="-198" type="line"/>
      <point x="116" y="42" type="line"/>
      <point x="84" y="39" type="line"/>
      <point x="112" y="11"/>
      <point x="161" y="-10"/>
      <point x="201" y="-10" type="curve" smooth="yes"/>
      <point x="322" y="-10"/>
      <point x="443" y="147"/>
      <point x="443" y="315" type="curve" smooth="yes"/>
      <point x="443" y="409"/>
      <point x="405" y="460"/>
      <point x="348" y="460" type="curve" smooth="yes"/>
      <point x="290" y="460"/>
      <point x="244" y="423"/>
      <point x="173" y="343" type="curve"/>
      <point x="160" y="343" type="line"/>
      <point x="160" y="311" type="line"/>
      <point x="213" y="371"/>
      <point x="270" y="424"/>
      <point x="328" y="424" type="curve" smooth="yes"/>
      <point x="373" y="424"/>
      <point x="398" y="384"/>
      <point x="398" y="311" type="curve" smooth="yes"/>
      <point x="398" y="121"/>
      <point x="318" y="16"/>
      <point x="223" y="16" type="curve" smooth="yes"/>
      <point x="189" y="16"/>
      <point x="152" y="23"/>
      <point x="116" y="60" type="curve"/>
      <point x="118" y="52" type="line"/>
      <point x="169" y="340" type="line"/>
      <point x="185" y="460" type="line"/>
      <point x="177" y="460" type="line"/>
      <point x="75" y="436" type="line"/>
      <point x="75" y="426" type="line"/>
      <point x="138" y="417" type="line"/>
      <point x="29" y="-198" type="line"/>
      <point x="-24" y="-220" type="line"/>
    </contour>
  </outline>
</glyph>
<glyph name="q" format="1">
  <advance width="462.0"/>
  <unicode hex="0071"/>
  <outline>
    <contour>
      <point x="187" y="-230" type="line"/>
      <point x="358" y="-230" type="line"/>
      <point x="358" y="-220" type="line"/>
      <point x="305" y="-198" type="line"/>
      <point x="419" y="450" type="line"/>
      <point x="412" y="450" type="line"/>
      <point x="382" y="417" type="line"/>
      <point x="399" y="411" type="line"/>
      <point x="371" y="439"/>
      <point x="322" y="460"/>
      <point x="282" y="460" type="curve" smooth="yes"/>
      <point x="161" y="460"/>
      <point x="40" y="303"/>
      <point x="40" y="135" type="curve" smooth="yes"/>
      <point x="40" y="41"/>
      <point x="78" y="-10"/>
      <point x="135" y="-10" type="curve" smooth="yes"/>
      <point x="193" y="-10"/>
      <point x="239" y="27"/>
      <point x="310" y="107" type="curve"/>
      <point x="323" y="107" type="line"/>
      <point x="323" y="139" type="line"/>
      <point x="270" y="79"/>
      <point x="213" y="26"/>
      <point x="155" y="26" type="curve" smooth="yes"/>
      <point x="110" y="26"/>
      <point x="85" y="66"/>
      <point x="85" y="139" type="curve" smooth="yes"/>
      <point x="85" y="329"/>
      <point x="165" y="434"/>
      <point x="260" y="434" type="curve" smooth="yes"/>
      <point x="294" y="434"/>
      <point x="331" y="427"/>
      <point x="367" y="390" type="curve"/>
      <point x="364" y="395" type="line"/>
      <point x="260" y="-198" type="line"/>
      <point x="187" y="-220" type="line"/>
    </contour>
  </outline>
</glyph>
<glyph name="r" format="2">
  <advance width="325"/>
  <unicode hex="0072"/>
  <anchor x="242" y="510" name="top"/>
  <anchor x="96" y="0" name="bottom"/>
  <outline>
    <contour>
      <point x="73" y="0" type="line"/>
      <point x="118" y="0" type="line"/>
      <point x="178" y="335" type="line"/>
      <point x="194" y="460" type="line"/>
      <point x="189" y="460" type="line"/>
      <point x="82" y="436" type="line"/>
      <point x="82" y="426" type="line"/>
      <point x="147" y="417" type="line"/>
    </contour>
    <contour>
      <point x="313" y="425" type="curve"/>
      <point x="269" y="423" type="line"/>
      <point x="341" y="389" type="line"/>
      <point x="355" y="419" type="line" smooth="yes"/>
      <point x="357" y="423"/>
      <point x="358" y="427"/>
      <point x="358" y="430" type="curve" smooth="yes"/>
      <point x="358" y="444"/>
      <point x="342" y="460"/>
      <point x="319" y="460" type="curve" smooth="yes"/>
      <point x="289" y="460"/>
      <point x="259" y="439"/>
      <point x="183" y="349" type="curve"/>
      <point x="165" y="349" type="line"/>
      <point x="165" y="300" type="line"/>
      <point x="225" y="384"/>
      <point x="262" y="409"/>
    </contour>
  </outline>
</glyph>
<glyph name="s" format="2">
  <advance width="365"/>
  <unicode hex="0073"/>
  <anchor x="230" y="510" name="top"/>
  <anchor x="142" y="0" name="bottom"/>
  <outline>
    <contour>
      <point x="74" y="21" type="curve"/>
      <point x="107" y="5" type="line"/>
      <point x="41" y="80" type="line"/>
      <point x="23" y="61" type="line" smooth="yes"/>
      <point x="17" y="55"/>
      <point x="15" y="50"/>
      <point x="15" y="45" type="curve" smooth="yes"/>
      <point x="15" y="26"/>
      <point x="61" y="-10"/>
      <point x="138" y="-10" type="curve" smooth="yes"/>
      <point x="226" y="-10"/>
      <point x="288" y="64"/>
      <point x="288" y="132" type="curve" smooth="yes"/>
      <point x="288" y="192"/>
      <point x="254" y="217"/>
      <point x="193" y="253" type="curve" smooth="yes"/>
      <point x="146" y="281"/>
      <point x="125" y="307"/>
      <point x="125" y="353" type="curve" smooth="yes"/>
      <point x="125" y="401"/>
      <point x="170" y="443"/>
      <point x="226" y="443" type="curve" smooth="yes"/>
      <point x="237" y="443"/>
      <point x="248" y="442"/>
      <point x="258" y="439" type="curve"/>
      <point x="232" y="448" type="line"/>
      <point x="312" y="380" type="line"/>
      <point x="324" y="394" type="line" smooth="yes"/>
      <point x="329" y="400"/>
      <point x="331" y="406"/>
      <point x="331" y="411" type="curve" smooth="yes"/>
      <point x="331" y="430"/>
      <point x="292" y="460"/>
      <point x="233" y="460" type="curve" smooth="yes"/>
      <point x="145" y="460"/>
      <point x="85" y="390"/>
      <point x="85" y="331" type="curve" smooth="yes"/>
      <point x="85" y="275"/>
      <point x="116" y="246"/>
      <point x="175" y="213" type="curve" smooth="yes"/>
      <point x="232" y="181"/>
      <point x="247" y="157"/>
      <point x="247" y="112" type="curve" smooth="yes"/>
      <point x="247" y="53"/>
      <point x="202" y="7"/>
      <point x="135" y="7" type="curve" smooth="yes"/>
      <point x="114" y="7"/>
      <point x="93" y="12"/>
    </contour>
  </outline>
</glyph>
<glyph name="t" format="1">
  <advance width="301.0"/>
  <unicode hex="0074"/>
  <outline>
    <contour>
      <point x="124" y="-10" type="curve" smooth="yes"/>
      <point x="174" y="-10"/>
      <point x="221" y="32"/>
      <point x="262" y="134" type="curve"/>
      <point x="248" y="139" type="line"/>
      <point x="217" y="67"/>
      <point x="179" y="29"/>
      <point x="145" y="29" type="curve" smooth="yes"/>
      <point x="125" y="29"/>
      <point x="115" y="41"/>
      <point x="115" y="74" type="curve" smooth="yes"/>
      <point x="115" y="87"/>
      <point x="117" y="103"/>
      <point x="120" y="124" type="curve" smooth="yes"/>
      <point x="171" y="421" type="line"/>
      <point x="295" y="421" type="line"/>
      <point x="295" y="450" type="line"/>
      <point x="177" y="450" type="line"/>
      <point x="197" y="560" type="line"/>
      <point x="188" y="560" type="line"/>
      <point x="140" y="453" type="line"/>
      <point x="49" y="428" type="line"/>
      <point x="49" y="421" type="line"/>
      <point x="126" y="421" type="line"/>
      <point x="69" y="89" type="line" smooth="yes"/>
      <point x="67" y="78"/>
      <point x="66" y="67"/>
      <point x="66" y="58" type="curve" smooth="yes"/>
      <point x="66" y="15"/>
      <point x="85" y="-10"/>
    </contour>
    <contour>
      <point x="195" y="610" type="move" name="top"/>
    </contour>
    <contour>
      <point x="355" y="740" type="move" name="right"/>
    </contour>
    <contour>
      <point x="128" y="0" type="move" name="bottom"/>
    </contour>
  </outline>
</glyph>
<glyph name="u" format="1">
  <advance width="485.0"/>
  <unicode hex="0075"/>
  <outline>
    <contour>
      <point x="143" y="-10" type="curve" smooth="yes"/>
      <point x="197" y="-10"/>
      <point x="237" y="21"/>
      <point x="305" y="98" type="curve"/>
      <point x="326" y="98" type="line"/>
      <point x="326" y="139" type="line"/>
      <point x="273" y="79"/>
      <point x="221" y="26"/>
      <point x="163" y="26" type="curve" smooth="yes"/>
      <point x="120" y="26"/>
      <point x="105" y="51"/>
      <point x="105" y="89" type="curve" smooth="yes"/>
      <point x="105" y="101"/>
      <point x="107" y="115"/>
      <point x="110" y="129" type="curve" smooth="yes"/>
      <point x="168" y="460" type="line"/>
      <point x="160" y="460" type="line"/>
      <point x="53" y="436" type="line"/>
      <point x="53" y="426" type="line"/>
      <point x="116" y="417" type="line"/>
      <point x="66" y="138" type="line" smooth="yes"/>
      <point x="62" y="118"/>
      <point x="60" y="100"/>
      <point x="60" y="85" type="curve" smooth="yes"/>
      <point x="60" y="21"/>
      <point x="88" y="-10"/>
    </contour>
    <contour>
      <point x="346" y="-10" type="curve" smooth="yes"/>
      <point x="387" y="-10"/>
      <point x="428" y="26"/>
      <point x="463" y="113" type="curve"/>
      <point x="449" y="118" type="line"/>
      <point x="426" y="65"/>
      <point x="398" y="36"/>
      <point x="372" y="36" type="curve" smooth="yes"/>
      <point x="351.3181818181818" y="36.0"/>
      <point x="347.2307692307692" y="57.07692307692308"/>
      <point x="358" y="119" type="curve" smooth="yes"/>
      <point x="418" y="460" type="line"/>
      <point x="410" y="460" type="line"/>
      <point x="295" y="436" type="line"/>
      <point x="295" y="426" type="line"/>
      <point x="366" y="417" type="line"/>
      <point x="308" y="95" type="line" smooth="yes"/>
      <point x="294.84615384615387" y="16.076923076923066"/>
      <point x="313.6136363636364" y="-10.0"/>
    </contour>
    <contour>
      <point x="277" y="510" type="move" name="top"/>
    </contour>
    <contour>
      <point x="207" y="0" type="move" name="bottom"/>
    </contour>
    <contour>
      <point x="386" y="0" type="move" name="right"/>
    </contour>
  </outline>
</glyph>
<glyph name="v" format="2">
  <advance width="382"/>
  <unicode hex="0076"/>
  <outline>
    <contour>
      <point x="160" y="-5" type="line"/>
      <point x="166" y="-5" type="line"/>
      <point x="194" y="44" type="line"/>
      <point x="194" y="65" type="line"/>
      <point x="188" y="65" type="line"/>
      <point x="117" y="460" type="line"/>
      <point x="113" y="460" type="line"/>
      <point x="14" y="435" type="line"/>
      <point x="14" y="425" type="line"/>
      <point x="108" y="412" type="line"/>
      <point x="72" y="445" type="line"/>
    </contour>
    <contour>
      <point x="169" y="-5" type="line"/>
      <point x="319" y="251" type="line" smooth="yes"/>
      <point x="364" y="328"/>
      <point x="378" y="367"/>
      <point x="378" y="394" type="curve" smooth="yes"/>
      <point x="378" y="438"/>
      <point x="361" y="460"/>
      <point x="339" y="460" type="curve" smooth="yes"/>
      <point x="333" y="460"/>
      <point x="327" y="457"/>
      <point x="320" y="450" type="curve" smooth="yes"/>
      <point x="300" y="430" type="line"/>
      <point x="358" y="380" type="line"/>
      <point x="345" y="405" type="line"/>
      <point x="352" y="369"/>
      <point x="336" y="318"/>
      <point x="283" y="225" type="curve" smooth="yes"/>
      <point x="163" y="15" type="line"/>
      <point x="163" y="-5" type="line"/>
    </contour>
  </outline>
</glyph>
<glyph name="w" format="2">
  <advance width="618"/>
  <unicode hex="0077"/>
  <anchor x="370.0" y="510.0" name="top"/>
  <outline>
    <contour>
      <point x="157" y="-5" type="line"/>
      <point x="163" y="-5" type="line"/>
      <point x="192" y="59" type="line"/>
      <point x="192" y="76" type="line"/>
      <point x="183" y="76" type="line"/>
      <point x="117" y="460" type="line"/>
      <point x="113" y="460" type="line"/>
      <point x="14" y="435" type="line"/>
      <point x="14" y="425" type="line"/>
      <point x="108" y="412" type="line"/>
      <point x="72" y="445" type="line"/>
    </contour>
    <contour>
      <point x="355" y="450" type="line"/>
      <point x="160" y="13" type="line"/>
      <point x="160" y="-5" type="line"/>
      <point x="167" y="-5" type="line"/>
      <point x="349" y="374" type="line"/>
      <point x="337" y="374" type="line"/>
      <point x="406" y="-5" type="line"/>
      <point x="412" y="-5" type="line"/>
      <point x="436" y="55" type="line"/>
      <point x="363" y="450" type="line"/>
    </contour>
    <contour>
      <point x="415" y="-5" type="line"/>
      <point x="555" y="240" type="line" smooth="yes"/>
      <point x="598" y="315"/>
      <point x="614" y="362"/>
      <point x="614" y="394" type="curve" smooth="yes"/>
      <point x="614" y="438"/>
      <point x="597" y="460"/>
      <point x="575" y="460" type="curve" smooth="yes"/>
      <point x="569" y="460"/>
      <point x="563" y="457"/>
      <point x="556" y="450" type="curve" smooth="yes"/>
      <point x="536" y="430" type="line"/>
      <point x="594" y="380" type="line"/>
      <point x="581" y="405" type="line"/>
      <point x="588" y="369"/>
      <point x="572" y="318"/>
      <point x="522" y="225" type="curve" smooth="yes"/>
      <point x="438" y="67" type="line"/>
      <point x="409" y="67" type="line"/>
      <point x="409" y="-5" type="line"/>
    </contour>
  </outline>
</glyph>
<glyph name="x" format="1">
  <advance width="448.0"/>
  <unicode hex="0078"/>
  <outline>
    <contour>
      <point x="293" y="0" type="line"/>
      <point x="296" y="0" type="line"/>
      <point x="398" y="29" type="line"/>
      <point x="398" y="39" type="line"/>
      <point x="308" y="52" type="line"/>
      <point x="326" y="43" type="line"/>
      <point x="164" y="460" type="line"/>
      <point x="160" y="460" type="line"/>
      <point x="64" y="434" type="line"/>
      <point x="64" y="424" type="line"/>
      <point x="145" y="413" type="line"/>
      <point x="131" y="422" type="line"/>
    </contour>
    <contour>
      <point x="415" y="450" type="curve"/>
      <point x="375" y="450" type="line"/>
      <point x="361.98578516" y="419.967196524"/>
      <point x="353.319091408" y="408.414304167"/>
      <point x="229" y="247" type="curve"/>
      <point x="241" y="237" type="line"/>
      <point x="381.651074881" y="400.432587009"/>
      <point x="414.000024661" y="420.000739834"/>
    </contour>
    <contour>
      <point x="13" y="0" type="curve"/>
      <point x="58" y="0" type="line"/>
      <point x="73.0148489348" y="34.0336575856"/>
      <point x="81.6803346897" y="45.5835346309"/>
      <point x="224" y="231" type="curve"/>
      <point x="212" y="241" type="line"/>
      <point x="53.3248763042" y="55.5484491805"/>
      <point x="13.999983137" y="33.9994266587"/>
    </contour>
  </outline>
</glyph>
<glyph name="y" format="2">
  <advance width="398"/>
  <unicode hex="0079"/>
  <anchor x="246.0" y="510.0" name="top"/>
  <anchor x="199" y="-50" name="bottom"/>
  <outline>
    <contour>
      <point x="19" y="425" type="line"/>
      <point x="114" y="412" type="line"/>
      <point x="77" y="445" type="line"/>
      <point x="176" y="4" type="line"/>
      <point x="211" y="60" type="line"/>
      <point x="211" y="75" type="line"/>
      <point x="204" y="75" type="line"/>
      <point x="122" y="460" type="line"/>
      <point x="118" y="460" type="line"/>
      <point x="19" y="435" type="line"/>
    </contour>
    <contour>
      <point x="293" y="214" type="curve" smooth="yes"/>
      <point x="118" y="-70" type="line" smooth="yes"/>
      <point x="66" y="-155"/>
      <point x="45" y="-179"/>
      <point x="13" y="-193" type="curve"/>
      <point x="30" y="-189" type="line"/>
      <point x="-52" y="-177" type="line"/>
      <point x="-60" y="-188"/>
      <point x="-63" y="-199"/>
      <point x="-63" y="-210" type="curve" smooth="yes"/>
      <point x="-63" y="-228"/>
      <point x="-54" y="-240"/>
      <point x="-29" y="-240" type="curve" smooth="yes"/>
      <point x="13" y="-240"/>
      <point x="54" y="-202"/>
      <point x="97" y="-134" type="curve" smooth="yes"/>
      <point x="337" y="251" type="line" smooth="yes"/>
      <point x="382" y="324"/>
      <point x="394" y="367"/>
      <point x="394" y="394" type="curve" smooth="yes"/>
      <point x="394" y="438"/>
      <point x="377" y="460"/>
      <point x="355" y="460" type="curve" smooth="yes"/>
      <point x="349" y="460"/>
      <point x="343" y="457"/>
      <point x="336" y="450" type="curve" smooth="yes"/>
      <point x="316" y="430" type="line"/>
      <point x="374" y="380" type="line"/>
      <point x="361" y="405" type="line"/>
      <point x="368" y="369"/>
      <point x="353" y="311"/>
    </contour>
  </outline>
</glyph>
<glyph name="z" format="2">
  <advance width="401"/>
  <unicode hex="007A"/>
  <anchor x="250" y="510" name="top"/>
  <anchor x="161" y="0" name="bottom"/>
  <outline>
    <contour>
      <point x="23" y="0" type="line"/>
      <point x="315" y="0" type="line"/>
      <point x="341" y="114" type="line"/>
      <point x="325" y="114" type="line"/>
      <point x="287" y="33" type="line"/>
      <point x="302" y="38" type="line"/>
      <point x="61" y="38" type="line"/>
      <point x="65" y="31" type="line"/>
      <point x="372" y="439" type="line"/>
      <point x="367" y="450" type="line"/>
      <point x="95" y="450" type="line"/>
      <point x="79" y="346" type="line"/>
      <point x="95" y="346" type="line"/>
      <point x="131" y="432" type="line"/>
      <point x="110" y="412" type="line"/>
      <point x="339" y="412" type="line"/>
      <point x="339" y="432" type="line"/>
      <point x="19" y="11" type="line"/>
    </contour>
  </outline>
</glyph>
<glyph name="braceleft" format="1">
  <advance width="250"/>
  <unicode hex="007B"/>
  <outline>
    <contour>
      <point x="160" y="-150" type="line"/>
      <point x="162" y="-137" type="line"/>
      <point x="159" y="-137" type="line" smooth="yes"/>
      <point x="99" y="-137"/>
      <point x="76" y="-102"/>
      <point x="76" y="-54" type="curve" smooth="yes"/>
      <point x="76" y="25"/>
      <point x="160" y="136"/>
      <point x="160" y="212" type="curve" smooth="yes"/>
      <point x="160" y="256"/>
      <point x="143" y="285"/>
      <point x="90" y="295" type="curve"/>
      <point x="175" y="310"/>
      <point x="194" y="374"/>
      <point x="194" y="435" type="curve" smooth="yes"/>
      <point x="194" y="481"/>
      <point x="179" y="542"/>
      <point x="179" y="594" type="curve" smooth="yes"/>
      <point x="179" y="673"/>
      <point x="218" y="727"/>
      <point x="301" y="727" type="curve" smooth="yes"/>
      <point x="307" y="727" type="line"/>
      <point x="309" y="740" type="line"/>
      <point x="308" y="740" type="line" smooth="yes"/>
      <point x="191" y="740"/>
      <point x="145" y="672"/>
      <point x="145" y="573" type="curve" smooth="yes"/>
      <point x="145" y="529"/>
      <point x="160" y="468"/>
      <point x="160" y="422" type="curve" smooth="yes"/>
      <point x="160" y="363"/>
      <point x="136" y="302"/>
      <point x="60" y="302" type="curve" smooth="yes"/>
      <point x="37" y="302" type="line"/>
      <point x="35" y="289" type="line"/>
      <point x="59" y="289" type="line" smooth="yes"/>
      <point x="109" y="289"/>
      <point x="126" y="256"/>
      <point x="126" y="221" type="curve" smooth="yes"/>
      <point x="126" y="136"/>
      <point x="42" y="41"/>
      <point x="42" y="-51" type="curve" smooth="yes"/>
      <point x="42" y="-111"/>
      <point x="79" y="-150"/>
      <point x="159" y="-150" type="curve" smooth="yes"/>
    </contour>
  </outline>
</glyph>
<glyph name="bar" format="1">
  <advance width="250.0"/>
  <unicode hex="007C"/>
  <outline>
    <contour>
      <point x="22" y="-250" type="line"/>
      <point x="52" y="-250" type="line"/>
      <point x="228" y="750" type="line"/>
      <point x="198" y="750" type="line"/>
    </contour>
  </outline>
</glyph>
<glyph name="braceright" format="1">
  <advance width="250"/>
  <unicode hex="007D"/>
  <outline>
    <contour>
      <point x="-52" y="-150" type="line"/>
      <point x="-50" y="-150" type="line" smooth="yes"/>
      <point x="67" y="-150"/>
      <point x="112" y="-81"/>
      <point x="112" y="17" type="curve" smooth="yes"/>
      <point x="112" y="61"/>
      <point x="97" y="122"/>
      <point x="97" y="168" type="curve" smooth="yes"/>
      <point x="97" y="227"/>
      <point x="121" y="288"/>
      <point x="197" y="288" type="curve" smooth="yes"/>
      <point x="220" y="288" type="line"/>
      <point x="222" y="301" type="line"/>
      <point x="198" y="301" type="line" smooth="yes"/>
      <point x="148" y="301"/>
      <point x="131" y="334"/>
      <point x="131" y="369" type="curve" smooth="yes"/>
      <point x="131" y="454"/>
      <point x="215" y="549"/>
      <point x="215" y="641" type="curve" smooth="yes"/>
      <point x="215" y="701"/>
      <point x="178" y="740"/>
      <point x="98" y="740" type="curve" smooth="yes"/>
      <point x="97" y="740" type="line"/>
      <point x="95" y="727" type="line"/>
      <point x="98" y="727" type="line" smooth="yes"/>
      <point x="158" y="727"/>
      <point x="181" y="692"/>
      <point x="181" y="644" type="curve" smooth="yes"/>
      <point x="181" y="565"/>
      <point x="97" y="454"/>
      <point x="97" y="378" type="curve" smooth="yes"/>
      <point x="97" y="334"/>
      <point x="114" y="305"/>
      <point x="167" y="295" type="curve"/>
      <point x="82" y="280"/>
      <point x="63" y="216"/>
      <point x="63" y="155" type="curve" smooth="yes"/>
      <point x="63" y="109"/>
      <point x="78" y="48"/>
      <point x="78" y="-4" type="curve" smooth="yes"/>
      <point x="78" y="-83"/>
      <point x="39" y="-137"/>
      <point x="-44" y="-137" type="curve" smooth="yes"/>
      <point x="-50" y="-137" type="line"/>
    </contour>
  </outline>
</glyph>
<glyph name="asciitilde" format="1">
  <advance width="500"/>
  <unicode hex="007E"/>
  <outline>
    <contour>
      <point x="341" y="201" type="curve" smooth="yes"/>
      <point x="409" y="201"/>
      <point x="451" y="253"/>
      <point x="467" y="343" type="curve"/>
      <point x="438" y="343" type="line"/>
      <point x="425" y="270"/>
      <point x="392" y="228"/>
      <point x="345" y="228" type="curve" smooth="yes"/>
      <point x="261" y="228"/>
      <point x="250" y="343"/>
      <point x="150" y="343" type="curve" smooth="yes"/>
      <point x="82" y="343"/>
      <point x="39" y="291"/>
      <point x="23" y="201" type="curve"/>
      <point x="52" y="201" type="line"/>
      <point x="65" y="274"/>
      <point x="98" y="316"/>
      <point x="145" y="316" type="curve" smooth="yes"/>
      <point x="231" y="316"/>
      <point x="239" y="201"/>
    </contour>
  </outline>
</glyph>
<glyph name="exclamdown" format="1">
  <advance width="214"/>
  <unicode hex="00A1"/>
  <outline>
    <contour>
      <point x="-22" y="-205" type="line"/>
      <point x="34" y="-205" type="line"/>
      <point x="97" y="255" type="line"/>
      <point x="83" y="255" type="line"/>
    </contour>
    <contour>
      <point x="112" y="367" type="curve" smooth="yes"/>
      <point x="142" y="367"/>
      <point x="162" y="396"/>
      <point x="162" y="419" type="curve" smooth="yes"/>
      <point x="162" y="443"/>
      <point x="150" y="460"/>
      <point x="123" y="460" type="curve" smooth="yes"/>
      <point x="93" y="460"/>
      <point x="73" y="431"/>
      <point x="73" y="407" type="curve" smooth="yes"/>
      <point x="73" y="384"/>
      <point x="86" y="367"/>
    </contour>
  </outline>
</glyph>
<glyph name="cent" format="2">
  <advance width="500"/>
  <unicode hex="00A2"/>
  <outline>
    <contour>
      <point x="110" y="26" type="line"/>
      <point x="139" y="26" type="line"/>
      <point x="383" y="635" type="line"/>
      <point x="354" y="635" type="line"/>
    </contour>
    <contour>
      <point x="111" y="278" type="curve" smooth="yes"/>
      <point x="111" y="429"/>
      <point x="207" y="545"/>
      <point x="317" y="545" type="curve" smooth="yes"/>
      <point x="340" y="545"/>
      <point x="361" y="539"/>
      <point x="379" y="531" type="curve"/>
      <point x="330" y="561" type="line"/>
      <point x="392" y="460" type="line"/>
      <point x="421" y="479" type="line" smooth="yes"/>
      <point x="428" y="484"/>
      <point x="430" y="489"/>
      <point x="430" y="495" type="curve" smooth="yes"/>
      <point x="430" y="524"/>
      <point x="385" y="565"/>
      <point x="321" y="565" type="curve" smooth="yes"/>
      <point x="187" y="565"/>
      <point x="65" y="424"/>
      <point x="65" y="265" type="curve" smooth="yes"/>
      <point x="65" y="167"/>
      <point x="111" y="95"/>
      <point x="209" y="95" type="curve" smooth="yes"/>
      <point x="299" y="95"/>
      <point x="367" y="167"/>
      <point x="393" y="236" type="curve"/>
      <point x="380" y="244" type="line"/>
      <point x="378" y="244" type="line"/>
      <point x="343" y="176"/>
      <point x="293" y="130"/>
      <point x="230" y="130" type="curve" smooth="yes"/>
      <point x="159" y="130"/>
      <point x="111" y="182"/>
    </contour>
  </outline>
</glyph>
<glyph name="sterling" format="2">
  <advance width="500"/>
  <unicode hex="00A3"/>
  <outline>
    <contour>
      <point x="50" y="321" type="line"/>
      <point x="383" y="321" type="line"/>
      <point x="388" y="347" type="line"/>
      <point x="55" y="347" type="line"/>
    </contour>
    <contour>
      <point x="79" y="75" type="curve" smooth="yes"/>
      <point x="33" y="20" type="line"/>
      <point x="30" y="0" type="line"/>
      <point x="381" y="0" type="line"/>
      <point x="416" y="143" type="line"/>
      <point x="400" y="143" type="line"/>
      <point x="351" y="46" type="line"/>
      <point x="70" y="46" type="line"/>
      <point x="75" y="36" type="line"/>
      <point x="110" y="75" type="line" smooth="yes"/>
      <point x="166" y="137"/>
      <point x="180" y="162"/>
      <point x="183" y="187" type="curve" smooth="yes"/>
      <point x="215" y="476" type="line" smooth="yes"/>
      <point x="225" y="571"/>
      <point x="283" y="647"/>
      <point x="378" y="647" type="curve" smooth="yes"/>
      <point x="382" y="647"/>
      <point x="392" y="646"/>
      <point x="398" y="645" type="curve"/>
      <point x="356" y="660" type="line"/>
      <point x="447" y="586" type="line"/>
      <point x="460" y="601" type="line" smooth="yes"/>
      <point x="470" y="612"/>
      <point x="475" y="622"/>
      <point x="475" y="630" type="curve" smooth="yes"/>
      <point x="475" y="648"/>
      <point x="447" y="670"/>
      <point x="397" y="670" type="curve" smooth="yes"/>
      <point x="280" y="670"/>
      <point x="179.31827265543123" y="577.0412720407874"/>
      <point x="170" y="488" type="curve" smooth="yes"/>
      <point x="141" y="222" type="line" smooth="yes"/>
      <point x="133" y="152"/>
      <point x="126" y="132"/>
    </contour>
  </outline>
</glyph>
<glyph name="currency" format="1">
  <advance width="500.0"/>
  <unicode hex="00A4"/>
  <outline>
    <contour>
      <point x="410" y="62" type="line"/>
      <point x="432" y="81" type="line"/>
      <point x="351" y="173" type="line"/>
      <point x="382" y="205"/>
      <point x="398" y="248"/>
      <point x="398" y="292" type="curve" smooth="yes"/>
      <point x="398" y="321"/>
      <point x="390" y="348"/>
      <point x="374" y="370" type="curve"/>
      <point x="477" y="461" type="line"/>
      <point x="458" y="482" type="line"/>
      <point x="356" y="391" type="line"/>
      <point x="332" y="413"/>
      <point x="299" y="426"/>
      <point x="262" y="426" type="curve" smooth="yes"/>
      <point x="225" y="426"/>
      <point x="185" y="413"/>
      <point x="158" y="391" type="curve"/>
      <point x="78" y="482" type="line"/>
      <point x="57" y="464" type="line"/>
      <point x="136" y="374" type="line"/>
      <point x="105" y="340"/>
      <point x="90" y="297"/>
      <point x="90" y="255" type="curve" smooth="yes"/>
      <point x="90" y="224"/>
      <point x="98" y="197"/>
      <point x="113" y="174" type="curve"/>
      <point x="11" y="83" type="line"/>
      <point x="29" y="62" type="line"/>
      <point x="131" y="153" type="line"/>
      <point x="155" y="131"/>
      <point x="187" y="118"/>
      <point x="224" y="118" type="curve" smooth="yes"/>
      <point x="262" y="118"/>
      <point x="298" y="131"/>
      <point x="329" y="154" type="curve"/>
    </contour>
    <contour>
      <point x="228" y="144" type="curve" smooth="yes"/>
      <point x="163" y="144"/>
      <point x="118" y="190"/>
      <point x="118" y="255" type="curve" smooth="yes"/>
      <point x="118" y="340"/>
      <point x="178" y="400"/>
      <point x="259" y="400" type="curve" smooth="yes"/>
      <point x="323" y="400"/>
      <point x="367" y="354"/>
      <point x="367" y="290" type="curve" smooth="yes"/>
      <point x="367" y="212"/>
      <point x="312" y="144"/>
    </contour>
  </outline>
</glyph>
<glyph name="yen" format="1">
  <advance width="500"/>
  <unicode hex="00A5"/>
  <outline>
    <contour>
      <point x="84" y="0" type="line"/>
      <point x="299" y="0" type="line"/>
      <point x="302" y="14" type="line"/>
      <point x="215" y="31" type="line"/>
      <point x="285" y="426" type="line"/>
      <point x="253" y="372" type="line"/>
      <point x="488" y="639" type="line"/>
      <point x="469" y="628" type="line"/>
      <point x="526" y="646" type="line"/>
      <point x="528" y="660" type="line"/>
      <point x="378" y="660" type="line"/>
      <point x="376" y="646" type="line"/>
      <point x="441" y="631" type="line"/>
      <point x="440" y="628" type="line"/>
      <point x="259" y="410" type="line"/>
      <point x="275" y="410" type="line"/>
      <point x="160" y="630" type="line"/>
      <point x="161" y="632" type="line"/>
      <point x="226" y="646" type="line"/>
      <point x="228" y="660" type="line"/>
      <point x="67" y="660" type="line"/>
      <point x="65" y="646" type="line"/>
      <point x="142" y="624" type="line"/>
      <point x="93" y="646" type="line"/>
      <point x="254" y="360" type="line"/>
      <point x="236" y="426" type="line"/>
      <point x="166" y="31" type="line"/>
      <point x="87" y="14" type="line"/>
    </contour>
    <contour>
      <point x="74" y="245" type="line"/>
      <point x="389" y="245" type="line"/>
      <point x="394" y="271" type="line"/>
      <point x="79" y="271" type="line"/>
    </contour>
    <contour>
      <point x="99" y="395" type="line"/>
      <point x="413" y="395" type="line"/>
      <point x="418" y="421" type="line"/>
      <point x="104" y="421" type="line"/>
    </contour>
  </outline>
</glyph>
<glyph name="brokenbar" format="1">
  <advance width="250.0"/>
  <unicode hex="00A6"/>
  <outline>
    <contour>
      <point x="128" y="350" type="line"/>
      <point x="158" y="350" type="line"/>
      <point x="228" y="750" type="line"/>
      <point x="198" y="750" type="line"/>
    </contour>
    <contour>
      <point x="22" y="-250" type="line"/>
      <point x="52" y="-250" type="line"/>
      <point x="123" y="150" type="line"/>
      <point x="93" y="150" type="line"/>
    </contour>
  </outline>
</glyph>
<glyph name="section" format="2">
  <advance width="437"/>
  <unicode hex="00A7"/>
  <outline>
    <contour>
      <point x="273" y="409" type="curve" smooth="yes"/>
      <point x="186" y="437"/>
      <point x="152" y="468"/>
      <point x="152" y="524" type="curve" smooth="yes"/>
      <point x="152" y="589"/>
      <point x="217" y="649"/>
      <point x="292" y="649" type="curve" smooth="yes"/>
      <point x="308" y="649"/>
      <point x="315" y="649"/>
      <point x="321" y="648" type="curve"/>
      <point x="273" y="658" type="line"/>
      <point x="379" y="586" type="line"/>
      <point x="395" y="609" type="line" smooth="yes"/>
      <point x="399" y="615"/>
      <point x="400" y="618"/>
      <point x="400" y="623" type="curve" smooth="yes"/>
      <point x="400" y="645"/>
      <point x="365" y="669"/>
      <point x="305" y="669" type="curve" smooth="yes"/>
      <point x="190" y="669"/>
      <point x="114" y="589"/>
      <point x="114" y="502" type="curve" smooth="yes"/>
      <point x="114" y="443"/>
      <point x="142" y="409"/>
      <point x="232" y="381" type="curve" smooth="yes"/>
      <point x="322" y="353"/>
      <point x="347" y="323"/>
      <point x="347" y="274" type="curve" smooth="yes"/>
      <point x="347" y="219"/>
      <point x="298" y="167"/>
      <point x="204" y="160" type="curve"/>
      <point x="199" y="143" type="line"/>
      <point x="325" y="153"/>
      <point x="385" y="214"/>
      <point x="385" y="293" type="curve" smooth="yes"/>
      <point x="385" y="346"/>
      <point x="360" y="381"/>
    </contour>
    <contour>
      <point x="143" y="148" type="curve" smooth="yes"/>
      <point x="236" y="122"/>
      <point x="266" y="86"/>
      <point x="266" y="33" type="curve" smooth="yes"/>
      <point x="266" y="-39"/>
      <point x="202" y="-98"/>
      <point x="110" y="-98" type="curve" smooth="yes"/>
      <point x="104" y="-98"/>
      <point x="98" y="-98"/>
      <point x="92" y="-97" type="curve"/>
      <point x="139" y="-111" type="line"/>
      <point x="31" y="-38" type="line"/>
      <point x="17" y="-58" type="line" smooth="yes"/>
      <point x="13" y="-64"/>
      <point x="11" y="-69"/>
      <point x="11" y="-74" type="curve" smooth="yes"/>
      <point x="11" y="-99"/>
      <point x="53" y="-118"/>
      <point x="109" y="-118" type="curve" smooth="yes"/>
      <point x="226" y="-118"/>
      <point x="305" y="-38"/>
      <point x="305" y="56" type="curve" smooth="yes"/>
      <point x="305" y="112"/>
      <point x="280" y="150"/>
      <point x="188" y="175" type="curve" smooth="yes"/>
      <point x="96" y="200"/>
      <point x="64" y="238"/>
      <point x="64" y="285" type="curve" smooth="yes"/>
      <point x="64" y="339"/>
      <point x="114" y="389"/>
      <point x="195" y="398" type="curve"/>
      <point x="191" y="417" type="line"/>
      <point x="84" y="397"/>
      <point x="25" y="341"/>
      <point x="25" y="265" type="curve" smooth="yes"/>
      <point x="25" y="211"/>
      <point x="50" y="174"/>
    </contour>
  </outline>
</glyph>
<glyph name="copyright" format="1">
  <advance width="806"/>
  <unicode hex="00A9"/>
  <outline>
    <contour>
      <point x="361" y="-10" type="curve" smooth="yes"/>
      <point x="586" y="-10"/>
      <point x="740" y="170"/>
      <point x="740" y="374" type="curve" smooth="yes"/>
      <point x="740" y="543"/>
      <point x="618" y="670"/>
      <point x="444" y="670" type="curve" smooth="yes"/>
      <point x="219" y="670"/>
      <point x="66" y="494"/>
      <point x="66" y="287" type="curve" smooth="yes"/>
      <point x="66" y="117"/>
      <point x="188" y="-10"/>
    </contour>
    <contour>
      <point x="363" y="14" type="curve" smooth="yes"/>
      <point x="205" y="14"/>
      <point x="94" y="132"/>
      <point x="94" y="291" type="curve" smooth="yes"/>
      <point x="94" y="490"/>
      <point x="243" y="646"/>
      <point x="442" y="646" type="curve" smooth="yes"/>
      <point x="609" y="646"/>
      <point x="712" y="527"/>
      <point x="712" y="370" type="curve" smooth="yes"/>
      <point x="712" y="170"/>
      <point x="563" y="14"/>
    </contour>
    <contour>
      <point x="385" y="129" type="curve" smooth="yes"/>
      <point x="435" y="129"/>
      <point x="476" y="142"/>
      <point x="511" y="159" type="curve"/>
      <point x="533" y="249" type="line"/>
      <point x="516" y="249" type="line"/>
      <point x="463" y="165" type="line"/>
      <point x="493" y="186" type="line"/>
      <point x="465" y="168"/>
      <point x="438" y="152"/>
      <point x="398" y="152" type="curve" smooth="yes"/>
      <point x="313" y="152"/>
      <point x="267" y="211"/>
      <point x="267" y="299" type="curve" smooth="yes"/>
      <point x="267" y="408"/>
      <point x="340" y="515"/>
      <point x="446" y="515" type="curve" smooth="yes"/>
      <point x="484" y="515"/>
      <point x="510" y="500"/>
      <point x="543" y="469" type="curve"/>
      <point x="522" y="503" type="line"/>
      <point x="542" y="417" type="line"/>
      <point x="557" y="417" type="line"/>
      <point x="570" y="511" type="line"/>
      <point x="534" y="530"/>
      <point x="507" y="540"/>
      <point x="456" y="540" type="curve" smooth="yes"/>
      <point x="322" y="540"/>
      <point x="223" y="421"/>
      <point x="223" y="292" type="curve" smooth="yes"/>
      <point x="223" y="196"/>
      <point x="286" y="129"/>
    </contour>
  </outline>
</glyph>
<glyph name="ordfeminine" format="1">
  <advance width="380"/>
  <unicode hex="00AA"/>
  <outline>
    <contour>
      <point x="156" y="417" type="curve" smooth="yes"/>
      <point x="188" y="417"/>
      <point x="213" y="436"/>
      <point x="252" y="480" type="curve"/>
      <point x="265" y="480" type="line"/>
      <point x="265" y="508" type="line"/>
      <point x="236" y="476"/>
      <point x="204" y="444"/>
      <point x="176" y="444" type="curve" smooth="yes"/>
      <point x="155" y="444"/>
      <point x="142" y="460"/>
      <point x="142" y="493" type="curve" smooth="yes"/>
      <point x="142" y="568"/>
      <point x="175" y="651"/>
      <point x="236" y="651" type="curve" smooth="yes"/>
      <point x="259" y="651"/>
      <point x="274" y="642"/>
      <point x="287" y="629" type="curve"/>
      <point x="282" y="643" type="line"/>
      <point x="253" y="474" type="line" smooth="yes"/>
      <point x="245" y="430"/>
      <point x="262" y="417"/>
      <point x="279" y="417" type="curve" smooth="yes"/>
      <point x="305" y="417"/>
      <point x="330" y="436"/>
      <point x="349" y="483" type="curve"/>
      <point x="339" y="487" type="line"/>
      <point x="327" y="459"/>
      <point x="312" y="443"/>
      <point x="298" y="443" type="curve" smooth="yes"/>
      <point x="290" y="443"/>
      <point x="286" y="453"/>
      <point x="292" y="487" type="curve" smooth="yes"/>
      <point x="323" y="665" type="line"/>
      <point x="320" y="665" type="line"/>
      <point x="293" y="651" type="line"/>
      <point x="300" y="649" type="line"/>
      <point x="287" y="659"/>
      <point x="271" y="670"/>
      <point x="247" y="670" type="curve" smooth="yes"/>
      <point x="173" y="670"/>
      <point x="105" y="567"/>
      <point x="105" y="486" type="curve" smooth="yes"/>
      <point x="105" y="442"/>
      <point x="128" y="417"/>
    </contour>
    <contour>
      <point x="80" y="304" type="line"/>
      <point x="294" y="304" type="line"/>
      <point x="299" y="332" type="line"/>
      <point x="85" y="332" type="line"/>
    </contour>
  </outline>
</glyph>
<glyph name="logicalnot" format="1">
  <advance width="500"/>
  <unicode hex="00AC"/>
  <outline>
    <contour>
      <point x="379" y="62" type="line"/>
      <point x="409" y="62" type="line"/>
      <point x="448" y="285" type="line"/>
      <point x="47" y="285" type="line"/>
      <point x="42" y="259" type="line"/>
      <point x="413" y="259" type="line"/>
    </contour>
  </outline>
</glyph>
<glyph name="registered" format="1">
  <advance width="500"/>
  <unicode hex="00AE"/>
  <outline>
    <contour>
      <point x="243" y="238" type="curve" smooth="yes"/>
      <point x="386" y="238"/>
      <point x="484" y="353"/>
      <point x="484" y="482" type="curve" smooth="yes"/>
      <point x="484" y="589"/>
      <point x="406" y="670"/>
      <point x="296" y="670" type="curve" smooth="yes"/>
      <point x="153" y="670"/>
      <point x="56" y="558"/>
      <point x="56" y="427" type="curve" smooth="yes"/>
      <point x="56" y="319"/>
      <point x="133" y="238"/>
    </contour>
    <contour>
      <point x="245" y="258" type="curve" smooth="yes"/>
      <point x="148" y="258"/>
      <point x="80" y="331"/>
      <point x="80" y="430" type="curve" smooth="yes"/>
      <point x="80" y="554"/>
      <point x="169" y="650"/>
      <point x="290" y="650" type="curve" smooth="yes"/>
      <point x="395" y="650"/>
      <point x="460" y="576"/>
      <point x="460" y="479" type="curve" smooth="yes"/>
      <point x="460" y="355"/>
      <point x="369" y="258"/>
    </contour>
    <contour>
      <point x="156" y="329" type="line"/>
      <point x="237" y="329" type="line"/>
      <point x="238" y="338" type="line"/>
      <point x="213" y="345" type="line"/>
      <point x="255" y="584" type="line"/>
      <point x="200" y="584" type="line"/>
      <point x="198" y="576" type="line"/>
      <point x="224" y="569" type="line"/>
      <point x="185" y="345" type="line"/>
      <point x="157" y="338" type="line"/>
    </contour>
    <contour>
      <point x="342" y="530" type="curve" smooth="yes"/>
      <point x="342" y="564"/>
      <point x="317" y="584"/>
      <point x="273" y="584" type="curve" smooth="yes"/>
      <point x="240" y="584" type="line"/>
      <point x="237" y="569" type="line"/>
      <point x="264" y="569" type="line" smooth="yes"/>
      <point x="298" y="569"/>
      <point x="313" y="552"/>
      <point x="313" y="526" type="curve" smooth="yes"/>
      <point x="313" y="497"/>
      <point x="293" y="466"/>
      <point x="251" y="466" type="curve"/>
      <point x="221" y="466" type="line"/>
      <point x="219" y="451" type="line"/>
      <point x="265" y="451" type="line"/>
      <point x="265" y="453" type="line"/>
      <point x="321" y="460"/>
      <point x="342" y="494"/>
    </contour>
    <contour>
      <point x="312" y="329" type="line"/>
      <point x="356" y="329" type="line"/>
      <point x="358" y="338" type="line"/>
      <point x="337" y="343" type="line"/>
      <point x="281" y="461" type="line"/>
      <point x="252" y="461" type="line"/>
    </contour>
  </outline>
</glyph>
<glyph name="degree" format="1">
  <advance width="500"/>
  <unicode hex="00B0"/>
  <outline>
    <contour>
      <point x="285" y="410" type="curve" smooth="yes"/>
      <point x="360" y="410"/>
      <point x="415" y="470"/>
      <point x="415" y="540" type="curve" smooth="yes"/>
      <point x="415" y="610"/>
      <point x="360" y="670"/>
      <point x="285" y="670" type="curve" smooth="yes"/>
      <point x="210" y="670"/>
      <point x="155" y="610"/>
      <point x="155" y="540" type="curve" smooth="yes"/>
      <point x="155" y="470"/>
      <point x="210" y="410"/>
    </contour>
    <contour>
      <point x="285" y="439" type="curve" smooth="yes"/>
      <point x="231" y="439"/>
      <point x="188" y="478"/>
      <point x="188" y="540" type="curve" smooth="yes"/>
      <point x="188" y="602"/>
      <point x="231" y="641"/>
      <point x="285" y="641" type="curve" smooth="yes"/>
      <point x="339" y="641"/>
      <point x="382" y="602"/>
      <point x="382" y="540" type="curve" smooth="yes"/>
      <point x="382" y="478"/>
      <point x="339" y="439"/>
    </contour>
  </outline>
</glyph>
<glyph name="plusminus" format="1">
  <advance width="500"/>
  <unicode hex="00B1"/>
  <outline>
    <contour>
      <point x="410" y="73" type="line"/>
      <point x="415" y="101" type="line"/>
      <point x="14" y="101" type="line"/>
      <point x="9" y="73" type="line"/>
    </contour>
    <contour>
      <point x="450" y="298" type="line"/>
      <point x="455" y="326" type="line"/>
      <point x="54" y="326" type="line"/>
      <point x="49" y="298" type="line"/>
    </contour>
    <contour>
      <point x="266" y="482" type="line"/>
      <point x="208" y="152" type="line"/>
      <point x="239" y="152" type="line"/>
      <point x="297" y="482" type="line"/>
    </contour>
  </outline>
</glyph>
<glyph name="paragraph" format="1">
  <advance width="429"/>
  <unicode hex="00B6"/>
  <outline>
    <contour>
      <point x="143" y="-110" type="line"/>
      <point x="173" y="-110" type="line"/>
      <point x="308" y="660" type="line"/>
      <point x="242" y="660" type="line" smooth="yes"/>
      <point x="130" y="660"/>
      <point x="42" y="593"/>
      <point x="42" y="491" type="curve" smooth="yes"/>
      <point x="42" y="414"/>
      <point x="102" y="359"/>
      <point x="192" y="359" type="curve" smooth="yes"/>
      <point x="225" y="359" type="line"/>
    </contour>
    <contour>
      <point x="237" y="-110" type="line"/>
      <point x="267" y="-110" type="line"/>
      <point x="397" y="629" type="line"/>
      <point x="469" y="646" type="line"/>
      <point x="472" y="660" type="line"/>
      <point x="372" y="660" type="line"/>
    </contour>
  </outline>
</glyph>
<glyph name="periodcentered" format="1">
  <advance width="250"/>
  <unicode hex="00B7"/>
  <outline>
    <contour>
      <point x="119" y="229" type="curve" smooth="yes"/>
      <point x="147" y="229"/>
      <point x="164" y="252"/>
      <point x="164" y="277" type="curve" smooth="yes"/>
      <point x="164" y="298"/>
      <point x="153" y="314"/>
      <point x="129" y="314" type="curve" smooth="yes"/>
      <point x="102" y="314"/>
      <point x="84" y="291"/>
      <point x="84" y="266" type="curve" smooth="yes"/>
      <point x="84" y="244"/>
      <point x="95" y="229"/>
    </contour>
  </outline>
</glyph>
<glyph name="ordmasculine" format="1">
  <advance width="377"/>
  <unicode hex="00BA"/>
  <outline>
    <contour>
      <point x="187" y="417" type="curve" smooth="yes"/>
      <point x="263" y="417"/>
      <point x="317" y="499"/>
      <point x="317" y="574" type="curve" smooth="yes"/>
      <point x="317" y="631"/>
      <point x="285" y="670"/>
      <point x="231" y="670" type="curve" smooth="yes"/>
      <point x="160" y="670"/>
      <point x="101" y="600"/>
      <point x="101" y="512" type="curve" smooth="yes"/>
      <point x="101" y="457"/>
      <point x="133" y="417"/>
    </contour>
    <contour>
      <point x="195" y="431" type="curve" smooth="yes"/>
      <point x="156" y="431"/>
      <point x="138" y="470"/>
      <point x="138" y="518" type="curve" smooth="yes"/>
      <point x="138" y="591"/>
      <point x="171" y="657"/>
      <point x="223" y="657" type="curve" smooth="yes"/>
      <point x="263" y="657"/>
      <point x="279" y="618"/>
      <point x="279" y="572" type="curve" smooth="yes"/>
      <point x="279" y="497"/>
      <point x="246" y="431"/>
    </contour>
    <contour>
      <point x="60" y="304" type="line"/>
      <point x="274" y="304" type="line"/>
      <point x="279" y="332" type="line"/>
      <point x="65" y="332" type="line"/>
    </contour>
  </outline>
</glyph>
<glyph name="questiondown" format="2">
  <advance width="392"/>
  <unicode hex="00BF"/>
  <outline>
    <contour>
      <point x="237" y="461" type="curve" smooth="yes"/>
      <point x="207" y="461"/>
      <point x="187" y="432"/>
      <point x="187" y="408" type="curve" smooth="yes"/>
      <point x="187" y="385"/>
      <point x="200" y="368"/>
      <point x="226" y="368" type="curve" smooth="yes"/>
      <point x="256" y="368"/>
      <point x="276" y="397"/>
      <point x="276" y="420" type="curve" smooth="yes"/>
      <point x="276" y="444"/>
      <point x="264" y="461"/>
    </contour>
    <contour>
      <point x="185" y="261" type="curve"/>
      <point x="174" y="251" type="line"/>
      <point x="200" y="222"/>
      <point x="214" y="200"/>
      <point x="214" y="166" type="curve" smooth="yes"/>
      <point x="214" y="122"/>
      <point x="192" y="97"/>
      <point x="104" y="66" type="curve" smooth="yes"/>
      <point x="16" y="35"/>
      <point x="-6" y="0"/>
      <point x="-6" y="-48" type="curve" smooth="yes"/>
      <point x="-6" y="-130"/>
      <point x="102" y="-214"/>
      <point x="205" y="-214" type="curve" smooth="yes"/>
      <point x="244" y="-214"/>
      <point x="261" y="-204"/>
      <point x="261" y="-182" type="curve" smooth="yes"/>
      <point x="261" y="-178"/>
      <point x="260" y="-172"/>
      <point x="258" y="-164" type="curve" smooth="yes"/>
      <point x="254" y="-148" type="line"/>
      <point x="104" y="-179" type="line"/>
      <point x="159" y="-186" type="line"/>
      <point x="68" y="-161"/>
      <point x="32" y="-117"/>
      <point x="32" y="-64" type="curve" smooth="yes"/>
      <point x="32" y="-21"/>
      <point x="54" y="8"/>
      <point x="143" y="37" type="curve" smooth="yes"/>
      <point x="232" y="66"/>
      <point x="254" y="100"/>
      <point x="254" y="150" type="curve" smooth="yes"/>
      <point x="254" y="181"/>
      <point x="238" y="213"/>
    </contour>
  </outline>
</glyph>
<glyph name="AE" format="1">
  <advance width="875"/>
  <unicode hex="00C6"/>
  <outline>
    <contour>
      <point x="-15" y="0" type="line"/>
      <point x="152" y="0" type="line"/>
      <point x="155" y="15" type="line"/>
      <point x="64" y="30" type="line"/>
      <point x="65" y="13" type="line"/>
      <point x="523" y="632" type="line"/>
      <point x="516" y="632" type="line"/>
      <point x="409" y="32" type="line"/>
      <point x="338" y="15" type="line"/>
      <point x="334" y="0" type="line"/>
      <point x="459" y="0" type="line"/>
      <point x="575" y="660" type="line"/>
      <point x="507" y="660" type="line"/>
      <point x="27" y="19" type="line"/>
      <point x="56" y="35" type="line"/>
      <point x="-11" y="15" type="line"/>
    </contour>
    <contour>
      <point x="235" y="255" type="line"/>
      <point x="494" y="255" type="line"/>
      <point x="500" y="285" type="line"/>
      <point x="241" y="285" type="line"/>
    </contour>
    <contour>
      <point x="810" y="498" type="line"/>
      <point x="825" y="498" type="line"/>
      <point x="853" y="660" type="line"/>
      <point x="546" y="660" type="line"/>
      <point x="540" y="630" type="line"/>
      <point x="797" y="630" type="line"/>
    </contour>
    <contour>
      <point x="688" y="245" type="line"/>
      <point x="706" y="245" type="line"/>
      <point x="740" y="439" type="line"/>
      <point x="722" y="439" type="line"/>
      <point x="685" y="356" type="line"/>
      <point x="493" y="356" type="line"/>
      <point x="488" y="326" type="line"/>
      <point x="680" y="326" type="line"/>
    </contour>
    <contour>
      <point x="772" y="0" type="line"/>
      <point x="802" y="172" type="line"/>
      <point x="787" y="172" type="line"/>
      <point x="725" y="30" type="line"/>
      <point x="436" y="30" type="line"/>
      <point x="430" y="0" type="line"/>
    </contour>
    <contour>
      <point x="564" y="710" type="move" name="top"/>
    </contour>
  </outline>
</glyph>
<glyph name="Ccedilla" format="1">
  <advance width="663"/>
  <unicode hex="00C7"/>
  <outline>
    <contour>
      <point x="324" y="-10" type="curve" smooth="yes"/>
      <point x="415" y="-10"/>
      <point x="465" y="9"/>
      <point x="517" y="39" type="curve"/>
      <point x="548" y="182" type="line"/>
      <point x="533" y="182" type="line"/>
      <point x="464" y="44" type="line"/>
      <point x="429" y="24"/>
      <point x="391" y="14"/>
      <point x="341" y="14" type="curve" smooth="yes"/>
      <point x="220" y="14"/>
      <point x="116" y="124"/>
      <point x="116" y="269" type="curve" smooth="yes"/>
      <point x="116" y="470"/>
      <point x="219" y="639"/>
      <point x="409" y="639" type="curve" smooth="yes"/>
      <point x="466" y="639"/>
      <point x="510" y="626"/>
      <point x="549" y="595" type="curve"/>
      <point x="567" y="475" type="line"/>
      <point x="582" y="475" type="line"/>
      <point x="603" y="621" type="line"/>
      <point x="559" y="648"/>
      <point x="518" y="670"/>
      <point x="430" y="670" type="curve" smooth="yes"/>
      <point x="214" y="670"/>
      <point x="60" y="469"/>
      <point x="60" y="260" type="curve" smooth="yes"/>
      <point x="60" y="95"/>
      <point x="171" y="-10"/>
    </contour>
    <contour>
      <point x="293" y="-240" type="curve" smooth="yes"/>
      <point x="350" y="-240"/>
      <point x="396" y="-207"/>
      <point x="396" y="-156" type="curve" smooth="yes"/>
      <point x="396" y="-107"/>
      <point x="357" y="-82"/>
      <point x="289" y="-68" type="curve"/>
      <point x="287" y="-83" type="line"/>
      <point x="346" y="10" type="line"/>
      <point x="327" y="10" type="line"/>
      <point x="260" y="-95" type="line"/>
      <point x="338" y="-109"/>
      <point x="364" y="-127"/>
      <point x="364" y="-167" type="curve" smooth="yes"/>
      <point x="364" y="-205"/>
      <point x="334" y="-226"/>
      <point x="292" y="-226" type="curve" smooth="yes"/>
      <point x="271" y="-226"/>
      <point x="252" y="-222"/>
      <point x="233" y="-210" type="curve"/>
      <point x="230" y="-210" type="line"/>
      <point x="228" y="-220" type="line"/>
      <point x="242" y="-233"/>
      <point x="269" y="-240"/>
    </contour>
  </outline>
</glyph>
<glyph name="multiply" format="1">
  <advance width="500"/>
  <unicode hex="00D7"/>
  <outline>
    <contour>
      <point x="51" y="94" type="line"/>
      <point x="448" y="429" type="line"/>
      <point x="429" y="451" type="line"/>
      <point x="32" y="115" type="line"/>
    </contour>
    <contour>
      <point x="90" y="431" type="line"/>
      <point x="366" y="93" type="line"/>
      <point x="390" y="113" type="line"/>
      <point x="114" y="451" type="line"/>
    </contour>
  </outline>
</glyph>
<glyph name="Thorn" format="1">
  <advance width="539"/>
  <unicode hex="00DE"/>
  <outline>
    <contour>
      <point x="201" y="500" type="line"/>
      <point x="274" y="500" type="line" smooth="yes"/>
      <point x="366" y="500"/>
      <point x="432" y="454"/>
      <point x="432" y="367" type="curve" smooth="yes"/>
      <point x="432" y="263"/>
      <point x="370" y="192"/>
      <point x="239" y="192" type="curve" smooth="yes"/>
      <point x="147" y="192" type="line"/>
      <point x="141" y="163" type="line"/>
      <point x="248" y="163" type="line" smooth="yes"/>
      <point x="394" y="163"/>
      <point x="487" y="258"/>
      <point x="487" y="371" type="curve" smooth="yes"/>
      <point x="487" y="477"/>
      <point x="403" y="529"/>
      <point x="272" y="529" type="curve" smooth="yes"/>
      <point x="206" y="529" type="line"/>
    </contour>
    <contour>
      <point x="321" y="660" type="line"/>
      <point x="126" y="660" type="line"/>
      <point x="123" y="646" type="line"/>
      <point x="191" y="629" type="line"/>
      <point x="85" y="33" type="line"/>
      <point x="12" y="15" type="line"/>
      <point x="10" y="0" type="line"/>
      <point x="205" y="0" type="line"/>
      <point x="207" y="15" type="line"/>
      <point x="140" y="33" type="line"/>
      <point x="246" y="629" type="line"/>
      <point x="318" y="646" type="line"/>
    </contour>
  </outline>
</glyph>
<glyph name="germandbls" format="1">
  <advance width="500"/>
  <unicode hex="00DF"/>
  <outline>
    <contour>
      <point x="46" y="421" type="line"/>
      <point x="155" y="421" type="line"/>
      <point x="160" y="450" type="line"/>
      <point x="46" y="450" type="line"/>
    </contour>
    <contour>
      <point x="312" y="13" type="curve" smooth="yes"/>
      <point x="274" y="13"/>
      <point x="244" y="29"/>
      <point x="223" y="63" type="curve" smooth="yes"/>
      <point x="213" y="80" type="line"/>
      <point x="208" y="80" type="line"/>
      <point x="194" y="68" type="line" smooth="yes"/>
      <point x="188" y="62"/>
      <point x="186" y="57"/>
      <point x="185" y="52" type="curve" smooth="yes"/>
      <point x="186" y="45"/>
      <point x="189" y="39"/>
      <point x="196" y="30" type="curve" smooth="yes"/>
      <point x="215" y="10"/>
      <point x="246" y="-10"/>
      <point x="304" y="-10" type="curve" smooth="yes"/>
      <point x="382" y="-10"/>
      <point x="448" y="48"/>
      <point x="448" y="129" type="curve" smooth="yes"/>
      <point x="448" y="168"/>
      <point x="428" y="205"/>
      <point x="386" y="252" type="curve" smooth="yes"/>
      <point x="340" y="303"/>
      <point x="315" y="332"/>
      <point x="315" y="364" type="curve" smooth="yes"/>
      <point x="315" y="463"/>
      <point x="489" y="525"/>
      <point x="489" y="644" type="curve" smooth="yes"/>
      <point x="489" y="702"/>
      <point x="449" y="750"/>
      <point x="374" y="750" type="curve" smooth="yes"/>
      <point x="250" y="750"/>
      <point x="157" y="626"/>
      <point x="135" y="480" type="curve" smooth="yes"/>
      <point x="67" y="32" type="line" smooth="yes"/>
      <point x="42" y="-128"/>
      <point x="7" y="-198"/>
      <point x="-47" y="-198" type="curve" smooth="yes"/>
      <point x="-62" y="-198"/>
      <point x="-79" y="-198"/>
      <point x="-95" y="-189" type="curve" smooth="yes"/>
      <point x="-108" y="-182" type="line"/>
      <point x="-109" y="-182" type="line"/>
      <point x="-123" y="-212" type="line" smooth="yes"/>
      <point x="-125" y="-216"/>
      <point x="-126" y="-220"/>
      <point x="-126" y="-221" type="curve" smooth="yes"/>
      <point x="-126" y="-229"/>
      <point x="-118" y="-240"/>
      <point x="-90" y="-240" type="curve" smooth="yes"/>
      <point x="13" y="-240"/>
      <point x="95" y="-81"/>
      <point x="112" y="32" type="curve" smooth="yes"/>
      <point x="193" y="552" type="line" smooth="yes"/>
      <point x="208" y="649"/>
      <point x="265" y="718"/>
      <point x="352" y="718" type="curve" smooth="yes"/>
      <point x="411" y="718"/>
      <point x="443" y="682"/>
      <point x="443" y="633" type="curve" smooth="yes"/>
      <point x="443" y="496"/>
      <point x="272" y="456"/>
      <point x="272" y="353" type="curve" smooth="yes"/>
      <point x="272" y="305"/>
      <point x="304" y="276"/>
      <point x="334" y="241" type="curve" smooth="yes"/>
      <point x="378" y="189"/>
      <point x="408" y="162"/>
      <point x="408" y="107" type="curve" smooth="yes"/>
      <point x="408" y="47"/>
      <point x="368" y="13"/>
    </contour>
  </outline>
</glyph>
<glyph name="ae" format="1">
  <advance width="732"/>
  <unicode hex="00E6"/>
  <outline>
    <contour>
      <point x="136" y="-10" type="curve" smooth="yes"/>
      <point x="201" y="-10"/>
      <point x="254" y="39"/>
      <point x="334" y="132" type="curve"/>
      <point x="332" y="132" type="line"/>
      <point x="340" y="49"/>
      <point x="386" y="-10"/>
      <point x="474" y="-10" type="curve" smooth="yes"/>
      <point x="561" y="-10"/>
      <point x="625" y="54"/>
      <point x="651" y="124" type="curve"/>
      <point x="645" y="129" type="line"/>
      <point x="643" y="129" type="line"/>
      <point x="607" y="60"/>
      <point x="558" y="22"/>
      <point x="495" y="22" type="curve" smooth="yes"/>
      <point x="422" y="22"/>
      <point x="372" y="75"/>
      <point x="372" y="173" type="curve" smooth="yes"/>
      <point x="372" y="328"/>
      <point x="457" y="438"/>
      <point x="556" y="438" type="curve" smooth="yes"/>
      <point x="605" y="438"/>
      <point x="628" y="412"/>
      <point x="628" y="378" type="curve" smooth="yes"/>
      <point x="628" y="314"/>
      <point x="549" y="283"/>
      <point x="376" y="260" type="curve"/>
      <point x="376" y="245" type="line"/>
      <point x="588" y="272"/>
      <point x="674" y="322"/>
      <point x="674" y="382" type="curve" smooth="yes"/>
      <point x="674" y="420"/>
      <point x="642" y="460"/>
      <point x="571" y="460" type="curve" smooth="yes"/>
      <point x="521" y="460"/>
      <point x="469" y="433"/>
      <point x="426" y="390" type="curve"/>
      <point x="439" y="390" type="line"/>
      <point x="399" y="429"/>
      <point x="358" y="460"/>
      <point x="303" y="460" type="curve" smooth="yes"/>
      <point x="166" y="460"/>
      <point x="40" y="270"/>
      <point x="40" y="118" type="curve" smooth="yes"/>
      <point x="40" y="35"/>
      <point x="82" y="-10"/>
    </contour>
    <contour>
      <point x="156" y="26" type="curve" smooth="yes"/>
      <point x="114" y="26"/>
      <point x="86" y="61"/>
      <point x="86" y="126" type="curve" smooth="yes"/>
      <point x="86" y="276"/>
      <point x="163" y="434"/>
      <point x="281" y="434" type="curve" smooth="yes"/>
      <point x="330" y="434"/>
      <point x="363" y="415"/>
      <point x="413" y="368" type="curve"/>
      <point x="413" y="376" type="line"/>
      <point x="364" y="319"/>
      <point x="330" y="241"/>
      <point x="330" y="160" type="curve" smooth="yes"/>
      <point x="330" y="154"/>
      <point x="330" y="148"/>
      <point x="331" y="142" type="curve"/>
      <point x="335" y="151" type="line"/>
      <point x="277" y="86"/>
      <point x="218" y="26"/>
    </contour>
    <contour>
      <point x="342" y="147" type="line"/>
      <point x="318" y="126" type="line"/>
      <point x="338" y="126" type="line"/>
    </contour>
    <contour>
      <point x="418" y="510" type="move" name="top"/>
    </contour>
  </outline>
</glyph>
<glyph name="ccedilla" format="1">
  <advance width="417.0"/>
  <unicode hex="00E7"/>
  <outline>
    <contour>
      <point x="184" y="-10" type="curve" smooth="yes"/>
      <point x="271" y="-10"/>
      <point x="335" y="64"/>
      <point x="361" y="134" type="curve"/>
      <point x="355" y="139" type="line"/>
      <point x="353" y="139" type="line"/>
      <point x="317" y="70"/>
      <point x="268" y="22"/>
      <point x="205" y="22" type="curve" smooth="yes"/>
      <point x="132" y="22"/>
      <point x="82" y="75"/>
      <point x="82" y="173" type="curve" smooth="yes"/>
      <point x="82" y="339"/>
      <point x="167" y="438"/>
      <point x="266" y="438" type="curve" smooth="yes"/>
      <point x="314" y="438"/>
      <point x="335" y="411"/>
      <point x="356" y="372" type="curve" smooth="yes"/>
      <point x="364" y="357" type="line"/>
      <point x="368" y="357" type="line"/>
      <point x="394" y="374" type="line" smooth="yes"/>
      <point x="400" y="378"/>
      <point x="403" y="383"/>
      <point x="403" y="389" type="curve" smooth="yes"/>
      <point x="403" y="399"/>
      <point x="395" y="412"/>
      <point x="381" y="425" type="curve" smooth="yes"/>
      <point x="360" y="443"/>
      <point x="326" y="460"/>
      <point x="278" y="460" type="curve" smooth="yes"/>
      <point x="162" y="460"/>
      <point x="40" y="316"/>
      <point x="40" y="160" type="curve" smooth="yes"/>
      <point x="40" y="62"/>
      <point x="86" y="-10"/>
    </contour>
    <contour>
      <point x="151" y="-240" type="curve" smooth="yes"/>
      <point x="208" y="-240"/>
      <point x="254" y="-207"/>
      <point x="254" y="-156" type="curve" smooth="yes"/>
      <point x="254" y="-107"/>
      <point x="215" y="-82"/>
      <point x="147" y="-68" type="curve"/>
      <point x="145" y="-83" type="line"/>
      <point x="204" y="10" type="line"/>
      <point x="185" y="10" type="line"/>
      <point x="118" y="-95" type="line"/>
      <point x="196" y="-109"/>
      <point x="222" y="-127"/>
      <point x="222" y="-167" type="curve" smooth="yes"/>
      <point x="222" y="-205"/>
      <point x="192" y="-226"/>
      <point x="150" y="-226" type="curve" smooth="yes"/>
      <point x="129" y="-226"/>
      <point x="110" y="-222"/>
      <point x="91" y="-210" type="curve"/>
      <point x="88" y="-210" type="line"/>
      <point x="86" y="-220" type="line"/>
      <point x="100" y="-233"/>
      <point x="127" y="-240"/>
    </contour>
  </outline>
</glyph>
<glyph name="eth" format="1">
  <advance width="459.0"/>
  <unicode hex="00F0"/>
  <outline>
    <contour>
      <point x="190" y="-10" type="curve" smooth="yes"/>
      <point x="336" y="-10"/>
      <point x="439" y="143"/>
      <point x="439" y="354" type="curve" smooth="yes"/>
      <point x="439" y="538"/>
      <point x="338" y="691"/>
      <point x="161" y="750" type="curve"/>
      <point x="157" y="734" type="line"/>
      <point x="298" y="678"/>
      <point x="393" y="538"/>
      <point x="393" y="359" type="curve" smooth="yes"/>
      <point x="393" y="159"/>
      <point x="315" y="8"/>
      <point x="204" y="8" type="curve" smooth="yes"/>
      <point x="127" y="8"/>
      <point x="86" y="78"/>
      <point x="86" y="173" type="curve" smooth="yes"/>
      <point x="86" y="320"/>
      <point x="161" y="443"/>
      <point x="274" y="443" type="curve" smooth="yes"/>
      <point x="339" y="443"/>
      <point x="388" y="407"/>
      <point x="412" y="354" type="curve"/>
      <point x="405" y="423" type="line"/>
      <point x="377" y="442"/>
      <point x="341" y="460"/>
      <point x="282" y="460" type="curve" smooth="yes"/>
      <point x="139" y="460"/>
      <point x="39" y="318"/>
      <point x="39" y="170" type="curve" smooth="yes"/>
      <point x="39" y="62"/>
      <point x="96" y="-10"/>
    </contour>
    <contour>
      <point x="165" y="523" type="line"/>
      <point x="199" y="523" type="line"/>
      <point x="449" y="740" type="line"/>
      <point x="415" y="740" type="line"/>
    </contour>
  </outline>
</glyph>
<glyph name="divide" format="1">
  <advance width="500.0"/>
  <unicode hex="00F7"/>
  <outline>
    <contour>
      <point x="195" y="101" type="line"/>
      <point x="188" y="62" type="line"/>
      <point x="228" y="62" type="line"/>
      <point x="235" y="101" type="line"/>
    </contour>
    <contour>
      <point x="443" y="258" type="line"/>
      <point x="448" y="286" type="line"/>
      <point x="47" y="286" type="line"/>
      <point x="42" y="258" type="line"/>
    </contour>
    <contour>
      <point x="262" y="482" type="line"/>
      <point x="255" y="443" type="line"/>
      <point x="295" y="443" type="line"/>
      <point x="302" y="482" type="line"/>
    </contour>
  </outline>
</glyph>
<glyph name="oslash" format="1">
  <advance width="459.0"/>
  <unicode hex="00F8"/>
  <outline>
    <contour>
      <point x="188" y="-10" type="curve" smooth="yes"/>
      <point x="323" y="-10"/>
      <point x="419" y="141"/>
      <point x="419" y="282" type="curve" smooth="yes"/>
      <point x="419" y="387"/>
      <point x="364" y="460"/>
      <point x="271" y="460" type="curve" smooth="yes"/>
      <point x="147" y="460"/>
      <point x="40" y="330"/>
      <point x="40" y="166" type="curve" smooth="yes"/>
      <point x="40" y="63"/>
      <point x="95" y="-10"/>
    </contour>
    <contour>
      <point x="204" y="13" type="curve" smooth="yes"/>
      <point x="127" y="13"/>
      <point x="87" y="81"/>
      <point x="87" y="177" type="curve" smooth="yes"/>
      <point x="87" y="320"/>
      <point x="159" y="438"/>
      <point x="256" y="438" type="curve" smooth="yes"/>
      <point x="334" y="438"/>
      <point x="372" y="371"/>
      <point x="372" y="278" type="curve" smooth="yes"/>
      <point x="372" y="130"/>
      <point x="298" y="13"/>
    </contour>
    <contour>
      <point x="3" y="-10" type="line"/>
      <point x="33" y="-10" type="line"/>
      <point x="456" y="460" type="line"/>
      <point x="426" y="460" type="line"/>
    </contour>
    <contour>
      <point x="279" y="510" type="move" name="top"/>
    </contour>
  </outline>
</glyph>
<glyph name="Aogonek" format="1">
  <advance width="646"/>
  <unicode hex="0104"/>
  <outline>
    <contour>
      <point x="-15" y="0" type="line"/>
      <point x="152" y="0" type="line"/>
      <point x="155" y="15" type="line"/>
      <point x="64" y="30" type="line"/>
      <point x="65" y="13" type="line"/>
      <point x="366" y="588" type="line"/>
      <point x="360" y="588" type="line"/>
      <point x="461" y="29" type="line"/>
      <point x="470" y="32" type="line"/>
      <point x="379" y="15" type="line"/>
      <point x="375" y="0" type="line"/>
      <point x="563" y="0" type="line"/>
      <point x="566" y="15" type="line"/>
      <point x="481" y="42" type="line"/>
      <point x="520" y="18" type="line"/>
      <point x="398" y="665" type="line"/>
      <point x="379" y="665" type="line"/>
      <point x="27" y="19" type="line"/>
      <point x="56" y="36" type="line"/>
      <point x="-11" y="15" type="line"/>
    </contour>
    <contour>
      <point x="175" y="255" type="line"/>
      <point x="434" y="255" type="line"/>
      <point x="440" y="285" type="line"/>
      <point x="181" y="285" type="line"/>
    </contour>
    <contour>
      <point x="440" y="-240" type="curve" smooth="yes"/>
      <point x="474" y="-240"/>
      <point x="500" y="-226"/>
      <point x="515" y="-211" type="curve"/>
      <point x="517" y="-200" type="line"/>
      <point x="514" y="-200" type="line"/>
      <point x="498" y="-211"/>
      <point x="476" y="-217"/>
      <point x="458" y="-217" type="curve" smooth="yes"/>
      <point x="419" y="-217"/>
      <point x="396" y="-200"/>
      <point x="396" y="-161" type="curve" smooth="yes"/>
      <point x="396" y="-102"/>
      <point x="433" y="-59"/>
      <point x="506" y="7" type="curve"/>
      <point x="487" y="7" type="line"/>
      <point x="420" y="-46"/>
      <point x="359" y="-105"/>
      <point x="359" y="-167" type="curve" smooth="yes"/>
      <point x="359" y="-212"/>
      <point x="392" y="-240"/>
    </contour>
  </outline>
</glyph>
<glyph name="aogonek" format="1">
  <advance width="496"/>
  <unicode hex="0105"/>
  <outline>
    <contour>
      <point x="136" y="-10" type="curve" smooth="yes"/>
      <point x="196" y="-10"/>
      <point x="243" y="30"/>
      <point x="319" y="116" type="curve"/>
      <point x="324" y="139" type="line"/>
      <point x="271" y="79"/>
      <point x="214" y="26"/>
      <point x="156" y="26" type="curve" smooth="yes"/>
      <point x="114" y="26"/>
      <point x="86" y="61"/>
      <point x="86" y="126" type="curve" smooth="yes"/>
      <point x="86" y="276"/>
      <point x="163" y="434"/>
      <point x="281" y="434" type="curve" smooth="yes"/>
      <point x="324" y="434"/>
      <point x="348" y="418"/>
      <point x="370" y="400" type="curve"/>
      <point x="367" y="405" type="line"/>
      <point x="314" y="95" type="line" smooth="yes"/>
      <point x="300" y="14"/>
      <point x="318" y="-10"/>
      <point x="350" y="-10" type="curve" smooth="yes"/>
      <point x="357" y="-10"/>
      <point x="362" y="-10"/>
      <point x="380" y="-4" type="curve"/>
      <point x="381" y="7" type="line"/>
      <point x="314" y="-46"/>
      <point x="253" y="-105"/>
      <point x="253" y="-167" type="curve" smooth="yes"/>
      <point x="253" y="-212"/>
      <point x="286" y="-240"/>
      <point x="334" y="-240" type="curve" smooth="yes"/>
      <point x="368" y="-240"/>
      <point x="394" y="-226"/>
      <point x="409" y="-211" type="curve"/>
      <point x="411" y="-200" type="line"/>
      <point x="408" y="-200" type="line"/>
      <point x="392" y="-211"/>
      <point x="370" y="-217"/>
      <point x="352" y="-217" type="curve" smooth="yes"/>
      <point x="313" y="-217"/>
      <point x="290" y="-200"/>
      <point x="290" y="-161" type="curve" smooth="yes"/>
      <point x="290.0" y="-98.0777202073"/>
      <point x="352" y="-35"/>
      <point x="414" y="23" type="curve"/>
      <point x="435" y="46"/>
      <point x="451.312407117" y="73.7810177931"/>
      <point x="467" y="113" type="curve"/>
      <point x="453" y="118" type="line"/>
      <point x="430" y="65"/>
      <point x="402" y="36"/>
      <point x="376" y="36" type="curve" smooth="yes"/>
      <point x="355" y="36"/>
      <point x="351" y="55"/>
      <point x="362" y="119" type="curve" smooth="yes"/>
      <point x="420" y="450" type="line"/>
      <point x="413" y="450" type="line"/>
      <point x="390" y="426" type="line"/>
      <point x="402" y="421" type="line"/>
      <point x="378" y="441"/>
      <point x="337" y="460"/>
      <point x="303" y="460" type="curve" smooth="yes"/>
      <point x="166" y="460"/>
      <point x="40" y="270"/>
      <point x="40" y="118" type="curve" smooth="yes"/>
      <point x="40" y="35"/>
      <point x="82" y="-10"/>
    </contour>
    <contour>
      <point x="332" y="132" type="line"/>
      <point x="308" y="111" type="line"/>
      <point x="328" y="111" type="line"/>
    </contour>
  </outline>
</glyph>
<glyph name="dcroat" format="1">
  <advance width="498"/>
  <unicode hex="0111"/>
  <outline>
    <contour>
      <point x="285" y="553" type="line"/>
      <point x="509" y="553" type="line"/>
      <point x="513" y="575" type="line"/>
      <point x="289" y="575" type="line"/>
    </contour>
    <contour>
      <point x="136" y="-10" type="curve" smooth="yes"/>
      <point x="195" y="-10"/>
      <point x="241" y="28"/>
      <point x="315" y="111" type="curve"/>
      <point x="324" y="111" type="line"/>
      <point x="324" y="139" type="line"/>
      <point x="271" y="79"/>
      <point x="214" y="26"/>
      <point x="156" y="26" type="curve" smooth="yes"/>
      <point x="114" y="26"/>
      <point x="86" y="61"/>
      <point x="86" y="126" type="curve" smooth="yes"/>
      <point x="86" y="276"/>
      <point x="163" y="434"/>
      <point x="281" y="434" type="curve" smooth="yes"/>
      <point x="324" y="434"/>
      <point x="348" y="418"/>
      <point x="370" y="400" type="curve"/>
      <point x="367" y="405" type="line"/>
      <point x="314" y="95" type="line" smooth="yes"/>
      <point x="300" y="14"/>
      <point x="318" y="-10"/>
      <point x="350" y="-10" type="curve" smooth="yes"/>
      <point x="391" y="-10"/>
      <point x="432" y="26"/>
      <point x="467" y="113" type="curve"/>
      <point x="453" y="118" type="line"/>
      <point x="430" y="65"/>
      <point x="402" y="36"/>
      <point x="376" y="36" type="curve" smooth="yes"/>
      <point x="355" y="36"/>
      <point x="351" y="55"/>
      <point x="362" y="119" type="curve" smooth="yes"/>
      <point x="473" y="750" type="line"/>
      <point x="465" y="750" type="line"/>
      <point x="348" y="726" type="line"/>
      <point x="348" y="716" type="line"/>
      <point x="421" y="707" type="line"/>
      <point x="370" y="416" type="line"/>
      <point x="402" y="421" type="line"/>
      <point x="378" y="441"/>
      <point x="337" y="460"/>
      <point x="303" y="460" type="curve" smooth="yes"/>
      <point x="166" y="460"/>
      <point x="40" y="270"/>
      <point x="40" y="118" type="curve" smooth="yes"/>
      <point x="40" y="35"/>
      <point x="82" y="-10"/>
    </contour>
  </outline>
</glyph>
<glyph name="Eogonek" format="1">
  <advance width="551"/>
  <unicode hex="0118"/>
  <outline>
    <contour>
      <point x="10" y="0" type="line"/>
      <point x="135" y="0" type="line"/>
      <point x="251" y="660" type="line"/>
      <point x="126" y="660" type="line"/>
      <point x="122" y="645" type="line"/>
      <point x="191" y="628" type="line"/>
      <point x="85" y="32" type="line"/>
      <point x="14" y="15" type="line"/>
    </contour>
    <contour>
      <point x="486" y="498" type="line"/>
      <point x="501" y="498" type="line"/>
      <point x="529" y="660" type="line"/>
      <point x="222" y="660" type="line"/>
      <point x="216" y="630" type="line"/>
      <point x="473" y="630" type="line"/>
    </contour>
    <contour>
      <point x="364" y="245" type="line"/>
      <point x="382" y="245" type="line"/>
      <point x="416" y="439" type="line"/>
      <point x="398" y="439" type="line"/>
      <point x="361" y="356" type="line"/>
      <point x="169" y="356" type="line"/>
      <point x="164" y="326" type="line"/>
      <point x="356" y="326" type="line"/>
    </contour>
    <contour>
      <point x="448" y="0" type="line"/>
      <point x="478" y="172" type="line"/>
      <point x="463" y="172" type="line"/>
      <point x="401" y="30" type="line"/>
      <point x="112" y="30" type="line"/>
      <point x="106" y="0" type="line"/>
    </contour>
    <contour>
      <point x="338" y="-240" type="curve" smooth="yes"/>
      <point x="372" y="-240"/>
      <point x="398" y="-226"/>
      <point x="413" y="-211" type="curve"/>
      <point x="415" y="-200" type="line"/>
      <point x="412" y="-200" type="line"/>
      <point x="396" y="-211"/>
      <point x="374" y="-217"/>
      <point x="356" y="-217" type="curve" smooth="yes"/>
      <point x="317" y="-217"/>
      <point x="294" y="-200"/>
      <point x="294" y="-161" type="curve" smooth="yes"/>
      <point x="294" y="-102"/>
      <point x="331" y="-59"/>
      <point x="404" y="7" type="curve"/>
      <point x="385" y="7" type="line"/>
      <point x="318" y="-46"/>
      <point x="257" y="-105"/>
      <point x="257" y="-167" type="curve" smooth="yes"/>
      <point x="257" y="-212"/>
      <point x="290" y="-240"/>
    </contour>
  </outline>
</glyph>
<glyph name="eogonek" format="1">
  <advance width="415.0"/>
  <unicode hex="0119"/>
  <outline>
    <contour>
      <point x="184" y="-10" type="curve" smooth="yes"/>
      <point x="203" y="-10"/>
      <point x="224" y="-8"/>
      <point x="265" y="10" type="curve"/>
      <point x="260" y="18" type="line"/>
      <point x="175" y="-52"/>
      <point x="120" y="-108"/>
      <point x="120" y="-167" type="curve" smooth="yes"/>
      <point x="120" y="-212"/>
      <point x="153" y="-240"/>
      <point x="201" y="-240" type="curve" smooth="yes"/>
      <point x="235" y="-240"/>
      <point x="261" y="-226"/>
      <point x="276" y="-211" type="curve"/>
      <point x="278" y="-200" type="line"/>
      <point x="275" y="-200" type="line"/>
      <point x="259" y="-211"/>
      <point x="237" y="-217"/>
      <point x="219" y="-217" type="curve" smooth="yes"/>
      <point x="180" y="-217"/>
      <point x="157" y="-200"/>
      <point x="157" y="-161" type="curve" smooth="yes"/>
      <point x="157" y="-97"/>
      <point x="202" y="-52"/>
      <point x="284" y="22" type="curve"/>
      <point x="320" y="47"/>
      <point x="346" y="85"/>
      <point x="361" y="124" type="curve"/>
      <point x="355" y="129" type="line"/>
      <point x="353" y="129" type="line"/>
      <point x="317" y="60"/>
      <point x="268" y="22"/>
      <point x="205" y="22" type="curve" smooth="yes"/>
      <point x="132" y="22"/>
      <point x="82" y="75"/>
      <point x="82" y="173" type="curve" smooth="yes"/>
      <point x="82" y="328"/>
      <point x="167" y="438"/>
      <point x="266" y="438" type="curve" smooth="yes"/>
      <point x="315" y="438"/>
      <point x="338" y="412"/>
      <point x="338" y="378" type="curve" smooth="yes"/>
      <point x="338" y="314"/>
      <point x="259" y="283"/>
      <point x="86" y="260" type="curve"/>
      <point x="86" y="245" type="line"/>
      <point x="298" y="272"/>
      <point x="384" y="322"/>
      <point x="384" y="382" type="curve" smooth="yes"/>
      <point x="384" y="420"/>
      <point x="352" y="460"/>
      <point x="281" y="460" type="curve" smooth="yes"/>
      <point x="165" y="460"/>
      <point x="40" y="316"/>
      <point x="40" y="160" type="curve" smooth="yes"/>
      <point x="40" y="62"/>
      <point x="86" y="-10"/>
    </contour>
  </outline>
</glyph>
<glyph name="Iogonek" format="1">
  <advance width="331"/>
  <unicode hex="012E"/>
  <outline>
    <contour>
      <point x="10" y="0" type="line"/>
      <point x="205" y="0" type="line"/>
      <point x="207" y="15" type="line"/>
      <point x="140" y="33" type="line"/>
      <point x="246" y="629" type="line"/>
      <point x="318" y="646" type="line"/>
      <point x="321" y="660" type="line"/>
      <point x="126" y="660" type="line"/>
      <point x="123" y="646" type="line"/>
      <point x="191" y="629" type="line"/>
      <point x="85" y="33" type="line"/>
      <point x="12" y="15" type="line"/>
    </contour>
    <contour>
      <point x="72" y="-240" type="curve" smooth="yes"/>
      <point x="106" y="-240"/>
      <point x="132" y="-226"/>
      <point x="147" y="-211" type="curve"/>
      <point x="149" y="-200" type="line"/>
      <point x="146" y="-200" type="line"/>
      <point x="130" y="-211"/>
      <point x="108" y="-217"/>
      <point x="90" y="-217" type="curve" smooth="yes"/>
      <point x="51" y="-217"/>
      <point x="28" y="-200"/>
      <point x="28" y="-161" type="curve" smooth="yes"/>
      <point x="28" y="-102"/>
      <point x="65" y="-59"/>
      <point x="138" y="7" type="curve"/>
      <point x="119" y="7" type="line"/>
      <point x="52" y="-46"/>
      <point x="-9" y="-105"/>
      <point x="-9" y="-167" type="curve" smooth="yes"/>
      <point x="-9" y="-212"/>
      <point x="24" y="-240"/>
    </contour>
  </outline>
</glyph>
<glyph name="iogonek" format="2">
  <advance width="235"/>
  <unicode hex="012F"/>
  <outline>
    <contour>
      <point x="57" y="-240" type="curve" smooth="yes"/>
      <point x="91" y="-240"/>
      <point x="117" y="-226"/>
      <point x="132" y="-211" type="curve"/>
      <point x="134" y="-200" type="line"/>
      <point x="131" y="-200" type="line"/>
      <point x="115" y="-211"/>
      <point x="93" y="-217"/>
      <point x="75" y="-217" type="curve" smooth="yes"/>
      <point x="36" y="-217"/>
      <point x="13" y="-200"/>
      <point x="13" y="-161" type="curve" smooth="yes"/>
      <point x="13" y="-102"/>
      <point x="50" y="-59"/>
      <point x="123" y="7" type="curve"/>
      <point x="104" y="7" type="line"/>
      <point x="37" y="-46"/>
      <point x="-24" y="-105"/>
      <point x="-24" y="-167" type="curve" smooth="yes"/>
      <point x="-24" y="-212"/>
      <point x="9" y="-240"/>
    </contour>
    <contour>
      <point x="88" y="-10" type="curve" smooth="yes"/>
      <point x="129" y="-10"/>
      <point x="170" y="26"/>
      <point x="205" y="113" type="curve"/>
      <point x="191" y="118" type="line"/>
      <point x="168" y="65"/>
      <point x="140" y="36"/>
      <point x="114" y="36" type="curve" smooth="yes"/>
      <point x="93" y="36"/>
      <point x="89" y="55"/>
      <point x="100" y="119" type="curve" smooth="yes"/>
      <point x="161" y="460" type="line"/>
      <point x="148" y="460" type="line"/>
      <point x="46" y="436" type="line"/>
      <point x="46" y="426" type="line"/>
      <point x="109" y="417" type="line"/>
      <point x="52" y="95" type="line" smooth="yes"/>
      <point x="38" y="14"/>
      <point x="56" y="-10"/>
    </contour>
    <contour>
      <point x="167" y="622" type="curve" smooth="yes"/>
      <point x="186" y="622"/>
      <point x="201" y="637"/>
      <point x="201" y="656" type="curve" smooth="yes"/>
      <point x="201" y="675"/>
      <point x="186" y="690"/>
      <point x="167" y="690" type="curve" smooth="yes"/>
      <point x="148" y="690"/>
      <point x="133" y="675"/>
      <point x="133" y="656" type="curve" smooth="yes"/>
      <point x="133" y="637"/>
      <point x="148" y="622"/>
    </contour>
  </outline>
</glyph>
<glyph name="kgreenlandic" format="2">
  <advance width="458"/>
  <unicode hex="0138"/>
  <outline>
    <contour>
      <point x="45" y="0" type="line"/>
      <point x="88" y="0" type="line"/>
      <point x="170" y="460" type="line"/>
      <point x="162" y="460" type="line"/>
      <point x="55" y="436" type="line"/>
      <point x="55" y="426" type="line"/>
      <point x="118" y="417" type="line"/>
    </contour>
    <contour>
      <point x="313" y="-10" type="curve" smooth="yes"/>
      <point x="351" y="-10"/>
      <point x="388" y="38"/>
      <point x="418" y="113" type="curve"/>
      <point x="404" y="118" type="line"/>
      <point x="380" y="61"/>
      <point x="350" y="36"/>
      <point x="331" y="36" type="curve" smooth="yes"/>
      <point x="314" y="36"/>
      <point x="306" y="44"/>
      <point x="269" y="109" type="curve" smooth="yes"/>
      <point x="175" y="276" type="line"/>
      <point x="165" y="261" type="line"/>
      <point x="239" y="336" type="line" smooth="yes"/>
      <point x="304" y="401"/>
      <point x="345" y="425"/>
      <point x="364" y="425" type="curve"/>
      <point x="342" y="430" type="line"/>
      <point x="396" y="398" type="line"/>
      <point x="408" y="419" type="line" smooth="yes"/>
      <point x="411" y="424"/>
      <point x="412" y="428"/>
      <point x="412" y="432" type="curve" smooth="yes"/>
      <point x="412" y="447"/>
      <point x="397" y="460"/>
      <point x="373" y="460" type="curve" smooth="yes"/>
      <point x="342" y="460"/>
      <point x="307" y="435"/>
      <point x="139" y="257" type="curve"/>
      <point x="139" y="252" type="line"/>
      <point x="233" y="79" type="line" smooth="yes"/>
      <point x="274" y="4"/>
      <point x="288" y="-10"/>
    </contour>
  </outline>
</glyph>
<glyph name="Lslash" format="1">
  <advance width="551"/>
  <unicode hex="0141"/>
  <outline>
    <contour>
      <point x="10" y="0" type="line"/>
      <point x="438" y="0" type="line"/>
      <point x="474" y="207" type="line"/>
      <point x="456" y="207" type="line"/>
      <point x="383" y="30" type="line"/>
      <point x="140" y="30" type="line"/>
      <point x="245" y="628" type="line"/>
      <point x="328" y="646" type="line"/>
      <point x="331" y="660" type="line"/>
      <point x="126" y="660" type="line"/>
      <point x="123" y="646" type="line"/>
      <point x="191" y="628" type="line"/>
      <point x="85" y="32" type="line"/>
      <point x="14" y="15" type="line"/>
    </contour>
    <contour>
      <point x="52" y="238" type="line"/>
      <point x="145" y="290" type="line"/>
      <point x="174" y="300" type="line"/>
      <point x="394" y="419" type="line"/>
      <point x="403" y="460" type="line"/>
      <point x="183" y="341" type="line"/>
      <point x="154" y="332" type="line"/>
      <point x="61" y="279" type="line"/>
    </contour>
  </outline>
</glyph>
<glyph name="lslash" format="1">
  <advance width="254.0"/>
  <unicode hex="0142"/>
  <outline>
    <contour>
      <point x="105" y="-10" type="curve" smooth="yes"/>
      <point x="146" y="-10"/>
      <point x="187" y="26"/>
      <point x="222" y="113" type="curve"/>
      <point x="208" y="118" type="line"/>
      <point x="185" y="65"/>
      <point x="157" y="36"/>
      <point x="131" y="36" type="curve" smooth="yes"/>
      <point x="110" y="36"/>
      <point x="106" y="55"/>
      <point x="117" y="119" type="curve" smooth="yes"/>
      <point x="230" y="750" type="line"/>
      <point x="217" y="750" type="line"/>
      <point x="115" y="726" type="line"/>
      <point x="115" y="716" type="line"/>
      <point x="178" y="707" type="line"/>
      <point x="69" y="95" type="line" smooth="yes"/>
      <point x="55" y="14"/>
      <point x="73" y="-10"/>
    </contour>
    <contour>
      <point x="29" y="233" type="line"/>
      <point x="118" y="297" type="line"/>
      <point x="135" y="304" type="line"/>
      <point x="226" y="372" type="line"/>
      <point x="233" y="407" type="line"/>
      <point x="142" y="340" type="line"/>
      <point x="124" y="333" type="line"/>
      <point x="36" y="268" type="line"/>
    </contour>
  </outline>
</glyph>
<glyph name="Eng" format="2">
  <advance width="718"/>
  <unicode hex="014A"/>
  <outline>
    <contour>
      <point x="10" y="0" type="line"/>
      <point x="198" y="0" type="line"/>
      <point x="200" y="15" type="line"/>
      <point x="122" y="35" type="line"/>
      <point x="222" y="601" type="line"/>
      <point x="209" y="601" type="line"/>
      <point x="515" y="-21" type="line"/>
      <point x="500" y="35" type="line"/>
      <point x="487" y="-39" type="line" smooth="yes"/>
      <point x="471" y="-132"/>
      <point x="436" y="-184"/>
      <point x="367" y="-220" type="curve"/>
      <point x="444" y="-189" type="line"/>
      <point x="300" y="-189" type="line"/>
      <point x="296" y="-207" type="line" smooth="yes"/>
      <point x="295" y="-211"/>
      <point x="294" y="-217"/>
      <point x="294" y="-220" type="curve" smooth="yes"/>
      <point x="294" y="-234"/>
      <point x="306" y="-240"/>
      <point x="327" y="-240" type="curve" smooth="yes"/>
      <point x="422" y="-240"/>
      <point x="496" y="-177"/>
      <point x="520" y="-44" type="curve" smooth="yes"/>
      <point x="639" y="628" type="line"/>
      <point x="706" y="646" type="line"/>
      <point x="708" y="660" type="line"/>
      <point x="522" y="660" type="line"/>
      <point x="520" y="646" type="line"/>
      <point x="605" y="628" type="line"/>
      <point x="504" y="55" type="line"/>
      <point x="535" y="61" type="line"/>
      <point x="243" y="660" type="line"/>
      <point x="114" y="660" type="line"/>
      <point x="112" y="646" type="line"/>
      <point x="191" y="629" type="line"/>
      <point x="85" y="32" type="line"/>
      <point x="12" y="15" type="line"/>
    </contour>
  </outline>
</glyph>
<glyph name="Eng" format="1">
  <advance width="718"/>
  <unicode hex="014A"/>
  <outline>
    <contour>
      <point x="10" y="0" type="line"/>
      <point x="198" y="0" type="line"/>
      <point x="200" y="15" type="line"/>
      <point x="122" y="35" type="line"/>
      <point x="222" y="601" type="line"/>
      <point x="209" y="601" type="line"/>
      <point x="515" y="-21" type="line"/>
      <point x="500" y="35" type="line"/>
      <point x="487" y="-39" type="line" smooth="yes"/>
      <point x="468" y="-148"/>
      <point x="432" y="-189"/>
      <point x="338" y="-189" type="curve" smooth="yes"/>
      <point x="294" y="-189" type="line"/>
      <point x="291" y="-191" type="line"/>
      <point x="291" y="-211" type="line" smooth="yes"/>
      <point x="291" y="-232"/>
      <point x="303" y="-240"/>
      <point x="328" y="-240" type="curve" smooth="yes"/>
      <point x="371" y="-240"/>
      <point x="409" y="-226"/>
      <point x="441" y="-201" type="curve" smooth="yes"/>
      <point x="477" y="-172"/>
      <point x="505" y="-128"/>
      <point x="520" y="-44" type="curve" smooth="yes"/>
      <point x="639" y="628" type="line"/>
      <point x="706" y="646" type="line"/>
      <point x="708" y="660" type="line"/>
      <point x="522" y="660" type="line"/>
      <point x="520" y="646" type="line"/>
      <point x="605" y="628" type="line"/>
      <point x="504" y="55" type="line"/>
      <point x="535" y="61" type="line"/>
      <point x="243" y="660" type="line"/>
      <point x="114" y="660" type="line"/>
      <point x="112" y="646" type="line"/>
      <point x="191" y="629" type="line"/>
      <point x="85" y="32" type="line"/>
      <point x="12" y="15" type="line"/>
    </contour>
  </outline>
</glyph>
<glyph name="eng" format="1">
  <advance width="461.862513668"/>
  <unicode hex="014B"/>
  <outline>
    <contour>
      <point x="46" y="0" type="line"/>
      <point x="91" y="0" type="line"/>
      <point x="151" y="340" type="line"/>
      <point x="167" y="460" type="line"/>
      <point x="159" y="460" type="line"/>
      <point x="57" y="436" type="line"/>
      <point x="57" y="426" type="line"/>
      <point x="120" y="417" type="line"/>
    </contour>
    <contour>
      <point x="175" y="-220" type="line"/>
      <point x="273" y="-171"/>
      <point x="334" y="-94"/>
      <point x="351" y="0" type="curve" smooth="yes"/>
      <point x="407" y="312" type="line" smooth="yes"/>
      <point x="425" y="412"/>
      <point x="392" y="460"/>
      <point x="325" y="460" type="curve" smooth="yes"/>
      <point x="270" y="460"/>
      <point x="226" y="428"/>
      <point x="155" y="349" type="curve"/>
      <point x="137" y="349" type="line"/>
      <point x="137" y="311" type="line"/>
      <point x="190" y="371"/>
      <point x="247" y="424"/>
      <point x="305" y="424" type="curve" smooth="yes"/>
      <point x="360" y="424"/>
      <point x="373" y="381"/>
      <point x="363" y="321" type="curve" smooth="yes"/>
      <point x="307" y="0" type="line" smooth="yes"/>
      <point x="288" y="-110"/>
      <point x="244" y="-158"/>
      <point x="175" y="-203" type="curve"/>
    </contour>
  </outline>
</glyph>
<glyph name="OE" format="1">
  <advance width="884"/>
  <unicode hex="0152"/>
  <outline>
    <contour>
      <point x="378" y="0" type="curve" smooth="yes"/>
      <point x="468" y="0" type="line"/>
      <point x="584" y="660" type="line"/>
      <point x="449" y="660" type="line" smooth="yes"/>
      <point x="200" y="660"/>
      <point x="60" y="487"/>
      <point x="60" y="282" type="curve" smooth="yes"/>
      <point x="60" y="94"/>
      <point x="171" y="0"/>
    </contour>
    <contour>
      <point x="373" y="30" type="line" smooth="yes"/>
      <point x="204" y="30"/>
      <point x="115" y="120"/>
      <point x="115" y="278" type="curve" smooth="yes"/>
      <point x="115" y="490"/>
      <point x="237" y="630"/>
      <point x="443" y="630" type="curve" smooth="yes"/>
      <point x="541" y="630" type="line"/>
      <point x="529" y="656" type="line"/>
      <point x="413" y="5" type="line"/>
      <point x="436" y="30" type="line"/>
    </contour>
    <contour>
      <point x="819" y="498" type="line"/>
      <point x="834" y="498" type="line"/>
      <point x="862" y="660" type="line"/>
      <point x="555" y="660" type="line"/>
      <point x="549" y="630" type="line"/>
      <point x="806" y="630" type="line"/>
    </contour>
    <contour>
      <point x="696" y="245" type="line"/>
      <point x="714" y="245" type="line"/>
      <point x="748" y="439" type="line"/>
      <point x="730" y="439" type="line"/>
      <point x="693" y="356" type="line"/>
      <point x="501" y="356" type="line"/>
      <point x="496" y="326" type="line"/>
      <point x="688" y="326" type="line"/>
    </contour>
    <contour>
      <point x="781" y="0" type="line"/>
      <point x="811" y="172" type="line"/>
      <point x="796" y="172" type="line"/>
      <point x="734" y="30" type="line"/>
      <point x="445" y="30" type="line"/>
      <point x="439" y="0" type="line"/>
    </contour>
  </outline>
</glyph>
<glyph name="oe" format="1">
  <advance width="744"/>
  <unicode hex="0153"/>
  <outline>
    <contour>
      <point x="188" y="-10" type="curve" smooth="yes"/>
      <point x="278" y="-10"/>
      <point x="350" y="57"/>
      <point x="389" y="143" type="curve"/>
      <point x="369" y="143" type="line"/>
      <point x="375" y="54"/>
      <point x="421" y="-10"/>
      <point x="513" y="-10" type="curve" smooth="yes"/>
      <point x="600" y="-10"/>
      <point x="664" y="54"/>
      <point x="690" y="124" type="curve"/>
      <point x="684" y="129" type="line"/>
      <point x="682" y="129" type="line"/>
      <point x="646" y="60"/>
      <point x="597" y="22"/>
      <point x="534" y="22" type="curve" smooth="yes"/>
      <point x="461" y="22"/>
      <point x="411" y="75"/>
      <point x="411" y="173" type="curve" smooth="yes"/>
      <point x="411" y="328"/>
      <point x="496" y="438"/>
      <point x="595" y="438" type="curve" smooth="yes"/>
      <point x="644" y="438"/>
      <point x="667" y="412"/>
      <point x="667" y="378" type="curve" smooth="yes"/>
      <point x="667" y="314"/>
      <point x="588" y="283"/>
      <point x="415" y="260" type="curve"/>
      <point x="415" y="245" type="line"/>
      <point x="627" y="272"/>
      <point x="713" y="322"/>
      <point x="713" y="382" type="curve" smooth="yes"/>
      <point x="713" y="420"/>
      <point x="681" y="460"/>
      <point x="610" y="460" type="curve" smooth="yes"/>
      <point x="530" y="460"/>
      <point x="445" y="391"/>
      <point x="401" y="297" type="curve"/>
      <point x="419" y="297" type="line"/>
      <point x="413" y="394"/>
      <point x="359" y="460"/>
      <point x="271" y="460" type="curve" smooth="yes"/>
      <point x="147" y="460"/>
      <point x="40" y="330"/>
      <point x="40" y="166" type="curve" smooth="yes"/>
      <point x="40" y="63"/>
      <point x="95" y="-10"/>
    </contour>
    <contour>
      <point x="204" y="13" type="curve" smooth="yes"/>
      <point x="127" y="13"/>
      <point x="87" y="81"/>
      <point x="87" y="177" type="curve" smooth="yes"/>
      <point x="87" y="320"/>
      <point x="159" y="438"/>
      <point x="256" y="438" type="curve" smooth="yes"/>
      <point x="334" y="438"/>
      <point x="372" y="371"/>
      <point x="372" y="278" type="curve" smooth="yes"/>
      <point x="372" y="130"/>
      <point x="298" y="13"/>
    </contour>
  </outline>
</glyph>
<glyph name="Scedilla" format="1">
  <advance width="496"/>
  <unicode hex="015E"/>
  <outline>
    <contour>
      <point x="192" y="-10" type="curve" smooth="yes"/>
      <point x="322" y="-10"/>
      <point x="408" y="93"/>
      <point x="408" y="182" type="curve" smooth="yes"/>
      <point x="408" y="268"/>
      <point x="362" y="307"/>
      <point x="276" y="360" type="curve" smooth="yes"/>
      <point x="181" y="419"/>
      <point x="158" y="458"/>
      <point x="158" y="515" type="curve" smooth="yes"/>
      <point x="158" y="594"/>
      <point x="213" y="641"/>
      <point x="297" y="641" type="curve" smooth="yes"/>
      <point x="343" y="641"/>
      <point x="379" y="620"/>
      <point x="396" y="598" type="curve"/>
      <point x="412" y="488" type="line"/>
      <point x="428" y="488" type="line"/>
      <point x="446" y="628" type="line"/>
      <point x="404" y="654"/>
      <point x="356" y="670"/>
      <point x="303" y="670" type="curve" smooth="yes"/>
      <point x="198" y="670"/>
      <point x="112" y="576"/>
      <point x="112" y="486" type="curve" smooth="yes"/>
      <point x="112" y="421"/>
      <point x="143" y="383"/>
      <point x="224" y="330" type="curve" smooth="yes"/>
      <point x="306" y="276"/>
      <point x="360" y="247"/>
      <point x="360" y="170" type="curve" smooth="yes"/>
      <point x="360" y="81"/>
      <point x="303" y="19"/>
      <point x="209" y="19" type="curve" smooth="yes"/>
      <point x="162" y="19"/>
      <point x="110" y="35"/>
      <point x="86" y="61" type="curve"/>
      <point x="65" y="180" type="line"/>
      <point x="49" y="180" type="line"/>
      <point x="30" y="36" type="line"/>
      <point x="78" y="6"/>
      <point x="121" y="-10"/>
    </contour>
    <contour>
      <point x="161" y="-240" type="curve" smooth="yes"/>
      <point x="218" y="-240"/>
      <point x="264" y="-207"/>
      <point x="264" y="-156" type="curve" smooth="yes"/>
      <point x="264" y="-107"/>
      <point x="225" y="-82"/>
      <point x="157" y="-68" type="curve"/>
      <point x="155" y="-83" type="line"/>
      <point x="214" y="10" type="line"/>
      <point x="195" y="10" type="line"/>
      <point x="128" y="-95" type="line"/>
      <point x="206" y="-109"/>
      <point x="232" y="-127"/>
      <point x="232" y="-167" type="curve" smooth="yes"/>
      <point x="232" y="-205"/>
      <point x="202" y="-226"/>
      <point x="160" y="-226" type="curve" smooth="yes"/>
      <point x="139" y="-226"/>
      <point x="120" y="-222"/>
      <point x="101" y="-210" type="curve"/>
      <point x="98" y="-210" type="line"/>
      <point x="96" y="-220" type="line"/>
      <point x="110" y="-233"/>
      <point x="137" y="-240"/>
    </contour>
  </outline>
</glyph>
<glyph name="scedilla" format="2">
  <advance width="365"/>
  <unicode hex="015F"/>
  <outline>
    <contour>
      <point x="104" y="-240" type="curve" smooth="yes"/>
      <point x="161" y="-240"/>
      <point x="207" y="-207"/>
      <point x="207" y="-156" type="curve" smooth="yes"/>
      <point x="207" y="-107"/>
      <point x="168" y="-82"/>
      <point x="100" y="-68" type="curve"/>
      <point x="98" y="-83" type="line"/>
      <point x="157" y="10" type="line"/>
      <point x="138" y="10" type="line"/>
      <point x="71" y="-95" type="line"/>
      <point x="149" y="-109"/>
      <point x="175" y="-127"/>
      <point x="175" y="-167" type="curve" smooth="yes"/>
      <point x="175" y="-205"/>
      <point x="145" y="-226"/>
      <point x="103" y="-226" type="curve" smooth="yes"/>
      <point x="82" y="-226"/>
      <point x="63" y="-222"/>
      <point x="44" y="-210" type="curve"/>
      <point x="41" y="-210" type="line"/>
      <point x="39" y="-220" type="line"/>
      <point x="53" y="-233"/>
      <point x="80" y="-240"/>
    </contour>
    <contour>
      <point x="74" y="21" type="curve"/>
      <point x="107" y="5" type="line"/>
      <point x="41" y="80" type="line"/>
      <point x="23" y="61" type="line" smooth="yes"/>
      <point x="17" y="55"/>
      <point x="15" y="50"/>
      <point x="15" y="45" type="curve" smooth="yes"/>
      <point x="15" y="26"/>
      <point x="61" y="-10"/>
      <point x="138" y="-10" type="curve" smooth="yes"/>
      <point x="226" y="-10"/>
      <point x="288" y="64"/>
      <point x="288" y="132" type="curve" smooth="yes"/>
      <point x="288" y="192"/>
      <point x="254" y="217"/>
      <point x="193" y="253" type="curve" smooth="yes"/>
      <point x="146" y="281"/>
      <point x="125" y="307"/>
      <point x="125" y="353" type="curve" smooth="yes"/>
      <point x="125" y="401"/>
      <point x="170" y="443"/>
      <point x="226" y="443" type="curve" smooth="yes"/>
      <point x="237" y="443"/>
      <point x="248" y="442"/>
      <point x="258" y="439" type="curve"/>
      <point x="232" y="448" type="line"/>
      <point x="312" y="380" type="line"/>
      <point x="324" y="394" type="line" smooth="yes"/>
      <point x="329" y="400"/>
      <point x="331" y="406"/>
      <point x="331" y="411" type="curve" smooth="yes"/>
      <point x="331" y="430"/>
      <point x="292" y="460"/>
      <point x="233" y="460" type="curve" smooth="yes"/>
      <point x="145" y="460"/>
      <point x="85" y="390"/>
      <point x="85" y="331" type="curve" smooth="yes"/>
      <point x="85" y="275"/>
      <point x="116" y="246"/>
      <point x="175" y="213" type="curve" smooth="yes"/>
      <point x="232" y="181"/>
      <point x="247" y="157"/>
      <point x="247" y="112" type="curve" smooth="yes"/>
      <point x="247" y="53"/>
      <point x="202" y="7"/>
      <point x="135" y="7" type="curve" smooth="yes"/>
      <point x="114" y="7"/>
      <point x="93" y="12"/>
    </contour>
  </outline>
</glyph>
<glyph name="Tcedilla" format="1">
  <advance width="641"/>
  <unicode hex="0162"/>
  <outline>
    <contour>
      <point x="141" y="0" type="line"/>
      <point x="395" y="0" type="line"/>
      <point x="397" y="15" type="line"/>
      <point x="300" y="35" type="line"/>
      <point x="406" y="630" type="line"/>
      <point x="605" y="630" type="line"/>
      <point x="615" y="483" type="line"/>
      <point x="630" y="483" type="line"/>
      <point x="661" y="660" type="line"/>
      <point x="106" y="660" type="line"/>
      <point x="75" y="483" type="line"/>
      <point x="90" y="483" type="line"/>
      <point x="154" y="630" type="line"/>
      <point x="352" y="630" type="line"/>
      <point x="246" y="35" type="line"/>
      <point x="144" y="15" type="line"/>
    </contour>
    <contour>
      <point x="230" y="-240" type="curve" smooth="yes"/>
      <point x="287" y="-240"/>
      <point x="333" y="-207"/>
      <point x="333" y="-156" type="curve" smooth="yes"/>
      <point x="333" y="-107"/>
      <point x="294" y="-82"/>
      <point x="226" y="-68" type="curve"/>
      <point x="224" y="-83" type="line"/>
      <point x="283" y="10" type="line"/>
      <point x="264" y="10" type="line"/>
      <point x="197" y="-95" type="line"/>
      <point x="275" y="-109"/>
      <point x="301" y="-127"/>
      <point x="301" y="-167" type="curve" smooth="yes"/>
      <point x="301" y="-205"/>
      <point x="271" y="-226"/>
      <point x="229" y="-226" type="curve" smooth="yes"/>
      <point x="208" y="-226"/>
      <point x="189" y="-222"/>
      <point x="170" y="-210" type="curve"/>
      <point x="167" y="-210" type="line"/>
      <point x="165" y="-220" type="line"/>
      <point x="179" y="-233"/>
      <point x="206" y="-240"/>
    </contour>
  </outline>
</glyph>
<glyph name="tcedilla" format="1">
  <advance width="301.0"/>
  <unicode hex="0163"/>
  <outline>
    <contour>
      <point x="124" y="-10" type="curve" smooth="yes"/>
      <point x="174" y="-10"/>
      <point x="221" y="32"/>
      <point x="262" y="134" type="curve"/>
      <point x="248" y="139" type="line"/>
      <point x="217" y="67"/>
      <point x="179" y="29"/>
      <point x="145" y="29" type="curve" smooth="yes"/>
      <point x="125" y="29"/>
      <point x="115" y="41"/>
      <point x="115" y="74" type="curve" smooth="yes"/>
      <point x="115" y="87"/>
      <point x="117" y="103"/>
      <point x="120" y="124" type="curve" smooth="yes"/>
      <point x="171" y="421" type="line"/>
      <point x="295" y="421" type="line"/>
      <point x="295" y="450" type="line"/>
      <point x="177" y="450" type="line"/>
      <point x="197" y="560" type="line"/>
      <point x="188" y="560" type="line"/>
      <point x="140" y="453" type="line"/>
      <point x="49" y="428" type="line"/>
      <point x="49" y="421" type="line"/>
      <point x="126" y="421" type="line"/>
      <point x="69" y="89" type="line" smooth="yes"/>
      <point x="67" y="78"/>
      <point x="66" y="67"/>
      <point x="66" y="58" type="curve" smooth="yes"/>
      <point x="66" y="15"/>
      <point x="85" y="-10"/>
    </contour>
    <contour>
      <point x="90" y="-240" type="curve" smooth="yes"/>
      <point x="147" y="-240"/>
      <point x="193" y="-207"/>
      <point x="193" y="-156" type="curve" smooth="yes"/>
      <point x="193" y="-107"/>
      <point x="154" y="-82"/>
      <point x="86" y="-68" type="curve"/>
      <point x="84" y="-83" type="line"/>
      <point x="143" y="10" type="line"/>
      <point x="124" y="10" type="line"/>
      <point x="57" y="-95" type="line"/>
      <point x="135" y="-109"/>
      <point x="161" y="-127"/>
      <point x="161" y="-167" type="curve" smooth="yes"/>
      <point x="161" y="-205"/>
      <point x="131" y="-226"/>
      <point x="89" y="-226" type="curve" smooth="yes"/>
      <point x="68" y="-226"/>
      <point x="49" y="-222"/>
      <point x="30" y="-210" type="curve"/>
      <point x="27" y="-210" type="line"/>
      <point x="25" y="-220" type="line"/>
      <point x="39" y="-233"/>
      <point x="66" y="-240"/>
    </contour>
  </outline>
</glyph>
<glyph name="Tbar" format="1">
  <advance width="641"/>
  <unicode hex="0166"/>
  <outline>
    <contour>
      <point x="169" y="330" type="line"/>
      <point x="482" y="330" type="line"/>
      <point x="488" y="360" type="line"/>
      <point x="175" y="360" type="line"/>
    </contour>
    <contour>
      <point x="397" y="15" type="line"/>
      <point x="300" y="35" type="line"/>
      <point x="406" y="630" type="line"/>
      <point x="605" y="630" type="line"/>
      <point x="615" y="483" type="line"/>
      <point x="630" y="483" type="line"/>
      <point x="661" y="660" type="line"/>
      <point x="106" y="660" type="line"/>
      <point x="75" y="483" type="line"/>
      <point x="90" y="483" type="line"/>
      <point x="154" y="630" type="line"/>
      <point x="352" y="630" type="line"/>
      <point x="246" y="35" type="line"/>
      <point x="144" y="15" type="line"/>
      <point x="141" y="0" type="line"/>
      <point x="395" y="0" type="line"/>
    </contour>
  </outline>
</glyph>
